<svg width="225" height="88" viewBox="0 0 225 88" fill="none" xmlns="http://www.w3.org/2000/svg">
<g clip-path="url(#clip0_363_213)">
<rect width="225" height="88" fill="black"/>
<rect width="74" height="24" fill="#C28246"/>
<rect x="150" y="44" width="74" height="21" fill="#C28246"/>
<rect x="75" width="74" height="24" fill="#BA712E"/>
<rect x="1" y="43" width="77" height="24" fill="#BA712E"/>
<rect x="149" width="76" height="24" fill="#7A4D23"/>
<rect x="69" y="24" width="66" height="20" fill="#E69245"/>
<rect x="172" y="67" width="40" height="20" fill="#E69245"/>
<rect x="133" y="23" width="76" height="21" fill="#BA712E"/>
<rect x="81" y="45" width="68" height="21" fill="#BA712E"/>
<rect y="67" width="35" height="20" fill="#BA712E"/>
<rect x="212" y="67" width="34" height="20" fill="#BA712E"/>
<rect y="23" width="29" height="20" fill="#884C14"/>
<rect x="135" y="66" width="37" height="20" fill="#884C14"/>
<rect x="35" y="67" width="62" height="20" fill="#9F8164"/>
<rect x="31" y="23" width="34" height="20" fill="#9F6D3E"/>
<rect x="95" y="67" width="38" height="20" fill="#9F6D3E"/>
<rect x="213" y="24" width="12" height="20" fill="#884C14"/>
<path d="M0 4.6996C0 9.6996 0.6 10.0996 1.4 5.5996C1.7 3.9996 2.2 2.4996 2.5 2.0996C2.9 1.7996 18.1 1.3996 36.3 1.1996C62.5 0.899596 69.8 1.1996 71.1 2.1996C72.3 3.0996 73 5.7996 73.4 11.1996C74.3 22.1996 74 22.3996 58.6 21.4996C51.9 21.1996 40.7 20.8996 33.6 20.8996C25.9 20.8996 20.1 20.4996 19.4 19.8996C18.7 19.2996 17.7 19.0996 17.1 19.3996C15.2 20.5996 6.5 21.7996 3.8 21.2996C1.5 20.8996 1.1 20.1996 0.7 16.5996C0.4 12.7996 0.3 12.7996 0.2 17.6996C0.1 20.4996 0.5 23.1996 1.1 23.5996C1.7 23.8996 6.1 24.3996 10.8 24.4996C15.6 24.6996 20.9 25.0996 22.6 25.4996C25.7 26.1996 25.8 26.2996 26.2 32.8996C26.5 36.4996 26.3 39.8996 25.8 40.4996C25.3 41.0996 19.5 41.4996 12.5 41.4996H0V54.5996V67.6996L15.1 67.7996C25 67.7996 30.6 68.1996 31.4 68.9996C32.5 70.0996 32.7 83.5996 31.6 84.7996C30.5 85.7996 13.2 86.1996 11.3 85.1996C9.3 84.0996 0 85.6996 0 87.1996C0 87.7996 207.7 87.6996 214.5 87.0996C215.1 87.0996 217.6 87.2996 220.3 87.5996C224.2 88.0996 225 87.8996 225 86.5996C225 85.4996 224.1 84.9996 222.1 84.9996C220.5 84.9996 217.9 84.6996 216.1 84.3996C212.4 83.5996 211.4 80.1996 212.7 72.4996L213.6 67.4996L218 67.2996C220.5 67.1996 223.1 67.0996 223.8 67.0996C224.8 66.9996 225 64.0996 224.8 54.1996L224.5 41.4996L218.8 41.7996L213 42.1996V32.9996V23.6996L219 24.2996L225 24.7996V12.3996V-0.000404141H112.5H0V4.6996ZM124.3 2.1996C125.3 2.1996 127.2 2.4996 128.5 2.9996C130 3.5996 131.2 3.5996 131.5 2.9996C132.3 1.7996 143 1.6996 144.8 2.8996C146.7 3.9996 137.8 6.1996 134.5 5.3996C132.4 4.8996 132 5.0996 132 6.9996C132 8.4996 132.5 8.9996 133.4 8.6996C134.2 8.3996 136.5 7.7996 138.4 7.3996C140.4 7.0996 142.3 6.3996 142.6 5.8996C142.9 5.3996 144 4.9996 145.1 4.9996C146.7 4.9996 147 5.6996 147 10.4996C147 15.9996 147 15.9996 142.8 17.8996C136.7 20.6996 134.5 20.8996 104.3 21.4996L77.1 22.0996L76.8 12.8996C76.6 7.5996 76.9 3.4996 77.5 3.1996C79 2.1996 104.4 1.1996 114 1.7996C118.7 2.0996 123.3 2.2996 124.3 2.1996ZM222.7 3.5996C223.6 4.8996 224 7.8996 223.8 12.9996L223.5 20.4996L214.3 20.7996C208.9 20.8996 205 20.6996 205 20.0996C205 19.5996 205.6 18.8996 206.3 18.6996C206.9 18.3996 206.2 18.0996 204.6 18.0996C202.3 17.9996 202 18.2996 202.9 19.2996C203.8 20.4996 201.9 20.7996 191.8 21.2996C172.9 22.3996 169 22.1996 168.4 20.4996C167.7 18.8996 163.5 18.3996 162.5 19.8996C161.7 21.3996 149.8 21.0996 150.3 19.6996C150.5 18.9996 151.6 18.5996 152.7 18.7996C156.3 19.2996 156.1 16.3996 152.4 14.9996C149.2 13.6996 149 13.2996 149 8.8996C149 4.8996 149.3 4.0996 151.3 3.4996C155.2 2.1996 172.8 1.4996 197.4 1.5996C219.5 1.7996 221.5 1.8996 222.7 3.5996ZM129.1 26.7996C129.1 28.2996 129.3 30.7996 129.5 32.4996C130.1 36.6996 129.4 38.2996 126.1 40.2996C122.6 42.3996 111 42.6996 111 40.6996C111 39.7996 110.8 39.7996 110.2 40.6996C109.2 42.1996 87.8 42.5996 83.4 41.1996C81.6 40.5996 79.7 40.5996 78.9 41.0996C78.1 41.5996 75.6 41.9996 73.3 41.9996H69V34.5996C69 28.1996 69.3 26.8996 71 25.6996C72.6 24.5996 78.7 24.2996 101 24.1996L129 23.9996L129.1 26.7996ZM167.7 26.0996C170.1 26.9996 170.4 28.6996 169.4 35.1996C168.9 37.9996 168.2 38.9996 166.9 38.9996C165.9 38.9996 164.7 39.7996 164.1 40.6996C163.3 42.1996 161.9 42.4996 155.3 42.1996C151 42.0996 146.7 41.6996 145.8 41.3996C144.8 41.0996 144 41.2996 144 41.8996C144 43.0996 139.8 43.2996 136.3 42.3996C134.2 41.7996 134 41.1996 134 35.5996C134 25.7996 134.4 25.1996 140.4 24.6996C147.8 24.1996 165 25.0996 167.7 26.0996ZM203.3 24.8996L208 24.9996V32.0996C208 36.4996 207.5 39.5996 206.7 40.3996C204.8 42.3996 190.6 42.9996 185.3 41.3996C182.8 40.5996 179.2 39.8996 177.2 39.6996L173.5 39.2996L173.2 33.9996C172.6 23.8996 172.2 24.2996 186.2 24.4996C193 24.5996 200.6 24.7996 203.3 24.8996ZM64.5 27.6996C64.9 29.4996 64.7 30.7996 63.7 31.4996C62.8 32.1996 62.6 33.1996 63.1 34.4996C63.5 35.5996 63.9 37.6996 63.9 39.1996C64 42.2996 65.9 41.9996 44 42.4996C35.1 42.6996 31 41.2996 30.9 37.9996C30.7 33.4996 31.2 26.4996 31.6 25.7996C31.9 25.2996 39.2 24.9996 48 24.9996H63.8L64.5 27.6996ZM115.1 47.1996C115.1 49.4996 115.1 49.4996 116 47.3996C116.8 45.3996 117.6 45.2996 131.2 45.1996C139 45.0996 146 45.2996 146.6 45.6996C147.3 46.1996 147.5 49.4996 147.2 55.1996L146.7 63.9996H139.1C134.9 63.8996 129.7 63.2996 127.5 62.4996C122.7 60.6996 123 60.7996 123 61.9996C123 62.4996 123.8 62.9996 124.8 62.9996C126 62.9996 126.1 63.2996 125.3 63.7996C123.5 64.9996 89.9 64.2996 86.6 62.9996C85.1 62.4996 83.5 61.9996 83 61.9996C82.1 61.9996 81.2 48.2996 82 46.9996C82.8 45.6996 86.6 45.3996 101.3 45.1996C114.9 44.9996 115 44.9996 115.1 47.1996ZM197.9 46.2996C211.7 46.3996 223 46.6996 223.1 46.9996C223.7 50.1996 223.4 62.7996 222.7 63.6996C221.4 65.4996 211.2 65.3996 209.4 63.5996C208.6 62.7996 208 61.1996 208 60.0996C208 58.8996 207.6 57.9996 207 57.9996C206.5 57.9996 206 58.3996 206 58.9996C206 59.4996 205.1 59.9996 204.1 59.9996C203.1 59.9996 202 60.6996 201.6 61.4996C201.3 62.2996 201.5 62.9996 202 62.9996C202.6 62.9996 203 62.4996 203 61.8996C203 61.3996 203.5 61.1996 204 61.4996C205.8 62.5996 205 63.9996 202.5 63.9996C201.1 63.9996 200 63.4996 200 62.8996C200 62.2996 199.5 62.1996 198.8 62.6996C196.9 63.7996 153.9 63.9996 151.8 62.8996C149.9 61.8996 149.5 57.7996 150.8 50.4996L151.5 46.4996L160.5 45.9996C165.5 45.6996 170.2 45.5996 171.1 45.6996C172 45.8996 184.1 46.1996 197.9 46.2996ZM77.5 54.9996V63.4996L67.7 63.7996C60.9 63.9996 56.6 63.5996 53.5 62.4996C47.9 60.6996 47 60.5996 47 62.3996C47 64.1996 36.3 65.0996 24.8 64.2996C17.6 63.7996 16 63.3996 16.5 62.1996C16.9 61.0996 16.4 60.8996 14.3 61.4996C12.7 61.7996 11.4 62.5996 11.2 63.0996C11 63.5996 9.3 63.9996 7.5 63.9996C4.6 63.9996 4.1 63.5996 3.4 60.6996C2.5 56.7996 2.7 52.3996 4.1 48.8996L5.1 46.2996L41.3 46.3996L77.5 46.4996V54.9996ZM124.3 68.1996L132 69.2996V73.5996C132 75.9996 131.6 78.1996 131 78.4996C130.5 78.7996 130 79.5996 130 80.0996C130 80.6996 130.4 80.8996 130.9 80.4996C132.3 79.6996 132.9 81.1996 132 83.3996C131.4 85.2996 130.1 85.3996 114.8 85.6996L98.2 85.8996L97.6 82.6996C96.5 76.1996 96.1 70.3996 96.8 69.2996C97.3 68.5996 100.8 67.9996 105.5 67.6996C109.9 67.5996 114.2 67.2996 115 67.1996C115.8 67.0996 120 67.4996 124.3 68.1996ZM170.4 69.1996C171.2 72.3996 171.1 82.2996 170.2 83.5996C169.4 84.9996 136.4 86.4996 135.7 85.2996C135.5 84.8996 135.6 82.1996 135.9 79.2996C136.3 76.4996 136.3 73.2996 135.9 72.2996C134.3 67.9996 136.4 67.3996 157.1 67.1996C169.5 66.9996 169.8 67.0996 170.4 69.1996ZM192.6 68.6996C193.9 69.9996 194.5 70.0996 194.8 69.1996C195 68.3996 197.5 67.9996 202.1 67.9996H209V76.4996V84.9996H197.3C178.7 84.9996 172.3 81.6996 173.8 72.8996L174.5 68.4996L181 67.8996C184.6 67.5996 188.3 67.2996 189.2 67.1996C190.1 67.0996 191.6 67.7996 192.6 68.6996ZM92.8 69.5996C94.3 70.6996 94.2 71.0996 91.6 73.7996L88.8 76.7996L91.4 79.0996C92.8 80.2996 94 81.6996 94 81.9996C94 82.9996 82.9 83.9996 80.2 83.2996C79 82.9996 78 82.1996 78 81.4996C78 80.6996 77.2 79.3996 76.3 78.3996C75.3 77.3996 74.5 75.6996 74.5 74.5996C74.5 72.9996 73.9 72.4996 72 72.4996C70.6 72.4996 68.9 71.7996 68.2 70.9996C67 69.6996 66.9 69.7996 67.5 71.4996C67.9 72.5996 68.4 75.1996 68.7 77.1996C69 79.4996 69.8 80.9996 70.6 80.9996C71.4 80.9996 72 81.8996 72 82.9996C72 84.7996 71.3 84.9996 66.4 84.9996C63.4 84.9996 60 84.4996 58.9 83.9996C57.8 83.3996 56.4 83.1996 55.8 83.5996C55.2 83.9996 51.6 84.3996 47.8 84.4996C41.6 84.5996 40.9 84.3996 41.3 82.8996C41.7 81.3996 41.5 81.2996 39.9 82.2996C37.2 83.9996 36.3 82.4996 35.6 74.6996L34.9 67.9996L63.1 68.1996C83.4 68.2996 91.6 68.6996 92.8 69.5996Z" fill="black"/>
<path d="M104.5 5.9C101 6.5 100.8 6.7 102.8 7.3C104 7.8 105 8.6 105 9.1C105 9.6 105.9 10 107 10C108.5 10 109 9.3 109 7.5C109 6.1 108.9 5.1 108.8 5.1C108.6 5.2 106.7 5.6 104.5 5.9Z" fill="black"/>
<path d="M45.3 49.4993C45.3 51.4993 45.5 51.7993 46.6 50.8993C47.4 50.2993 48 49.0993 48 48.3993C48 47.5993 47.4 46.9993 46.6 46.9993C45.8 46.9993 45.3 47.9993 45.3 49.4993Z" fill="black"/>
<path d="M14.6999 53.3C14.3999 54.2 14.4999 55 15.0999 55C15.6999 55 15.8999 55.9 15.4999 57C15.0999 58.1 15.2999 59 15.8999 59C17.0999 59 17.1999 56.4 16.0999 53.6C15.3999 51.8 15.2999 51.8 14.6999 53.3Z" fill="black"/>
<path d="M44.1999 56.1991C43.3999 56.9991 43.2999 57.6991 44.0999 58.6991C45.8999 60.7991 47.9999 60.1991 47.9999 57.4991C47.9999 54.7991 46.1999 54.1991 44.1999 56.1991Z" fill="black"/>
<path d="M0 4.69959C0 9.69959 0.6 10.0996 1.4 5.59959C1.7 3.99959 2.2 2.49959 2.5 2.09959C2.9 1.79959 18.1 1.39959 36.3 1.19959C62.5 0.899593 69.8 1.19959 71.1 2.19959C72.3 3.09959 73 5.79959 73.4 11.1996C74.3 22.1996 74 22.3996 58.6 21.4996C51.9 21.1996 40.7 20.8996 33.6 20.8996C25.9 20.8996 20.1 20.4996 19.4 19.8996C18.7 19.2996 17.7 19.0996 17.1 19.3996C15.2 20.5996 6.5 21.7996 3.8 21.2996C1.5 20.8996 1.1 20.1996 0.7 16.5996C0.4 12.7996 0.3 12.7996 0.2 17.6996C0.1 20.4996 0.5 23.1996 1.1 23.5996C1.7 23.8996 6.1 24.3996 10.8 24.4996C15.6 24.6996 20.9 25.0996 22.6 25.4996C25.7 26.1996 25.8 26.2996 26.2 32.8996C26.5 36.4996 26.3 39.8996 25.8 40.4996C25.3 41.0996 19.5 41.4996 12.5 41.4996H0V54.5996V67.6996L15.1 67.7996C25 67.7996 30.6 68.1996 31.4 68.9996C32.5 70.0996 32.7 83.5996 31.6 84.7996C30.5 85.7996 13.2 86.1996 11.3 85.1996C9.3 84.0996 0 85.6996 0 87.1996C0 87.7996 207.7 87.6996 214.5 87.0996C215.1 87.0996 217.6 87.2996 220.3 87.5996C224.2 88.0996 225 87.8996 225 86.5996C225 85.4996 224.1 84.9996 222.1 84.9996C220.5 84.9996 217.9 84.6996 216.1 84.3996C212.4 83.5996 211.4 80.1996 212.7 72.4996L213.6 67.4996L218 67.2996C220.5 67.1996 223.1 67.0996 223.8 67.0996C224.8 66.9996 225 64.0996 224.8 54.1996L225 41.3996L218.8 41.7996L213 42.1996V32.9996V23.6996L219 24.2996L225 24.7996V12.3996V-0.000404358H112.5H0V4.69959ZM124.3 2.19959C125.3 2.19959 127.2 2.4996 128.5 2.9996C130 3.5996 131.2 3.5996 131.5 2.9996C132.3 1.7996 143 1.6996 144.8 2.8996C146.7 3.9996 137.8 6.1996 134.5 5.3996C132.4 4.8996 132 5.0996 132 6.9996C132 8.4996 132.5 8.99959 133.4 8.69959C134.2 8.39959 136.5 7.7996 138.4 7.3996C140.4 7.0996 142.3 6.3996 142.6 5.8996C142.9 5.3996 144 4.9996 145.1 4.9996C146.7 4.9996 147 5.6996 147 10.4996C147 15.9996 147 15.9996 142.8 17.8996C136.7 20.6996 134.5 20.8996 104.3 21.4996L77.1 22.0996L76.8 12.8996C76.6 7.5996 76.9 3.49959 77.5 3.19959C79 2.19959 104.4 1.1996 114 1.7996C118.7 2.0996 123.3 2.29959 124.3 2.19959ZM222.7 3.59959C223.6 4.89959 224 7.8996 223.8 12.9996L223.5 20.4996L214.3 20.7996C208.9 20.8996 205 20.6996 205 20.0996C205 19.5996 205.6 18.8996 206.3 18.6996C206.9 18.3996 206.2 18.0996 204.6 18.0996C202.3 17.9996 202 18.2996 202.9 19.2996C203.8 20.4996 201.9 20.7996 191.8 21.2996C172.9 22.3996 169 22.1996 168.4 20.4996C167.7 18.8996 163.5 18.3996 162.5 19.8996C161.7 21.3996 149.8 21.0996 150.3 19.6996C150.5 18.9996 151.6 18.5996 152.7 18.7996C156.3 19.2996 156.1 16.3996 152.4 14.9996C149.2 13.6996 149 13.2996 149 8.8996C149 4.8996 149.3 4.0996 151.3 3.4996C155.2 2.1996 172.8 1.49959 197.4 1.59959C219.5 1.79959 221.5 1.89959 222.7 3.59959ZM129.1 26.7996C129.1 28.2996 129.3 30.7996 129.5 32.4996C130.1 36.6996 129.4 38.2996 126.1 40.2996C122.6 42.3996 111 42.6996 111 40.6996C111 39.7996 110.8 39.7996 110.2 40.6996C109.2 42.1996 87.8 42.5996 83.4 41.1996C81.6 40.5996 79.7 40.5996 78.9 41.0996C78.1 41.5996 75.6 41.9996 73.3 41.9996H69V34.5996C69 28.1996 69.3 26.8996 71 25.6996C72.6 24.5996 78.7 24.2996 101 24.1996L129 23.9996L129.1 26.7996ZM167.7 26.0996C170.1 26.9996 170.4 28.6996 169.4 35.1996C168.9 37.9996 168.2 38.9996 166.9 38.9996C165.9 38.9996 164.7 39.7996 164.1 40.6996C163.3 42.1996 161.9 42.4996 155.3 42.1996C151 42.0996 146.7 41.6996 145.8 41.3996C144.8 41.0996 144 41.2996 144 41.8996C144 43.0996 139.8 43.2996 136.3 42.3996C134.2 41.7996 134 41.1996 134 35.5996C134 25.7996 134.4 25.1996 140.4 24.6996C147.8 24.1996 165 25.0996 167.7 26.0996ZM203.3 24.8996L208 24.9996V32.0996C208 36.4996 207.5 39.5996 206.7 40.3996C204.8 42.3996 190.6 42.9996 185.3 41.3996C182.8 40.5996 179.2 39.8996 177.2 39.6996L173.5 39.2996L173.2 33.9996C172.6 23.8996 172.2 24.2996 186.2 24.4996C193 24.5996 200.6 24.7996 203.3 24.8996ZM64.5 27.6996C64.9 29.4996 64.7 30.7996 63.7 31.4996C62.8 32.1996 62.6 33.1996 63.1 34.4996C63.5 35.5996 63.9 37.6996 63.9 39.1996C64 42.2996 65.9 41.9996 44 42.4996C35.1 42.6996 31 41.2996 30.9 37.9996C30.7 33.4996 31.2 26.4996 31.6 25.7996C31.9 25.2996 39.2 24.9996 48 24.9996H63.8L64.5 27.6996ZM115.1 47.1996C115.1 49.4996 115.1 49.4996 116 47.3996C116.8 45.3996 117.6 45.2996 131.2 45.1996C139 45.0996 146 45.2996 146.6 45.6996C147.3 46.1996 147.5 49.4996 147.2 55.1996L146.7 63.9996H139.1C134.9 63.8996 129.7 63.2996 127.5 62.4996C122.7 60.6996 123 60.7996 123 61.9996C123 62.4996 123.8 62.9996 124.8 62.9996C126 62.9996 126.1 63.2996 125.3 63.7996C123.5 64.9996 89.9 64.2996 86.6 62.9996C85.1 62.4996 83.5 61.9996 83 61.9996C82.1 61.9996 81.2 48.2996 82 46.9996C82.8 45.6996 86.6 45.3996 101.3 45.1996C114.9 44.9996 115 44.9996 115.1 47.1996ZM197.9 46.2996C211.7 46.3996 223 46.6996 223.1 46.9996C223.7 50.1996 223.4 62.7996 222.7 63.6996C221.4 65.4996 211.2 65.3996 209.4 63.5996C208.6 62.7996 208 61.1996 208 60.0996C208 58.8996 207.6 57.9996 207 57.9996C206.5 57.9996 206 58.3996 206 58.9996C206 59.4996 205.1 59.9996 204.1 59.9996C203.1 59.9996 202 60.6996 201.6 61.4996C201.3 62.2996 201.5 62.9996 202 62.9996C202.6 62.9996 203 62.4996 203 61.8996C203 61.3996 203.5 61.1996 204 61.4996C205.8 62.5996 205 63.9996 202.5 63.9996C201.1 63.9996 200 63.4996 200 62.8996C200 62.2996 199.5 62.1996 198.8 62.6996C196.9 63.7996 153.9 63.9996 151.8 62.8996C149.9 61.8996 149.5 57.7996 150.8 50.4996L151.5 46.4996L160.5 45.9996C165.5 45.6996 170.2 45.5996 171.1 45.6996C172 45.8996 184.1 46.1996 197.9 46.2996ZM77.5 54.9996V63.4996L67.7 63.7996C60.9 63.9996 56.6 63.5996 53.5 62.4996C47.9 60.6996 47 60.5996 47 62.3996C47 64.1996 36.3 65.0996 24.8 64.2996C17.6 63.7996 16 63.3996 16.5 62.1996C16.9 61.0996 16.4 60.8996 14.3 61.4996C12.7 61.7996 11.4 62.5996 11.2 63.0996C11 63.5996 9.3 63.9996 7.5 63.9996C4.6 63.9996 4.1 63.5996 3.4 60.6996C2.5 56.7996 2.7 52.3996 4.1 48.8996L5.1 46.2996L41.3 46.3996L77.5 46.4996V54.9996ZM124.3 68.1996L132 69.2996V73.5996C132 75.9996 131.6 78.1996 131 78.4996C130.5 78.7996 130 79.5996 130 80.0996C130 80.6996 130.4 80.8996 130.9 80.4996C132.3 79.6996 132.9 81.1996 132 83.3996C131.4 85.2996 130.1 85.3996 114.8 85.6996L98.2 85.8996L97.6 82.6996C96.5 76.1996 96.1 70.3996 96.8 69.2996C97.3 68.5996 100.8 67.9996 105.5 67.6996C109.9 67.5996 114.2 67.2996 115 67.1996C115.8 67.0996 120 67.4996 124.3 68.1996ZM170.4 69.1996C171.2 72.3996 171.1 82.2996 170.2 83.5996C169.4 84.9996 136.4 86.4996 135.7 85.2996C135.5 84.8996 135.6 82.1996 135.9 79.2996C136.3 76.4996 136.3 73.2996 135.9 72.2996C134.3 67.9996 136.4 67.3996 157.1 67.1996C169.5 66.9996 169.8 67.0996 170.4 69.1996ZM192.6 68.6996C193.9 69.9996 194.5 70.0996 194.8 69.1996C195 68.3996 197.5 67.9996 202.1 67.9996H209V76.4996V84.9996H197.3C178.7 84.9996 172.3 81.6996 173.8 72.8996L174.5 68.4996L181 67.8996C184.6 67.5996 188.3 67.2996 189.2 67.1996C190.1 67.0996 191.6 67.7996 192.6 68.6996ZM92.8 69.5996C94.3 70.6996 94.2 71.0996 91.6 73.7996L88.8 76.7996L91.4 79.0996C92.8 80.2996 94 81.6996 94 81.9996C94 82.9996 82.9 83.9996 80.2 83.2996C79 82.9996 78 82.1996 78 81.4996C78 80.6996 77.2 79.3996 76.3 78.3996C75.3 77.3996 74.5 75.6996 74.5 74.5996C74.5 72.9996 73.9 72.4996 72 72.4996C70.6 72.4996 68.9 71.7996 68.2 70.9996C67 69.6996 66.9 69.7996 67.5 71.4996C67.9 72.5996 68.4 75.1996 68.7 77.1996C69 79.4996 69.8 80.9996 70.6 80.9996C71.4 80.9996 72 81.8996 72 82.9996C72 84.7996 71.3 84.9996 66.4 84.9996C63.4 84.9996 60 84.4996 58.9 83.9996C57.8 83.3996 56.4 83.1996 55.8 83.5996C55.2 83.9996 51.6 84.3996 47.8 84.4996C41.6 84.5996 40.9 84.3996 41.3 82.8996C41.7 81.3996 41.5 81.2996 39.9 82.2996C37.2 83.9996 36.3 82.4996 35.6 74.6996L34.9 67.9996L63.1 68.1996C83.4 68.2996 91.6 68.6996 92.8 69.5996Z" fill="black"/>
<path d="M104.5 5.9C101 6.5 100.8 6.7 102.8 7.3C104 7.8 105 8.6 105 9.1C105 9.6 105.9 10 107 10C108.5 10 109 9.3 109 7.5C109 6.1 108.9 5.1 108.8 5.1C108.6 5.2 106.7 5.6 104.5 5.9Z" fill="black"/>
<path d="M45.3 49.4993C45.3 51.4993 45.5 51.7993 46.6 50.8993C47.4 50.2993 48 49.0993 48 48.3993C48 47.5993 47.4 46.9993 46.6 46.9993C45.8 46.9993 45.3 47.9993 45.3 49.4993Z" fill="black"/>
<path d="M14.6999 53.3C14.3999 54.2 14.4999 55 15.0999 55C15.6999 55 15.8999 55.9 15.4999 57C15.0999 58.1 15.2999 59 15.8999 59C17.0999 59 17.1999 56.4 16.0999 53.6C15.3999 51.8 15.2999 51.8 14.6999 53.3Z" fill="black"/>
<path d="M44.1999 56.1991C43.3999 56.9991 43.2999 57.6991 44.0999 58.6991C45.8999 60.7991 47.9999 60.1991 47.9999 57.4991C47.9999 54.7991 46.1999 54.1991 44.1999 56.1991Z" fill="black"/>
</g>
<defs>
<clipPath id="clip0_363_213">
<rect width="225" height="88" fill="white"/>
</clipPath>
</defs>
</svg>
