<svg width="865" height="1547" viewBox="0 0 865 1547" fill="none" xmlns="http://www.w3.org/2000/svg">
<circle cx="504.085" cy="275.227" r="210.022" stroke="#EF8701" stroke-width="12"/>
<path d="M294.533 256.313C320.914 259.465 376.164 261.39 386.119 243.869C396.074 226.349 394.58 209.691 392.589 203.552C391.926 188.785 396.77 158.755 421.459 156.764C446.147 154.773 456.633 98.859 458.79 71.1511" stroke="#EF8701" stroke-width="12"/>
<path d="M511.053 265.272C532.954 266.467 541.747 234.246 543.407 217.986C543.407 177.37 523.995 194.558 523.995 209.027C523.995 213.507 522.004 219.48 511.053 223.462C491.894 230.429 491.143 244.367 491.143 249.345C491.143 254.322 489.152 264.078 511.053 265.272Z" stroke="#EF8701" stroke-width="12"/>
<path d="M358.743 425.547C370.523 420.238 405.232 411.212 449.83 417.583C494.428 423.954 528.142 405.637 539.425 395.682C549.214 382.409 570.985 361.835 584.222 361.835C603.634 361.835 616.078 343.419 654.902 421.565" stroke="#EF8701" stroke-width="12"/>
<path fill-rule="evenodd" clip-rule="evenodd" d="M559.063 15.7366C524.17 7.36053 487.86 6.78806 452.721 14.06C417.582 21.332 384.481 36.2692 355.779 57.806L355.76 57.7806C353.12 60.1362 349.797 63.3458 345.862 67.1461L345.86 67.1476C343.909 69.0321 341.807 71.0619 339.564 73.2048C332.373 80.0742 323.895 87.9376 314.792 95.324C305.702 102.7 295.891 109.681 286.016 114.735C276.184 119.767 265.979 123.05 256.188 122.634C247.346 122.295 233.032 122.737 219.031 125.162C204.812 127.626 191.832 131.99 184.795 138.862C184.639 139.014 184.472 139.152 184.294 139.277C174.971 145.803 166.658 156.714 158.206 169.385C155.752 173.063 153.284 176.896 150.784 180.778L150.783 180.779C144.84 190.006 138.719 199.509 132.204 207.86C122.918 219.764 112.286 230.091 99.1165 234.594C86.438 238.93 72.086 237.653 55.3946 228.599C43.2291 241.551 25.6178 241.629 13.7992 233.84C7.48717 229.68 2.70151 223.203 1.3381 215.169C-0.0302291 207.107 2.13059 197.99 8.73923 188.684C8.77478 188.634 8.81148 188.585 8.8493 188.536C21.0031 172.991 40.1298 172.374 52.7018 180.66C59.0138 184.82 63.7994 191.297 65.1628 199.331C66.3478 206.312 64.8861 214.085 60.1813 222.087C74.9033 229.833 86.6385 230.407 96.5279 227.025C107.465 223.284 116.908 214.461 125.896 202.94C132.18 194.886 137.975 185.886 143.828 176.798C146.376 172.84 148.936 168.866 151.551 164.946C159.935 152.377 168.881 140.396 179.443 132.908C188.373 124.364 203.357 119.759 217.665 117.28C232.314 114.742 247.202 114.283 256.503 114.641L256.52 114.641C264.371 114.976 273.146 112.335 282.372 107.613C291.558 102.911 300.886 96.3054 309.751 89.1118C318.604 81.9285 326.9 74.2391 334.038 67.42C336.152 65.401 338.18 63.4424 340.096 61.5916L340.097 61.5903C344.576 57.2654 348.445 53.5285 351.376 50.9811C351.704 50.6954 352.066 50.4729 352.447 50.3125C381.749 28.6572 415.406 13.6127 451.099 6.22603C487.391 -1.2845 524.893 -0.693251 560.93 7.9576C596.967 16.6085 630.651 33.1057 659.578 56.2725C688.506 79.4392 711.964 108.704 728.28 141.981C744.596 175.257 753.366 211.723 753.967 248.779C754.567 285.835 746.983 322.567 731.754 356.354C716.525 390.141 694.027 420.151 665.865 444.243C637.769 468.279 604.726 485.833 569.083 495.661L569.092 495.707C495.628 509.755 386.873 542.21 299.386 593.803C211.656 645.539 146.848 715.53 157.688 804.377C165.7 870.052 213.678 919.133 279.786 954.726C345.847 990.293 429.29 1011.96 506.568 1023.04L505.432 1030.96C427.647 1019.81 343.189 997.947 275.994 961.769C208.846 925.617 158.213 874.742 149.747 805.346C138.287 711.42 207.041 638.973 295.323 586.912C383.5 534.912 492.693 502.264 566.717 488.017L566.716 488.014C601.318 478.512 633.397 461.491 660.665 438.164C687.932 414.837 709.715 385.781 724.46 353.067C739.206 320.353 746.549 284.788 745.968 248.909C745.387 213.03 736.894 177.722 721.097 145.502C705.299 113.283 682.586 84.9477 654.577 62.5168C626.569 40.0859 593.955 24.1127 559.063 15.7366ZM57.2756 200.669C58.2167 206.214 56.889 213.195 51.2929 221.108C41.9454 232.992 27.6107 233.362 18.2017 227.16C13.5137 224.07 10.1744 219.422 9.22531 213.831C8.28419 208.286 9.61193 201.305 15.2081 193.392C24.5556 181.508 38.8902 181.138 48.2992 187.34C52.9872 190.43 56.3266 195.078 57.2756 200.669ZM30.5902 192.59C28.7067 191.435 26.244 192.026 25.0896 193.91C23.9352 195.793 24.5262 198.256 26.4097 199.41L41.9097 208.91C43.7932 210.065 46.256 209.474 47.4104 207.59C48.5648 205.707 47.9737 203.244 46.0902 202.09L30.5902 192.59ZM22.5902 205.59C20.7067 204.435 18.244 205.026 17.0896 206.91C15.9352 208.793 16.5262 211.256 18.4097 212.41L33.9097 221.91C35.7932 223.065 38.256 222.474 39.4104 220.59C40.5648 218.707 39.9737 216.244 38.0902 215.09L22.5902 205.59Z" fill="#EF8701"/>
<circle cx="459.714" cy="242.063" r="201.62" stroke="white" stroke-width="12" stroke-linecap="round" stroke-linejoin="round"/>
<path d="M258.313 223.885C283.667 226.915 336.768 228.764 346.336 211.925C355.904 195.086 354.469 179.076 352.555 173.176C351.917 158.984 356.574 130.121 380.301 128.207C404.029 126.294 414.107 72.5552 416.18 45.9251" stroke="white" stroke-width="12" stroke-linecap="round" stroke-linejoin="round"/>
<path d="M466.411 232.496C487.46 233.644 495.911 202.676 497.506 187.049C497.506 148.013 478.849 164.532 478.849 178.438C478.849 182.744 476.935 188.484 466.411 192.311C447.998 199.007 447.275 212.404 447.275 217.187C447.276 221.971 445.362 231.348 466.411 232.496Z" stroke="white" stroke-width="12" stroke-linecap="round" stroke-linejoin="round"/>
<path d="M320.025 386.536C331.347 381.433 364.706 372.759 407.569 378.882C450.433 385.005 482.836 367.401 493.679 357.833C503.087 345.076 524.012 325.303 536.734 325.303C555.391 325.303 567.35 307.602 604.665 382.709" stroke="white" stroke-width="12" stroke-linecap="round" stroke-linejoin="round"/>
<path fill-rule="evenodd" clip-rule="evenodd" d="M514.35 14.466C480.859 6.42639 446.007 5.87692 412.28 12.8568C378.552 19.8366 346.781 34.1737 319.232 54.8453L318.968 54.4927C316.582 56.061 313.499 58.2949 309.778 60.9905C308.062 62.2334 306.211 63.5745 304.231 64.9938C297.911 69.5221 290.454 74.7104 282.446 79.5847C266.634 89.2088 247.911 98.0984 231.151 97.5645C223.359 97.3402 210.756 97.6317 198.425 99.2342C192.261 100.035 186.243 101.154 180.965 102.67C177.105 103.778 173.771 105.063 171.104 106.51C172.372 109.484 173.422 112.744 173.728 116.275C174.163 121.285 173.082 126.551 169.634 132.139C162.945 142.978 147.295 155.075 116.242 170.101C114.358 171.013 112.089 170.317 111.039 168.505L103.682 155.809L69.4 174.283C67.4553 175.331 65.0292 174.604 63.9812 172.659C62.9332 170.714 63.6602 168.288 65.6049 167.24L99.6689 148.884L96.5862 143.564C96.5735 143.542 96.561 143.52 96.5487 143.497L93.4352 137.881L59.3813 156.03C57.4318 157.069 55.0091 156.331 53.97 154.381C52.931 152.432 53.6691 150.009 55.6187 148.97L89.5562 130.883L87.525 127.218C87.4922 127.159 87.4609 127.099 87.4311 127.038L81.9076 115.759C80.9647 113.834 81.7075 111.507 83.5916 110.485C109.991 96.1533 128.619 90.0357 142.047 89.565C148.842 89.3267 154.434 90.529 159.02 92.957C162.299 94.6931 164.93 96.9845 167.063 99.6022C170.504 97.7048 174.524 96.1962 178.757 94.9805C184.541 93.3196 190.98 92.1346 197.394 91.301C210.217 89.6345 223.252 89.3335 231.387 89.568L231.4 89.5684C245.619 90.0236 262.574 82.3148 278.287 72.751C286.042 68.0307 293.31 62.9769 299.571 58.4909C301.416 57.1689 303.19 55.8836 304.87 54.6668L304.871 54.6658L304.872 54.6653C308.811 51.8117 312.229 49.3355 314.815 47.6494C315.279 47.347 315.782 47.1531 316.295 47.0616C344.35 26.4273 376.536 12.0842 410.658 5.02275C445.538 -2.19564 481.582 -1.62739 516.217 6.68698C550.852 15.0013 583.226 30.8569 611.028 53.1225C638.83 75.3882 661.376 103.515 677.057 135.497C692.738 167.479 701.168 202.527 701.745 238.141C702.322 273.756 695.033 309.059 680.396 341.532C665.759 374.005 644.137 402.848 617.07 426.002C590.067 449.103 558.309 465.975 524.053 475.42L524.09 475.618C453.496 489.117 348.989 520.305 264.926 569.879C180.619 619.596 118.408 686.817 128.814 772.109C136.101 831.836 177.774 876.168 236.128 908.708C294.473 941.245 368.877 961.614 440.161 973.555L438.839 981.445C367.133 969.433 291.714 948.866 232.231 915.696C172.757 882.53 128.597 836.385 120.873 773.078C109.847 682.707 176.003 613.03 260.862 562.988C345.625 513.002 450.582 481.619 521.737 467.923L521.695 467.771C554.908 458.651 585.698 442.313 611.87 419.923C638.042 397.534 658.95 369.644 673.103 338.245C687.256 306.845 694.304 272.708 693.746 238.271C693.188 203.834 685.037 169.944 669.874 139.019C654.711 108.094 632.911 80.8967 606.027 59.3669C579.144 37.8371 547.84 22.5056 514.35 14.466ZM155.277 100.027C158.33 101.644 160.648 104.003 162.499 106.946C164.219 110.456 165.472 113.672 165.758 116.967C166.037 120.186 165.412 123.746 162.826 127.938C157.643 136.337 144.701 147.102 116.091 161.268L103.527 139.586L98.5246 130.561L94.5712 123.429L90.7881 115.704C115.012 102.885 131.303 97.9465 142.328 97.56C148.012 97.3608 152.16 98.3773 155.277 100.027Z" fill="white"/>
<path fill-rule="evenodd" clip-rule="evenodd" d="M496.483 1022L505.872 1023.05C575.344 1030.89 628.88 1072.2 668.502 1129.75C669.658 1129.32 670.881 1129.09 672.146 1129.09C674.177 1129.09 676.098 1129.68 677.808 1130.74C689.329 1115.48 705.017 1100.77 728.348 1088.04C757.405 1072.18 798.153 1059.46 857.178 1052.39L867.582 1051.14L860.656 1059C822.272 1102.58 774.024 1133.63 725.293 1144.61C725.691 1144.72 726.088 1144.84 726.484 1144.95C735.932 1147.71 744.919 1150.56 752.225 1153.26C755.876 1154.61 759.156 1155.94 761.885 1157.23C764.557 1158.49 766.928 1159.81 768.606 1161.18C771.314 1163.39 773.304 1165.49 774.35 1167.55C774.896 1168.63 775.292 1169.91 775.206 1171.31C775.115 1172.78 774.506 1174.04 773.615 1175C772.043 1176.7 769.795 1177.26 768.322 1177.5C766.66 1177.76 764.902 1177.76 763.42 1177.65L763.253 1177.64L763.087 1177.61L717.374 1170.2L727.805 1541.89L727.921 1546H723.807H672.146H668.008L668.009 1546L487.25 1546H483.136L468 1546L444.781 1546H440.643L440.784 1541.86L448.719 1307.93C447.914 1312.02 446.993 1316.15 445.96 1320.29C438.735 1349.28 425.88 1379.36 408.517 1398.5L402.73 1404.88L401.59 1396.34C399.207 1378.5 399.223 1349.13 404.897 1320C409.832 1294.66 419.172 1268.86 435.533 1251.12C435.365 1250.34 435.257 1249.53 435.213 1248.7C396.464 1239.1 372.98 1225.65 356.455 1210.72C347.566 1202.69 340.791 1194.32 334.796 1186.11C332.279 1182.67 329.963 1179.35 327.7 1176.1L327.699 1176.1L327.699 1176.1C324.449 1171.44 321.307 1166.94 317.835 1162.45L312.055 1154.97L321.448 1156.03C373.365 1161.88 413.325 1192.7 442.85 1235.5L443.928 1235.75C444.209 1235.72 444.494 1235.7 444.781 1235.7C445.935 1235.7 447.042 1235.96 448.067 1236.44C456.71 1224.97 468.489 1213.91 486.015 1204.35C507.739 1192.5 538.129 1183.04 582.034 1177.78L592.442 1176.54L585.51 1184.4C557.903 1215.72 523.391 1238.4 488.249 1247.32C494.231 1249.1 499.875 1250.92 504.591 1252.67C507.318 1253.68 509.782 1254.68 511.845 1255.65C513.85 1256.59 515.702 1257.61 517.047 1258.71C519.09 1260.38 520.704 1262.04 521.58 1263.77C522.04 1264.68 522.404 1265.81 522.325 1267.09C522.242 1268.44 521.68 1269.6 520.87 1270.47C519.457 1271.99 517.493 1272.45 516.347 1272.64C515.011 1272.85 513.622 1272.85 512.468 1272.76L512.3 1272.75L512.135 1272.72L479.425 1267.42L487.025 1538H668.28L679.585 1204.42C678.068 1216.73 675.644 1229.71 672.388 1242.78C662.683 1281.75 645.444 1322.06 622.275 1347.62L616.487 1354L615.347 1345.46C612.157 1321.56 612.173 1282.12 619.788 1242.99C626.357 1209.24 638.703 1175.08 660.108 1151.47C659.542 1149.62 659.231 1147.61 659.231 1145.51C659.231 1145.39 659.232 1145.28 659.234 1145.16C607.431 1132.27 576.111 1114.27 554.108 1094.37C542.232 1083.63 533.171 1072.43 525.124 1061.41C521.778 1056.82 518.67 1052.37 515.622 1047.99L515.62 1047.99L515.62 1047.99C511.218 1041.68 506.944 1035.54 502.257 1029.47L496.483 1022ZM479.022 1538L471.385 1266.12L458.214 1263.99L448.919 1538L468 1538L479.022 1538ZM684.777 1148.95C684.308 1151.75 683.281 1154.28 681.851 1156.34L685.701 1156.97L713.88 1161.53L764.191 1169.69C764.833 1169.73 765.484 1169.73 766.085 1169.7C765.486 1169.06 764.659 1168.29 763.543 1167.37C762.638 1166.63 760.98 1165.65 758.474 1164.47C756.026 1163.31 752.978 1162.07 749.449 1160.76C742.394 1158.15 733.608 1155.37 724.241 1152.63C718.565 1150.98 712.695 1149.34 706.896 1147.78C699.496 1148.67 692.112 1149.07 684.777 1148.95ZM847.361 1061.71C806.623 1104.86 756.379 1133.35 707.446 1139.65C699.717 1137.59 692.159 1135.66 685.388 1134C696.168 1120.13 710.737 1106.77 732.181 1095.06C758.318 1080.79 794.813 1068.91 847.361 1061.71ZM662.311 1134.86C661.796 1135.63 661.336 1136.46 660.938 1137.34C610.284 1124.71 580.282 1107.25 559.473 1088.43C548.16 1078.2 539.463 1067.48 531.586 1056.69C528.478 1052.44 525.437 1048.08 522.396 1043.72C519.719 1039.88 517.043 1036.05 514.324 1032.28C576.566 1042.32 625.369 1080.96 662.311 1134.86ZM664.418 1158.67C645.452 1180.6 633.939 1212.16 627.641 1244.52C621.109 1278.08 620.314 1311.85 622.286 1335.18C641.306 1310.89 655.956 1275.65 664.625 1240.85C669.386 1221.74 672.305 1202.9 673.171 1186.29C673.637 1177.34 673.502 1169.13 672.769 1161.91C672.562 1161.93 672.355 1161.93 672.146 1161.93C669.248 1161.93 666.573 1160.72 664.418 1158.67ZM452.581 1254.97L455.009 1255.37L475.93 1258.75L511.426 1264.5C510.778 1264.07 509.799 1263.53 508.436 1262.88C506.655 1262.05 504.422 1261.13 501.817 1260.17C496.612 1258.25 490.114 1256.19 483.171 1254.16C479.026 1252.95 474.743 1251.76 470.507 1250.62C464.969 1251.28 459.441 1251.56 453.948 1251.47C453.641 1252.74 453.176 1253.92 452.581 1254.97ZM471.056 1242.49C506.216 1237.91 542.369 1217.79 572.065 1187.16C534.712 1192.52 508.621 1201.13 489.846 1211.37C474.708 1219.63 464.238 1228.99 456.417 1238.73C460.98 1239.86 465.965 1241.13 471.056 1242.49ZM444.207 1260.05C442.611 1259.93 441.119 1259.31 439.827 1258.32C425.92 1274.38 417.414 1297.58 412.75 1321.53C408.164 1345.07 407.405 1368.75 408.583 1385.81C421.79 1368.05 432.031 1343.1 438.198 1318.36C441.719 1304.23 443.875 1290.33 444.513 1278.08C444.86 1271.43 444.754 1265.35 444.207 1260.05ZM436.822 1240.85C399.275 1231.51 377.133 1218.62 361.818 1204.78C353.491 1197.26 347.082 1189.37 341.255 1181.39C338.979 1178.28 336.73 1175.06 334.474 1171.83L334.474 1171.83C332.959 1169.66 331.441 1167.49 329.91 1165.34C374.7 1173.35 409.973 1201.6 436.822 1240.85ZM515.507 1264.64C515.511 1264.64 515.512 1264.64 515.51 1264.64L515.507 1264.64ZM688.905 1165.59L676.284 1538H719.693L709.334 1168.9L688.905 1165.59ZM767.994 1169.36C768 1169.35 768.004 1169.35 768.004 1169.35C768.004 1169.35 768.001 1169.35 767.994 1169.36ZM767.262 1171.28C767.262 1171.28 767.261 1171.27 767.259 1171.27C767.261 1171.27 767.262 1171.28 767.262 1171.28Z" fill="#EF8701"/>
<path fill-rule="evenodd" clip-rule="evenodd" d="M429.528 971.997L438.916 973.056C503.639 980.358 553.493 1018.86 590.368 1072.45C591.361 1072.12 592.405 1071.94 593.482 1071.94C595.276 1071.94 596.977 1072.44 598.505 1073.33C609.24 1059.1 623.86 1045.39 645.602 1033.52C672.66 1018.74 710.585 1006.91 765.487 1000.33L775.89 999.084L768.966 1006.95C733.527 1047.19 689.034 1075.97 644.013 1086.4L644.083 1086.42C652.871 1088.99 661.234 1091.64 668.035 1094.15C671.435 1095.41 674.492 1096.65 677.04 1097.86C679.53 1099.03 681.759 1100.27 683.347 1101.56C685.873 1103.63 687.761 1105.61 688.76 1107.58C689.282 1108.61 689.669 1109.85 689.585 1111.22C689.496 1112.66 688.9 1113.89 688.032 1114.83C686.503 1116.47 684.333 1117.01 682.949 1117.23C681.375 1117.48 679.718 1117.48 678.325 1117.38L678.157 1117.36L677.992 1117.34L635.825 1110.5L645.514 1455.81L645.629 1459.92H641.515H600V1460L421.799 1460L421.799 1460H417.686H382.024H377.886L378.027 1455.87L385.291 1241.48C384.713 1244.21 384.079 1246.96 383.393 1249.72C376.67 1276.71 364.704 1304.77 348.516 1322.63L342.728 1329.01L341.588 1320.47C339.368 1303.83 339.384 1276.47 344.665 1249.32C349.271 1225.66 358.006 1201.5 373.357 1184.93C373.257 1184.4 373.186 1183.86 373.146 1183.3C337.031 1174.36 315.128 1161.81 299.711 1147.87C291.427 1140.38 285.115 1132.57 279.534 1124.92C277.186 1121.71 275.03 1118.61 272.925 1115.59C269.908 1111.26 266.996 1107.08 263.769 1102.9L257.996 1095.42L267.384 1096.48C315.725 1101.94 352.923 1130.65 380.399 1170.49L382.29 1170.92C383.17 1170.96 384.018 1171.15 384.817 1171.49C392.878 1160.76 403.867 1150.42 420.226 1141.49C440.466 1130.44 468.76 1121.63 509.605 1116.73L520.007 1115.49L513.083 1123.35C487.641 1152.24 455.882 1173.27 423.473 1181.75C428.684 1183.32 433.591 1184.92 437.733 1186.45C440.272 1187.39 442.572 1188.32 444.5 1189.23C446.37 1190.11 448.117 1191.07 449.395 1192.12C451.303 1193.68 452.84 1195.26 453.681 1196.92C454.124 1197.79 454.48 1198.9 454.403 1200.15C454.321 1201.47 453.771 1202.61 452.977 1203.46C451.597 1204.95 449.69 1205.39 448.609 1205.57C447.339 1205.77 446.024 1205.77 444.935 1205.68L444.768 1205.67L444.602 1205.64L414.525 1200.77L421.575 1452L589.613 1452L599.927 1147.63C598.516 1157.4 596.519 1167.54 593.98 1177.73C584.951 1213.99 568.908 1251.52 547.322 1275.34L541.533 1281.73L540.393 1273.18C537.424 1250.93 537.439 1214.22 544.525 1177.8C550.648 1146.34 562.172 1114.45 582.196 1092.43C581.729 1090.8 581.474 1089.04 581.474 1087.21L581.474 1087.17C533.235 1075.18 504.053 1058.41 483.545 1039.86C472.484 1029.85 464.046 1019.42 456.558 1009.17C453.437 1004.89 450.544 1000.74 447.71 996.672C443.623 990.807 439.657 985.117 435.302 979.475L429.528 971.997ZM413.572 1452L406.486 1199.47L394.783 1197.57L386.162 1452H403V1452H413.572ZM605.177 1090.69C604.742 1093.06 603.872 1095.22 602.679 1097.03L606.131 1097.59L632.33 1101.83L679.096 1109.41C679.459 1109.44 679.825 1109.45 680.18 1109.44C679.685 1108.96 679.062 1108.39 678.283 1107.76C677.469 1107.09 675.952 1106.19 673.628 1105.09C671.362 1104.02 668.536 1102.87 665.259 1101.66C658.708 1099.23 650.546 1096.64 641.84 1094.1C636.582 1092.57 631.145 1091.05 625.772 1089.61C618.882 1090.43 612.007 1090.8 605.177 1090.69ZM755.64 1009.67C717.908 1049.42 671.502 1075.64 626.322 1081.47C619.312 1079.6 612.455 1077.86 606.282 1076.34C616.257 1063.59 629.71 1051.31 649.436 1040.54C673.568 1027.36 707.23 1016.37 755.64 1009.67ZM584.172 1077.56C583.809 1078.13 583.478 1078.73 583.181 1079.35C536.088 1067.61 508.224 1051.39 488.911 1033.92C478.412 1024.43 470.338 1014.48 463.02 1004.45C460.14 1000.5 457.315 996.454 454.489 992.403L454.489 992.403L454.488 992.403L454.488 992.403L454.487 992.401C452.125 989.016 449.763 985.63 447.368 982.303C504.859 991.796 549.978 1027.63 584.172 1077.56ZM586.502 1099.64C568.921 1119.98 558.23 1149.26 552.378 1179.33C546.377 1210.17 545.589 1241.21 547.344 1262.85C564.78 1240.33 578.229 1207.88 586.217 1175.8C590.64 1158.04 593.351 1140.54 594.155 1125.12C594.588 1116.8 594.462 1109.17 593.78 1102.48C593.681 1102.48 593.582 1102.48 593.482 1102.48C590.879 1102.48 588.47 1101.43 586.502 1099.64ZM389.417 1188.6L391.579 1188.95L411.031 1192.1L442.573 1197.21C442.149 1196.98 441.656 1196.73 441.088 1196.47C439.442 1195.69 437.373 1194.85 434.956 1193.95C430.125 1192.16 424.091 1190.25 417.638 1188.37C413.804 1187.25 409.842 1186.14 405.923 1185.09C400.758 1185.69 395.601 1185.96 390.478 1185.87C390.22 1186.84 389.861 1187.76 389.417 1188.6ZM406.472 1176.95C438.844 1172.71 472.143 1154.26 499.6 1126.13C465.326 1131.13 441.344 1139.08 424.06 1148.51C410.195 1156.08 400.555 1164.66 393.334 1173.57C397.446 1174.59 401.913 1175.74 406.472 1176.95ZM381.205 1193.55C379.919 1193.4 378.712 1192.9 377.642 1192.13C364.754 1207.03 356.853 1228.57 352.518 1250.85C348.327 1272.39 347.578 1294.05 348.598 1309.85C360.626 1293.4 369.972 1270.51 375.63 1247.78C378.901 1234.65 380.902 1221.73 381.494 1210.35C381.818 1204.14 381.717 1198.48 381.205 1193.55ZM373.978 1175.27C339.537 1166.59 319.178 1154.69 305.077 1141.93C297.355 1134.95 291.408 1127.62 285.996 1120.21C283.888 1117.32 281.799 1114.33 279.703 1111.32C278.421 1109.48 277.137 1107.64 275.843 1105.82C316.845 1113.38 349.23 1139.28 373.978 1175.27ZM609.335 1106.21L597.62 1451.92H637.401L627.785 1109.2L609.335 1106.21ZM682.468 1109.14C682.475 1109.13 682.479 1109.13 682.479 1109.13C682.479 1109.13 682.476 1109.13 682.468 1109.14ZM681.655 1111.27C681.655 1111.27 681.654 1111.26 681.652 1111.26C681.654 1111.26 681.655 1111.27 681.655 1111.27Z" fill="white"/>
</svg>
