<svg width="100" height="182" viewBox="0 0 100 182" fill="none" xmlns="http://www.w3.org/2000/svg">
<path d="M1.02672 164.643C0.682218 160.509 3.75403 158.04 5.333 157.322V154.238C5.27379 153.806 5.27709 153.396 5.333 153.016V154.238C6.03385 159.358 15.4927 167.657 50.1183 167.657C84.7439 167.657 94.2028 159.358 94.9036 154.238V153.016C94.9595 153.396 94.9628 153.806 94.9036 154.238V157.322C96.4826 158.04 99.5544 160.509 99.2099 164.643C98.7793 169.81 90.5974 181.437 54.8552 181.006H50.1183H45.3814C9.63927 181.437 1.45735 169.81 1.02672 164.643Z" fill="#58585A"/>
<path d="M50.1183 167.657C12.5675 167.657 4.61525 157.896 5.33297 153.016C5.61619 150.325 8.13458 146.391 14.7487 143.261C15.2838 147.795 15.6368 151.986 15.2374 152.585C15.2374 155.169 26.0031 152.585 24.7112 149.571C23.5437 148.793 22.3213 144.981 21.3232 140.861C25.8964 139.589 31.6465 138.669 38.813 138.362C36.626 143.26 34.1588 145.538 32.4625 146.126C32.4625 159.473 69.9272 159.042 69.9272 146.126C68.2444 145.543 65.8028 143.296 63.6288 138.478C69.6943 138.86 74.676 139.698 78.7386 140.813C77.9868 143.262 77.1742 145.167 76.3866 145.693C75.0947 148.707 85.8604 151.291 85.8604 148.707C85.587 148.297 85.6662 146.202 85.9152 143.467C92.2109 146.562 94.6266 150.384 94.9036 153.016C95.6213 157.896 87.6691 167.657 50.1183 167.657Z" fill="#969595"/>
<path d="M9.63928 132.776C7.48614 128.901 19.9744 125.024 21.2662 128.9C21.6992 129.983 20.9012 131.108 19.5437 132.035C19.9185 134.329 20.5543 137.686 21.3233 140.86C22.3213 144.981 23.5438 148.792 24.7113 149.571C26.0032 152.585 15.2374 155.169 15.2374 152.585C15.6368 151.986 15.2838 147.795 14.7487 143.26C14.3607 139.972 13.877 136.504 13.5149 134.094C11.7625 134.222 10.2436 133.864 9.63928 132.776Z" fill="#9A8769"/>
<path d="M79.8315 125.022C81.1234 121.147 93.6116 125.023 91.4585 128.898C90.8542 129.986 89.3353 130.344 87.5828 130.216C87.025 130.175 86.4435 130.085 85.8603 129.954C84.9776 129.755 84.0909 129.462 83.2766 129.101C82.6476 128.822 82.0617 128.503 81.5541 128.157C80.1965 127.23 79.3986 126.105 79.8315 125.022Z" fill="#79694F" stroke="black" stroke-linecap="round" stroke-linejoin="round"/>
<path d="M76.3867 145.692C75.0948 148.707 85.8605 151.29 85.8605 148.707C85.587 148.297 85.6663 146.202 85.9153 143.467C86.2233 140.082 86.7912 135.715 87.2719 132.343C87.3916 131.68 86.6365 131.145 85.6128 130.786L85.8605 129.954C84.9777 129.755 84.0911 129.461 83.2767 129.101L82.9182 130.288C82.082 130.256 81.3844 130.359 81.1229 130.62C80.5399 133.762 79.6877 137.721 78.7387 140.812C77.9869 143.262 77.1743 145.167 76.3867 145.692Z" fill="#9A8769" stroke="black" stroke-linecap="round" stroke-linejoin="round"/>
<path d="M69.9273 146.126C69.9273 159.042 32.4626 159.473 32.4626 146.126C34.1589 145.538 36.6261 143.26 38.8131 138.363C41.4379 132.484 43.6323 123.261 43.6323 108.227V107.634C48.4483 108.629 54.0348 108.737 58.7043 107.821V108.227C58.7043 123.36 60.9815 132.611 63.629 138.479C65.8029 143.297 68.2445 145.543 69.9273 146.126Z" fill="#363636"/>
<path d="M58.2736 142.246C54.4841 138.456 43.2017 143.969 42.3404 145.26C41.4791 146.122 43.0294 149.997 45.7854 148.275C48.5414 146.552 54.3979 147.557 56.9817 148.275C58.9913 147.844 62.0631 146.035 58.2736 142.246Z" fill="#676767"/>
<path d="M40.6446 93.3497C35.9146 94.565 32.4626 96.5047 32.4626 99.6156C32.4626 103.575 37.403 106.347 43.6323 107.634C48.4483 108.629 54.0348 108.737 58.7043 107.821C64.4156 106.701 68.7552 104.049 68.6354 99.6156C68.6354 96.5047 64.3222 94.565 59.5922 93.3497C59.5922 87.0172 58.8636 83.8118 55.8521 82.4221C54.9457 83.237 53.2508 84.1128 50.549 84.1128C47.7053 84.1128 45.5465 83.143 44.679 82.2949C41.4203 83.611 40.6446 86.8158 40.6446 93.3497Z" fill="#676767"/>
<path d="M60.0227 97.8911C54.8551 101.525 44.6788 102.197 40.6444 96.5992C40.2472 96.025 39.8707 95.049 41.5424 95.738C43.6321 96.5992 49.257 102.628 59.592 96.5992C60.7404 96.1686 62.4342 95.8241 60.0227 97.8911Z" fill="#888888"/>
<path d="M44.6787 82.2945C44.3902 82.0124 44.1969 81.7438 44.0894 81.5289C43.6968 79.0165 42.858 76.5544 41.7456 74.199C41.6674 74.0621 41.5995 73.9212 41.5424 73.7762C37.7331 65.9809 31.0076 59.4043 27.7255 56.1218C22.558 50.9536 22.6486 34.5897 27.7255 27.6996C32.1678 21.6708 35.4768 20.8957 38.9219 19.5177C41.075 18.8 45.4674 16.1588 45.8119 11.3358C46.2425 5.30698 45.8119 1.43063 50.1182 1C54.4245 1.43063 54.4245 5.30628 54.8551 11.3351C55.1996 16.1581 59.592 18.7993 61.7451 19.517C65.1902 20.895 68.4992 21.6702 72.9415 27.6989C78.0184 34.589 78.109 50.9529 72.9415 56.1211C69.3397 59.068 62.7502 65.8491 59.0417 73.7762C59.0055 73.8628 58.9661 73.9478 58.9236 74.0313C57.8135 76.452 56.9763 78.9762 56.5776 81.5282C56.454 81.7754 56.2169 82.0936 55.8519 82.4217C54.9455 83.2366 53.2506 84.1124 50.5488 84.1124C47.7051 84.1124 45.5463 83.1427 44.6787 82.2945Z" fill="#D9D9D9"/>
<path d="M61.0995 30.9121C48.518 22.8238 39.4245 26.0317 34.4005 30.9121C29.922 37.8016 48.8984 38.9506 58.9463 38.6638C63.6833 38.6638 73.1571 38.6636 61.0995 30.9121Z" fill="#E7E7E7"/>
<path d="M36.9844 55.8892C36.9844 51.1523 67.3987 46.2731 64.114 58.473C61.0995 69.6693 36.9844 58.473 36.9844 55.8892Z" fill="#E7E7E7"/>
<path d="M50.1183 1C45.812 1.43063 46.2426 5.30698 45.812 11.3358C48.674 13.3451 55.2591 17.5361 58.7042 18.2251C57.5341 17.3639 55.1262 14.7801 54.8552 11.3351C54.4246 5.30628 54.4246 1.43063 50.1183 1Z" fill="#E7E7E7"/>
<path d="M5.333 153.016V157.322C3.75403 158.04 0.682218 160.509 1.02672 164.643C1.45735 169.81 9.63927 181.437 45.3814 181.006H50.1183H54.8552C90.5974 181.437 98.7793 169.81 99.2099 164.643C99.5544 160.509 96.4826 158.04 94.9036 157.322V153.016M5.333 153.016C4.61528 157.896 12.5675 167.657 50.1183 167.657C87.6691 167.657 95.6213 157.896 94.9036 153.016M5.333 153.016C5.61622 150.325 8.13461 146.391 14.7487 143.261M13.5149 146.126C8.49092 151.006 8.77801 160.853 50.1183 161.198C91.4586 160.853 91.7457 151.006 86.7217 146.126M94.9036 153.016C94.6266 150.384 92.2109 146.562 85.9152 143.467M13.5149 134.094C11.7625 134.222 10.2436 133.864 9.63927 132.776C7.48613 128.901 19.9743 125.025 21.2662 128.901C21.6992 129.983 20.9012 131.108 19.5437 132.035M13.5149 134.094C15.5693 133.944 17.9447 133.127 19.5437 132.035M13.5149 134.094C13.8769 136.504 14.3607 139.972 14.7487 143.261M19.5437 132.035C19.9185 134.329 20.5543 137.686 21.3233 140.861M81.1228 130.62C81.3718 131.118 81.8363 131.58 82.4154 131.953C83.1589 132.433 84.0913 132.768 84.9992 132.849C85.8324 132.923 86.645 132.783 87.2719 132.343M81.1228 130.62C81.3844 130.359 82.0819 130.256 82.9182 130.288M81.1228 130.62C80.5398 133.763 79.6876 137.721 78.7387 140.812M87.2719 132.343C87.3916 131.68 86.6364 131.145 85.6128 130.786M87.2719 132.343C86.7911 135.715 86.2233 140.082 85.9152 143.467M83.2767 129.101C82.6477 128.822 82.0618 128.503 81.5542 128.156C80.1966 127.229 79.3987 126.104 79.8317 125.022C81.1235 121.146 93.6117 125.022 91.4586 128.898C90.8543 129.985 89.3354 130.343 87.583 130.216C87.0251 130.175 86.4436 130.085 85.8604 129.954M83.2767 129.101C84.091 129.462 84.9777 129.755 85.8604 129.954M83.2767 129.101L82.9182 130.288M85.8604 129.954L85.6128 130.786M82.9182 130.288L82.6721 130.786C82.4154 131.051 85.2069 132.086 85.306 131.818L85.6128 130.786M78.7387 140.812C77.9868 143.262 77.1742 145.167 76.3866 145.692C75.0947 148.707 85.8604 151.291 85.8604 148.707C85.587 148.297 85.6663 146.202 85.9152 143.467M78.7387 140.812C74.676 139.698 69.6943 138.86 63.6289 138.478M14.7487 143.261C15.2838 147.795 15.6368 151.986 15.2374 152.585C15.2374 155.169 26.0031 152.585 24.7113 149.571C23.5438 148.793 22.3213 144.981 21.3233 140.861M21.3233 140.861C25.8965 139.589 31.6466 138.668 38.813 138.362M38.813 138.362C36.626 143.26 34.1588 145.538 32.4626 146.126C32.4626 159.473 69.9272 159.042 69.9272 146.126C68.2444 145.543 65.8028 143.296 63.6289 138.478M38.813 138.362C41.4378 132.484 43.6322 123.26 43.6322 108.226C43.6322 108.226 43.6322 107.865 43.6322 107.633M63.6289 138.478C60.9814 132.611 58.7042 123.36 58.7042 108.226V107.821M44.6789 82.2945C44.3903 82.0124 44.197 81.7438 44.0895 81.5289C43.6734 78.8657 42.7559 76.2591 41.5425 73.7762M44.6789 82.2945C45.5464 83.1427 47.7052 84.1124 50.5489 84.1124C53.2507 84.1124 54.9456 83.2366 55.8521 82.4217M44.6789 82.2945C41.4202 83.6106 40.6445 86.8154 40.6445 93.3493C35.9145 94.5646 32.4626 96.5043 32.4626 99.6152C32.4626 103.575 37.4029 106.346 43.6322 107.633M55.8521 82.4217C56.217 82.0936 56.4541 81.7754 56.5777 81.5282C56.9905 78.8864 57.8731 76.2744 59.0419 73.7762M55.8521 82.4217C58.8635 83.8114 59.5921 87.0168 59.5921 93.3493C64.3221 94.5646 68.6353 96.5043 68.6353 99.6152C68.7551 104.049 64.4156 106.701 58.7042 107.821M41.5425 73.7762C37.7332 65.9809 31.0077 59.4043 27.7256 56.1218C22.5581 50.9536 22.6488 34.5897 27.7256 27.6996C32.1679 21.6708 35.477 20.8957 38.922 19.5177C41.0751 18.8 45.4675 16.1588 45.812 11.3358C46.2427 5.30698 45.812 1.43063 50.1183 1C54.4246 1.43063 54.4246 5.30628 54.8552 11.3351C55.1997 16.1581 59.5921 18.7993 61.7453 19.517C65.1903 20.895 68.4993 21.6701 72.9416 27.6989C78.0185 34.589 78.1091 50.9529 72.9416 56.1211C69.3398 59.068 62.7504 65.8491 59.0419 73.7762M41.5425 73.7762C43.4069 78.5131 56.8791 78.9437 59.0419 73.7762M41.5425 73.7762C43.9705 70.044 46.9317 59.9099 47.9652 47.5078V43.2016C47.9652 39.7565 44.5201 39.7565 44.5201 43.2016V47.5078C44.5201 48.082 44.7785 49.2303 45.812 49.2303M59.0419 73.7762C56.6139 70.044 54.7324 61.6324 53.6989 49.2303C52.6654 49.2303 52.407 48.082 52.407 47.5078V43.2016C52.407 39.7565 56.5777 39.7565 56.5777 43.2016V46.6466C56.5777 47.2208 56.3194 48.3691 55.2858 48.3691M6.62487 164.643C14.7487 179.28 80.4345 183.668 94.9036 164.643M9.63927 165.931L16.5293 164.643M13.9455 169.376L19.1131 166.361M18.2518 170.667L23.4194 167.657M22.5581 171.959L29.0175 168.084M28.1563 173.682L30.74 171.098M32.4626 174.543L36.3382 170.237M35.9076 174.974L41.9364 169.376M40.6445 174.974L43.6589 171.959M43.6589 174.974L45.3814 171.098M47.1039 175.835L48.3958 170.237M51.4102 174.974L51.8408 169.806M56.1471 174.974V169.806M87.1523 168.945L92.7505 165.5M91.8892 164.643L94.0424 161.198M94.9036 162.486L95.3343 159.471M16.5293 142.677C16.9599 143.107 19.5437 142.677 19.9743 141.385M78.7387 144.83C79.4938 145.927 81.6308 147.98 84.1379 147.414M81.5542 143.261C82.0261 143.593 83.2035 144.099 84.1379 143.467M84.1379 127.605C85.4298 128.403 88.4442 129.631 90.1667 128.156M14.3762 132.776C16.3858 132.203 20.1466 130.626 19.1131 128.901M16.0987 130.786C16.8164 130.436 18.1657 129.609 17.8212 129.101M40.6445 96.5994C44.6789 102.198 54.8552 101.525 60.0228 97.8913M45.3814 109.088C47.9652 109.949 53.9078 111.241 57.0084 109.518M45.3814 110.81C45.812 110.81 49.2571 112.102 53.1327 111.671M55.2858 111.671C55.86 111.528 57.0945 111.155 57.439 110.81M45.3814 112.963C45.812 113.107 47.1039 113.394 48.8264 113.394M53.5633 115.116C54.4246 115.26 56.3194 115.375 57.0084 114.686M46.2427 115.547C46.5297 115.834 47.3623 116.322 48.3958 115.978M45.3814 85.4031C47.1039 86.3969 51.4963 87.7883 55.2858 85.4031M42.7709 94.0157C45.3725 95.4511 51.7761 97.4607 56.5777 94.0157M43.6322 107.633C48.4482 108.629 54.0347 108.737 58.7042 107.821" stroke="black" stroke-linecap="round" stroke-linejoin="round"/>
</svg>
