<svg width="276" height="37" viewBox="0 0 276 37" fill="none" xmlns="http://www.w3.org/2000/svg">
<rect x="1" y="23" width="228" height="13" fill="#BA712E"/>
<path d="M275 2L231 24V36L275 14V2Z" fill="#884C14" stroke="black"/>
<path d="M45 1C31.6667 7.66667 3.7 21.2 2.5 22L230 23L272.5 1H45Z" fill="#DB9C62"/>
<path d="M1 23V35.5H3.5M1 23L45 1H274M1 23H9M230 35.5V23M230 35.5H222H3.5M230 35.5L230.5 35.25M230 23L232.5 21.75M230 23H223.5M274 1V13.5L270 15.5M274 1L267 4.5M270 15.5L274 6.5M270 15.5L265.5 17.75M265.5 17.75C265.5 17.15 270 6.33333 272 2M265.5 17.75L261 20M261 20C261 19.6 265 9.5 267 4.5M261 20L256.5 22.25M267 4.5L261.5 7.25M256.5 22.25L261.5 7.25M256.5 22.25L252 24.5M261.5 7.25L251.5 12.25M252 24.5L256 10.5M252 24.5L247.5 26.75M247.5 26.75L251.5 12.25M247.5 26.75L242.5 29.25M251.5 12.25L246 15M242.5 29.25L239.35 30.825L237.5 31.75M242.5 29.25L246 15M246 15L241.5 17.25M237.5 31.75L241.5 17.25M237.5 31.75L233.75 33.625M241.5 17.25L237 19.5M233.75 33.625L237 19.5M233.75 33.625L230.5 35.25M237 19.5L232.5 21.75M230.5 35.25L232.5 21.75M9 23L3 29M9 23H215.5M3.5 35.5L12 27M14.5 26H107M102.5 32.5H163M42 30H52M204 31.75H224.5M223.5 23L229.75 29.25M223.5 23H215.5M215.5 23L222 28M158 26.75H178M175 30H189" stroke="black" stroke-width="2" stroke-linecap="round" stroke-linejoin="round"/>
</svg>
