<svg width="227" height="470" viewBox="0 0 227 470" fill="none" xmlns="http://www.w3.org/2000/svg">
<path d="M113.5 469H1C1.14164 451.225 1.22309 428.725 1.26354 403.5H113.5V469Z" fill="url(#paint0_linear_363_462)"/>
<path d="M1 112.5C1.00001 28.0848 75.3333 3 113.5 1V403.5H1.26354C1.41348 309.995 0.999992 179.048 1 112.5Z" fill="#997763"/>
<path d="M97 104.5H17.5C17.5 53.3 66.5 18.5 97 18.5V104.5Z" fill="#795C4B"/>
<path d="M83 91H37C37 61.2326 65.3522 41 83 41V91Z" fill="#A7826C"/>
<path d="M97 121.5H17.5V387H97V121.5Z" fill="#584336"/>
<path d="M91.5 127H22.5V381H91.5V127Z" fill="#795C4B"/>
<path d="M43 146C43 152 37.6667 153.5 35 153.5V352.5C37.6667 352.833 43 355.3 43 362.5C43.3333 365.833 46.5 372 57 372C67.5 372 70.6667 365.833 71 362.5C71 355.3 76.3333 352.833 79 352.5V153.5C76.3333 153.5 71 152 71 146H67.5C67.5 143 65.4 137 57 137C48.6 137 46.5 143 46.5 146H43Z" fill="#A7826C"/>
<path d="M1.26354 403.5C1.41348 309.995 0.999992 179.048 1 112.5C1.00001 28.0848 75.3333 3 113.5 1V403.5M1.26354 403.5C1.22309 428.725 1.14164 451.225 1 469H113.5V403.5M1.26354 403.5H113.5M51.5479 249.5C52.8965 247.509 54.4603 245.746 56 244.5C57.5397 245.746 59.1761 247.509 60.622 249.5M51.5479 249.5C46.7651 256.562 44.6893 266.5 56 266.5C68.4808 266.5 65.7497 256.562 60.622 249.5M51.5479 249.5C43.8605 242.3 49 234.5 56 234.5C63.5 234.5 67.8812 242.3 60.622 249.5M8 463.5H104.5M11 458H36.5M5.5 452H43M43 456H80.5M69 459.5H100M84 448H104.5M49 442H64.5M11 445H22.5M8 431H22.5M95 431H109.5M79 436.5H87M41 433.5H49M8 407.5H75M87 407.5H109.5M103 410.5H109.5M5.5 410.5H8M5.5 400.5C7.5 400.5 71.3333 400.5 103 400.5M95 397.5H109.5M5.5 146V293M8 300.5V362.5M109.5 387V244.5M104.5 266.5V166.5M109 116.5V196.5M13.5 118L8 112.5L12 108.5M100 108.5L104.5 113L100 117.5M35 113H75M83 108.5H60.622M37 117.5H49M109 55.5V6.5C105 6.5 97 7.3 97 10.5M104.5 10.5V30M49 79.5C50.3333 70.6667 57.4 52.5 75 50.5M56 79.5C57.1667 75 60.3 65.8 63.5 65M51.5479 85H75M69 160V213.5M43 171V196.5M41 295.5V325M64.5 304V349.5M17.5 104.5H97V18.5C66.5 18.5 17.5 53.3 17.5 104.5ZM37 91H83V41C65.3522 41 37 61.2326 37 91ZM17.5 121.5H97V387H17.5V121.5ZM22.5 127H91.5V381H22.5V127ZM35 153.5C37.6667 153.5 43 152 43 146H46.5C46.5 143 48.6 137 57 137C65.4 137 67.5 143 67.5 146H71C71 152 76.3333 153.5 79 153.5V352.5C76.3333 352.833 71 355.3 71 362.5C70.6667 365.833 67.5 372 57 372C46.5 372 43.3333 365.833 43 362.5C43 355.3 37.6667 352.833 35 352.5V153.5ZM56 249.5C50.3116 251.5 48 263.5 56 263.5C64 263.5 61.6884 251.5 56 249.5Z" stroke="black" stroke-width="2" stroke-linecap="round" stroke-linejoin="round"/>
<path d="M113 469H225.5C225.358 451.225 225.277 428.725 225.236 403.5H113V469Z" fill="url(#paint1_linear_363_462)"/>
<path d="M225.5 112.5C225.5 28.0848 151.167 3 113 1V403.5H225.236C225.087 309.995 225.5 179.048 225.5 112.5Z" fill="#997763"/>
<path d="M129.5 104.5H209C209 53.3 160 18.5 129.5 18.5V104.5Z" fill="#795C4B"/>
<path d="M143.5 91H189.5C189.5 61.2326 161.148 41 143.5 41V91Z" fill="#A7826C"/>
<path d="M129.5 121.5H209V387H129.5V121.5Z" fill="#584336"/>
<path d="M135 127H204V381H135V127Z" fill="#795C4B"/>
<path d="M183.5 146C183.5 152 188.833 153.5 191.5 153.5V352.5C188.833 352.833 183.5 355.3 183.5 362.5C183.167 365.833 180 372 169.5 372C159 372 155.833 365.833 155.5 362.5C155.5 355.3 150.167 352.833 147.5 352.5V153.5C150.167 153.5 155.5 152 155.5 146H159C159 143 161.1 137 169.5 137C177.9 137 180 143 180 146H183.5Z" fill="#A7826C"/>
<path d="M225.5 112.5C225.5 28.0848 151.167 3 113 1V112.5M225.5 112.5C225.5 179.048 225.087 309.995 225.236 403.5M225.5 112.5H218.5M225.236 403.5C225.277 428.725 225.358 451.225 225.5 469H113V403.5M225.236 403.5H113M113 403.5V112.5M174.952 249.5C173.604 247.509 172.04 245.746 170.5 244.5C168.96 245.746 167.324 247.509 165.878 249.5M174.952 249.5C179.735 256.562 181.811 266.5 170.5 266.5C158.019 266.5 160.75 256.562 165.878 249.5M174.952 249.5C182.64 242.3 177.5 234.5 170.5 234.5C163 234.5 158.619 242.3 165.878 249.5M218.5 463.5H122M215.5 458H190M221 452H183.5M183.5 456H146M157.5 459.5H126.5M142.5 448H122M177.5 442H162M215.5 445H204M218.5 431H204M131.5 431H117M147.5 436.5H139.5M185.5 433.5H177.5M218.5 407.5H151.5M139.5 407.5H117M123.5 410.5H117M221 410.5H218.5M221 400.5C219 400.5 169.167 400.5 137.5 400.5M221 146V192.5M218.5 300.5V362.5V384M117.5 282.5V221.5M122 228.5V131M117.5 158V196.5M218.5 112.5L213 118H185.5M218.5 112.5L214.5 108.5L208.986 102.986M126.5 108.5L122 113M122 113L126.5 117.5M122 113L113 112.5M137.5 112.5H179.878M141 10.5C141 7.5 121.5 6.5 117.5 6.5V54V66.5M122 10.5V50.5M182 83.5C180.667 74.6667 169.1 52.5 151.5 50.5M157.5 160V213.5M183.5 171V196.5M185.5 295.5V341M162 333.5V349.5M117.5 79.5V95.5M180 86.5H151.5M147.5 71V86.5M147.5 56.5C150.707 56 157.998 56.4 161.5 62M208.986 102.986C208.033 52.615 159.698 18.5 129.5 18.5V104.5H209C209 103.994 208.995 103.489 208.986 102.986ZM126.5 249.5V367.5M117.5 391V341M120 312V333.5M123.5 394V400.5H129.5M165.878 391H201M221 367.5V343.5M214.5 134V213.5M221 209.5V273M186.5 195V244.5M151.5 319.5V253.5M189.5 91H143.5V41C161.148 41 189.5 61.2326 189.5 91ZM209 121.5H129.5V387H209V121.5ZM204 127H135V381H204V127ZM191.5 153.5C188.833 153.5 183.5 152 183.5 146H180C180 143 177.9 137 169.5 137C161.1 137 159 143 159 146H155.5C155.5 152 150.167 153.5 147.5 153.5V352.5C150.167 352.833 155.5 355.3 155.5 362.5C155.833 365.833 159 372 169.5 372C180 372 183.167 365.833 183.5 362.5C183.5 355.3 188.833 352.833 191.5 352.5V153.5ZM170.5 249.5C176.188 251.5 178.5 263.5 170.5 263.5C162.5 263.5 164.812 251.5 170.5 249.5Z" stroke="black" stroke-width="2" stroke-linecap="round" stroke-linejoin="round"/>
<defs>
<linearGradient id="paint0_linear_363_462" x1="57.25" y1="403.5" x2="57.25" y2="469" gradientUnits="userSpaceOnUse">
<stop stop-color="#76533D"/>
<stop offset="1" stop-color="#6A5551"/>
</linearGradient>
<linearGradient id="paint1_linear_363_462" x1="169.25" y1="403.5" x2="169.25" y2="469" gradientUnits="userSpaceOnUse">
<stop stop-color="#76533D"/>
<stop offset="1" stop-color="#6A5551"/>
</linearGradient>
</defs>
</svg>
