<svg width="147" height="126" viewBox="0 0 147 126" fill="none" xmlns="http://www.w3.org/2000/svg">
<path d="M132.238 86.3188C130.583 87.9737 124.607 87.606 121.205 86.3188C121.205 84.8128 121.197 83.3444 121.181 81.9128C121.114 75.9645 120.907 70.6507 120.535 65.9083C120.214 61.8194 119.771 58.1553 119.191 54.8755C116.427 39.2327 110.551 32.3308 99.9667 29.7758C98.9083 29.0977 97.8977 28.4665 96.9326 27.8799C77.1738 15.8689 76.5219 22.5212 76.5219 26.4658C76.5219 33.0855 76.5219 39.3543 75.4186 40.257C75.2529 40.3926 75.0682 40.5136 74.867 40.621C72.1215 42.0864 66.2995 41.028 63.5583 40.257C64.4089 26.4892 67.2999 18.3582 70.6332 13.7877C71.0019 13.2821 71.376 12.8202 71.7533 12.399C75.0451 8.72449 78.5842 8.151 80.935 8.81347L107.69 20.3979C124.261 25.9763 131.04 40.4682 133.077 54.8755C133.606 58.6111 133.815 62.341 133.794 65.9083C133.76 71.7123 133.115 77.086 132.238 81.354C132.514 81.7218 133.893 84.6639 132.238 86.3188Z" fill="#727278"/>
<path d="M21.6335 10.4682H25.7708C26.0834 9.89524 26.4048 9.16435 26.6146 8.41602C38.4592 8.6655 49.8942 11.7991 49.2156 17.3634C48.1124 20.2319 45.9977 21.6846 45.0783 22.0523C28.0878 29.7753 11.5202 25.2702 5.36017 22.0523C3.86331 21.2248 0.9954 19.1285 1.49868 17.3634C1.68883 11.9441 10.83 9.09541 21.063 8.51284C21.1655 9.23627 21.3925 9.93261 21.6335 10.4682Z" fill="#9F6D3E"/>
<path d="M30.4598 8.81407C25.6054 8.81407 26.9661 12.3077 28.2533 14.0545H32.1147C33.5858 12.3077 35.3143 8.81407 30.4598 8.81407Z" fill="#39353B"/>
<path d="M24.1159 4.67676C20.1441 4.89741 20.8061 8.63018 21.6336 10.469H25.7709C26.8148 8.55516 27.9574 4.87989 24.713 4.67676C24.5284 4.6652 24.3297 4.66488 24.1159 4.67676Z" fill="#39353B"/>
<path d="M5.36011 30.879C21.6887 40.5879 38.6425 35.6599 45.0783 31.9823V22.0527C28.0877 29.7757 11.5201 25.2706 5.36011 22.0527V28.9482V30.879Z" fill="#664F41"/>
<path d="M47.285 31.9823C47.9469 33.5269 45.3542 35.9357 43.9751 36.947C29.3695 43.3461 13.0656 39.4294 6.73936 36.6712C3.65017 35.5679 2.69399 33.0855 2.60205 31.9823C2.60205 30.217 4.44085 29.2241 5.36026 28.9482V30.879C21.6888 40.5879 38.6426 35.6599 45.0784 31.9823H47.285Z" fill="#9F6D3E"/>
<path d="M50.8707 78.5965C49.3261 79.2585 48.3883 78.5046 48.1125 78.0448V65.9087C48.0925 65.7287 48.0786 65.5095 48.0781 65.2767C48.0766 64.4394 48.2494 63.4262 48.9399 63.4262V56.255H48.1125C47.9286 55.2436 48.4435 53.4415 51.974 54.3241H61.4048L67.6957 57.8192V61.6807L59.6969 63.4262V65.9087V78.0448C58.8143 80.9134 55.8355 80.1595 54.4564 79.424C53.9047 78.8723 52.4153 77.9345 50.8707 78.5965Z" fill="#9F6D3E"/>
<path d="M22.185 92.6625C-0.983875 88.9113 2.60179 81.5377 7.29074 78.3198L7.2656 76.4212L6.7392 36.6709C13.0654 39.4291 29.3693 43.3458 43.975 36.9467V65.8973V77.7682C47.5055 80.1954 47.6526 82.8249 47.2848 83.8362C46.0896 87.1461 39.3963 93.5451 22.185 92.6625Z" fill="#D9D9D9"/>
<path d="M8.7229 47.4283V39.3389C12.9521 42.0353 25.4928 45.8104 41.8214 39.3389V47.4283C39.8316 48.2169 37.8982 48.8533 36.0291 49.3581C26.413 51.9552 18.5023 51.0672 13.4118 49.485C11.3722 48.8511 9.78531 48.1056 8.7229 47.4283Z" fill="#A4A4A4"/>
<path d="M15.0668 78.3203L13.4119 49.4853C18.5023 51.0676 26.413 51.9555 36.0291 49.3584V76.4217C28.7898 80.4916 19.0378 79.3832 15.0668 78.3203Z" fill="#4D4D4D"/>
<path d="M67.6956 55.427C67.6433 55.1658 67.6455 54.9243 67.6956 54.702V54.3238V41.1085C70.2915 41.4683 73.1681 41.5278 74.8669 40.6211V52.6849C71.6618 52.3502 68.1019 52.8973 67.6956 54.702V55.427Z" fill="#484848"/>
<path d="M94.4502 65.9088H59.6968V63.4262L67.6956 61.6807H103.881C107.69 61.6807 109.122 56.2551 102.725 54.876H113.974H119.191C119.771 58.1558 120.214 61.8199 120.535 65.9088H100.794C98.8081 63.7022 96.3809 63.7022 94.4502 65.9088Z" fill="#5B5B5B"/>
<path d="M99.4151 49.0836C100.96 49.0836 102.265 50.5546 102.725 51.2901V52.9425V54.8758C109.122 56.2549 107.69 61.6805 103.881 61.6805H67.6957V57.8191L61.4048 54.324H67.6957V54.7022C68.102 52.8975 71.6619 52.3504 74.8671 52.6851C75.4365 52.7445 75.9947 52.8318 76.522 52.9448C77.0619 53.0605 78.0926 53.0198 79.556 52.9185V49.0836C79.556 47.3183 80.8432 46.693 81.4868 46.601C82.4981 46.4171 84.8518 45.9942 86.1757 45.7736C87.4996 45.5529 87.8306 46.2333 87.8306 46.601V50.4625L97.2085 49.0834C97.4843 49.6352 98.3118 50.4076 99.4151 49.0836Z" fill="#696969"/>
<path d="M146.028 63.9781C146.028 65.5226 144.925 65.9088 144.374 65.9088H141.117H133.665C133.686 62.3414 133.477 58.6116 132.948 54.876H143.822C145.587 54.876 146.028 55.7954 146.028 56.2551V63.9781Z" fill="#5B5B5B"/>
<path d="M98.0359 92.3698C95.2404 92.3522 92.5778 92.3705 90.0371 92.4202L94.4502 95.421L94.6092 95.5194C95.3989 93.8359 96.9346 92.367 98.0359 92.3698Z" fill="#A8987A"/>
<path d="M100.576 99.3735L97.4843 97.3518C96.7097 96.4338 97.9894 95.0521 99.1392 95.421L101.978 97.4647L106.035 100.386L106.088 100.453C105.683 101.024 105.306 101.617 104.964 102.226L104.656 102.041L100.576 99.3735Z" fill="#A8987A"/>
<path d="M114.585 105.626L115.964 107.557L116.493 94.0418L116.516 93.4535V92.9424C117.781 93.0096 119.068 93.0831 120.377 93.1631L120.314 94.0418L119.274 108.384C120.575 109.686 118.684 111.724 116.845 111.023C116.735 110.981 116.625 110.929 116.516 110.867L113.758 107.557C112.707 106.363 113.758 105.075 114.585 105.626Z" fill="#A8987A"/>
<path d="M29.0808 113.625L27.7017 112.246C26.1571 112.246 26.5064 113.533 26.8742 114.176L29.6324 115.874L30.4599 116.383C32.3906 117.762 34.0455 115.831 32.3906 114.452L31.9492 101.674V100.007C31.1826 100.106 30.4112 100.196 29.6324 100.276C29.2839 100.312 28.9338 100.346 28.582 100.378L28.8049 107.004L29.0808 113.625Z" fill="#A8987A"/>
<path d="M24.1162 100.661C23.8383 100.693 23.5624 100.723 23.2887 100.75C15.014 104.523 9.49763 123.279 22.4612 125.209C29.8593 126.311 43.2651 110.96 33.1622 101.122L31.9494 100.007V101.674L32.3907 114.452C34.0457 115.831 32.3907 117.762 30.46 116.383L29.6325 115.874C29.4119 118.556 26.5985 119.17 25.2194 119.141C18.0481 119.141 23.2887 104.799 28.8051 107.004L28.5822 100.378C27.1289 100.51 25.646 100.607 24.1162 100.661Z" fill="#6B6B6B"/>
<path d="M29.0807 113.626L27.7015 112.247C26.157 112.247 26.5063 113.534 26.8741 114.178L29.6323 115.875C29.4116 118.557 26.5983 119.171 25.2192 119.142C18.0478 119.142 23.2884 104.8 28.8048 107.005L29.0807 113.626Z" fill="#404040"/>
<path d="M125.618 105.075C122.749 117.873 115.045 119.601 111.551 118.866C101.556 116.367 101.465 108.458 104.964 102.226C105.306 101.617 105.683 101.024 106.088 100.453C108.856 96.5521 112.952 93.7095 116.493 94.0421L116.162 102.502L115.741 102.226C110.225 100.021 106.586 112.983 113.758 112.983C114.419 112.964 115.962 112.544 116.845 111.023C118.684 111.724 120.575 109.686 119.274 108.385L120.314 94.0421C122.541 95.183 126.721 98.9868 125.618 105.075Z" fill="#6B6B6B"/>
<path d="M114.585 105.627L115.964 107.557L116.162 102.502L115.741 102.226C110.225 100.021 106.586 112.983 113.758 112.983C114.419 112.964 115.962 112.544 116.844 111.023C116.734 110.981 116.625 110.929 116.516 110.867L113.758 107.557C112.707 106.363 113.758 105.075 114.585 105.627Z" fill="#404040"/>
<path d="M101.346 92.4069C100.222 92.3891 99.1189 92.3769 98.0358 92.3701C96.9345 92.3674 95.3988 93.8363 94.6091 95.5197C93.6188 97.6308 93.8014 100.079 97.4842 100.386C98.4199 100.355 99.6205 100.075 100.576 99.3739L97.4842 97.3521C96.7097 96.4341 97.9893 95.0524 99.1391 95.4213L101.978 97.465C102.374 96.2666 102.294 94.6244 101.346 92.4069Z" fill="#404040"/>
<path d="M71.5571 93.4538C76.4458 92.9817 81.9038 92.6287 88.1064 92.4648C81.266 100.691 74.2234 96.5518 71.5571 93.4538Z" fill="#6B6B6B"/>
<path d="M24.1161 94.8691C47.6789 92.1652 59.697 82.4572 121.205 86.3187C123.337 87.116 128.484 88.2693 132.015 86.504V93.3996C130.968 94.1034 127.341 95.0518 121.205 93.2142C120.928 93.1968 120.652 93.1797 120.377 93.1629C119.068 93.0828 117.781 93.0094 116.516 92.9422C111.07 92.6529 106.029 92.4806 101.346 92.4063C100.222 92.3885 99.119 92.3763 98.0359 92.3695C95.2404 92.3519 92.5778 92.3702 90.0371 92.4199C89.3856 92.4326 88.742 92.4474 88.1063 92.4642L71.5571 93.4532C53.5443 95.1927 43.2621 98.5481 31.9492 100.007L28.5821 100.378C27.1288 100.51 25.6459 100.607 24.1161 100.661C23.8381 100.693 23.5623 100.723 23.2885 100.75C9.32459 102.134 0.90458 97.3644 1.00082 92.3867L1.00082 87.6072L1.00082 86.7635C0.999728 86.7071 0.999726 86.6508 1.00082 86.5944L1.00082 86.7635C1.09786 91.7769 9.81855 96.5098 24.1161 94.8691Z" fill="#52371E"/>
<path d="M132.238 81.3546C132.514 81.7223 133.893 84.6644 132.238 86.3194V88.2501C135.681 86.8475 141.033 83.6233 142.667 79.4238V72.5283C141.033 76.7278 135.681 79.952 132.238 81.3546Z" fill="#52371E"/>
<path d="M99.9666 29.7758L99.415 49.0833C98.3117 50.4073 97.4843 49.6349 97.2084 49.0831L96.9326 47.4282V27.8799C97.8977 28.4665 98.9083 29.0977 99.9666 29.7758Z" fill="#040404"/>
<path d="M142.667 72.5277C141.033 76.7271 135.681 79.9513 132.238 81.3539C133.114 77.0859 133.631 71.7122 133.665 65.9082H141.117C141.424 66.0896 141.86 66.2734 142.167 66.4596C143.385 68.6242 143.389 70.6712 142.667 72.5277Z" fill="#86592F"/>
<path d="M121.205 86.3183C59.6971 82.4569 47.6789 92.1649 24.1161 94.8688C9.65787 96.5279 0.902553 91.6694 1.00082 86.594C1.0169 85.7632 1.27024 84.9266 1.77466 84.1118V81.3536C2.17685 80.147 3.80752 78.3969 7.26575 76.4208L7.29089 78.3194C2.60194 81.5373 -0.983725 88.9109 22.1852 92.6621C39.3965 93.5447 46.0897 87.1456 47.285 83.8358C47.6527 82.8245 47.5056 80.195 43.9751 77.7677V65.8969C45.304 65.6854 46.6714 65.4782 48.078 65.2758C48.0785 65.5086 48.0924 65.7278 48.1124 65.9079V78.044C48.3882 78.5037 49.326 79.2576 50.8706 78.5956C52.4152 77.9336 53.9046 78.8714 54.4563 79.4231C55.8354 80.1586 58.8142 80.9125 59.6968 78.044V65.9079H94.4502C96.381 63.7013 98.8082 63.7013 100.794 65.9079H120.535C120.907 70.6502 121.114 75.964 121.181 81.9124C121.197 83.344 121.205 84.8123 121.205 86.3183Z" fill="#86592F"/>
<path d="M121.205 86.3191C59.697 82.4576 47.6789 92.1656 24.1161 94.8695C9.65787 96.5287 0.902553 91.6701 1.00082 86.5948M121.205 86.3191C124.607 87.6062 130.583 87.974 132.238 86.3191M121.205 86.3191V89.7668V93.2146M121.205 86.3191C121.205 84.8131 121.197 83.3447 121.181 81.9131M132.238 86.3191C133.893 84.6642 132.514 81.7221 132.238 81.3543M132.238 86.3191V89.7668V93.2146C130.583 94.8695 124.607 94.5018 121.205 93.2146M132.238 81.3543C135.681 79.9517 141.033 76.7275 142.667 72.5281M132.238 81.3543C133.114 77.0863 133.631 71.7126 133.665 65.9086M132.238 81.3543C128.886 83.5607 123.47 82.6462 121.181 81.9131M142.667 72.5281C143.39 70.6716 143.385 68.6246 142.167 66.46C141.86 66.2738 141.424 66.09 141.117 65.9086M142.667 72.5281V75.9758V79.4236C141.033 83.6231 135.681 86.8472 132.238 88.2498M121.205 93.2146C120.928 93.1972 120.652 93.1801 120.377 93.1633M59.6968 65.9086V78.0447C58.8142 80.9132 55.8353 80.1593 54.4562 79.4238C53.9046 78.8722 52.4152 77.9344 50.8706 78.5963C49.326 79.2583 48.3882 78.5044 48.1124 78.0447V65.9086C48.0924 65.7285 48.0785 65.5093 48.078 65.2765M59.6968 65.9086H94.4502C96.381 63.702 98.8082 63.702 100.794 65.9086H120.535M59.6968 65.9086V63.426M102.725 54.8758V52.9425M102.725 54.8758C105.867 54.8758 109.798 54.8758 113.974 54.8758M102.725 54.8758C109.122 56.2549 107.69 61.6805 103.881 61.6805H67.6956M99.415 49.0835C100.96 49.0835 102.265 50.5546 102.725 51.2901V52.9425M99.415 49.0835L99.9666 29.7761M99.415 49.0835C98.3117 50.4076 97.4842 49.6351 97.2084 49.0834M99.9666 29.7761C98.9083 29.0979 97.8976 28.4668 96.9326 27.8802M99.9666 29.7761C110.551 32.331 116.427 39.2329 119.191 54.8758M96.9326 27.8802C77.1738 15.8692 76.5219 22.5214 76.5219 26.4661C76.5219 33.0858 76.5219 39.3545 75.4186 40.2573C75.2529 40.3929 75.0682 40.5139 74.867 40.6213M96.9326 27.8802V47.4285L97.2084 49.0834M97.2084 49.0834L87.8305 50.4625V46.601C87.8305 46.2332 87.4995 45.5529 86.1756 45.7735C84.8517 45.9942 82.498 46.4171 81.4867 46.601C80.8431 46.693 79.5559 47.3183 79.5559 49.0835C79.5559 50.8488 79.5559 52.3757 79.5559 52.9185C78.0925 53.0198 77.0618 53.0605 76.5219 52.9448C75.9946 52.8318 75.4364 52.7445 74.867 52.6851M74.867 52.6851C71.2669 52.3092 67.2193 53.0456 67.6956 55.4272V54.324M74.867 52.6851V40.6213M74.867 40.6213C73.1682 41.528 70.2915 41.4685 67.6956 41.1086M48.9398 56.2549V63.426C48.2492 63.426 48.0765 64.4392 48.078 65.2765M48.9398 56.2549H48.1124C47.9285 55.2435 48.4434 53.4413 51.9739 54.324H61.4047M48.9398 56.2549L59.6968 63.426M67.6956 54.324H61.4047M67.6956 54.324V41.1086M30.4599 8.81375C25.6054 8.81375 26.9661 12.3074 28.2533 14.0542H32.1148C33.5858 12.3074 35.3143 8.81375 30.4599 8.81375ZM30.4599 8.81375C36.2797 5.05054 52.4622 0.776895 70.6332 13.7879M70.6332 13.7879C67.2998 18.3584 64.4089 26.4895 63.5583 40.2573C64.6034 40.5512 66.0962 40.8869 67.6956 41.1086M70.6332 13.7879C71.0019 13.2824 71.376 12.8205 71.7533 12.3992M25.7709 10.4687H21.6336C21.3926 9.93303 21.1656 9.23669 21.0631 8.51326M25.7709 10.4687C21.9774 10.1 18.1575 10.99 16.7218 11.4812M25.7709 10.4687C26.0835 9.89566 26.4049 9.16477 26.6147 8.41643M24.713 4.67643C24.5285 4.66488 24.3297 4.66455 24.116 4.67643C21.3011 4.83281 20.8137 6.7532 21.0631 8.51326M24.713 4.67643C29.4257 0.631007 45.4315 -3.48802 71.7533 12.3992M24.713 4.67643C26.9861 4.81875 27.1058 6.66533 26.6147 8.41643M71.7533 12.3992C75.0451 8.72476 78.5842 8.15128 80.935 8.81375L107.69 20.3982C124.261 25.9765 130.911 40.4685 132.949 54.8758M23.2885 100.75C9.32459 102.134 0.90458 97.3648 1.00082 92.3871L1.00082 87.6076L1.00082 86.5948M23.2885 100.75C23.5623 100.723 23.8381 100.694 24.1161 100.662C25.6459 100.607 27.1288 100.51 28.582 100.379M23.2885 100.75C15.0139 104.523 9.49751 123.279 22.4611 125.21C29.8592 126.312 43.2649 110.961 33.162 101.123L31.9492 100.007M28.8049 107.004L29.0808 113.625L27.7017 112.246C26.1571 112.246 26.5064 113.533 26.8742 114.177L29.6324 115.874M28.8049 107.004C23.2885 104.799 18.0479 119.142 25.2193 119.142C26.5984 119.17 29.4117 118.556 29.6324 115.874M28.8049 107.004L28.582 100.379M29.6324 115.874L30.4599 116.383C32.3906 117.763 34.0455 115.832 32.3906 114.453L31.9492 101.674V100.007M71.5571 93.4537C76.4457 92.9816 81.9038 92.6285 88.1063 92.4647M71.5571 93.4537C74.2234 96.5516 81.266 100.691 88.1063 92.4647M71.5571 93.4537C53.5443 95.1932 43.2621 98.5486 31.9492 100.007M88.1063 92.4647C88.742 92.4479 89.3856 92.4331 90.0371 92.4203M98.0359 92.3699C99.119 92.3767 100.222 92.3889 101.346 92.4067M98.0359 92.3699C95.2404 92.3524 92.5778 92.3707 90.0371 92.4203M98.0359 92.3699C96.9346 92.3671 95.3989 93.836 94.6092 95.5195M101.346 92.4067C102.294 94.6242 102.374 96.2664 101.978 97.4648M101.346 92.4067C106.029 92.481 111.07 92.6534 116.516 92.9426M100.576 99.3737L97.4842 97.3519C96.7097 96.4339 97.9894 95.0522 99.1392 95.4211L101.978 97.4648M100.576 99.3737L104.656 102.041L104.964 102.226M100.576 99.3737C99.6205 100.075 98.42 100.355 97.4842 100.386C93.8014 100.079 93.6188 97.6306 94.6092 95.5195M101.978 97.4648L106.035 100.386L106.088 100.453M120.377 93.1633L120.314 94.042M120.377 93.1633C119.068 93.0833 117.781 93.0098 116.516 92.9426M116.493 94.042L116.516 93.4537V92.9426M116.493 94.042C112.952 93.7095 108.856 96.552 106.088 100.453M116.493 94.042L116.162 102.502M120.314 94.042L119.274 108.385C120.575 109.686 118.684 111.724 116.845 111.023M120.314 94.042C122.541 95.1829 126.721 98.9868 125.618 105.075C122.749 117.873 115.045 119.601 111.551 118.866C101.556 116.367 101.465 108.458 104.964 102.226M90.0371 92.4203L94.4502 95.4211L94.6092 95.5195M43.9751 36.9471C45.3542 35.9357 47.9469 33.5269 47.285 31.9823H45.0784M43.9751 36.9471V65.8977M43.9751 36.9471C29.3695 43.3461 13.0656 39.4294 6.73935 36.6712M45.0784 31.9823C38.6426 35.6599 21.6888 40.5879 5.36025 30.879V28.9483M45.0784 31.9823V22.0527M5.36025 28.9483C4.44084 29.2241 2.60204 30.217 2.60204 31.9823C2.69398 33.0856 3.65016 35.568 6.73935 36.6712M5.36025 28.9483V22.0527M6.73935 36.6712L7.26575 76.4216M5.36025 22.0527C11.5202 25.2707 28.0879 29.7757 45.0784 22.0527M5.36025 22.0527C3.86338 21.2252 0.995477 19.129 1.49876 17.3638C1.68891 11.9445 10.8301 9.09583 21.0631 8.51326M45.0784 22.0527C45.9978 21.685 48.1124 20.2323 49.2157 17.3638C49.8943 11.7995 38.4593 8.66592 26.6147 8.41643M7.26575 76.4216L7.29089 78.3201C2.60194 81.538 -0.983725 88.9116 22.1852 92.6628C39.3965 93.5454 46.0897 87.1464 47.285 83.8365C47.6527 82.8252 47.5056 80.1957 43.9751 77.7685V65.8977M7.26575 76.4216C3.80752 78.3977 2.17685 80.1477 1.77466 81.3543V84.1125C1.27024 84.9273 1.0169 85.764 1.00082 86.5948M43.9751 65.8977C45.304 65.6862 46.6714 65.479 48.078 65.2765M102.725 52.9425C106.237 53.3323 110.006 53.9453 113.974 54.8758M113.974 54.8758C115.684 54.8758 117.436 54.8758 119.191 54.8758M119.191 54.8758C119.771 58.1556 120.214 61.8197 120.535 65.9086M132.949 54.8758C138.72 54.8758 143.145 54.8758 143.822 54.8758C145.587 54.8758 146.029 55.7952 146.029 56.2549C146.029 58.1856 146.029 62.4333 146.029 63.9779C146.029 65.5224 144.925 65.9086 144.374 65.9086H141.117M132.949 54.8758C133.477 58.6114 133.687 62.3412 133.665 65.9086M120.535 65.9086C120.907 70.651 121.114 75.9648 121.181 81.9131M133.665 65.9086H141.117M13.4119 49.4852C11.3723 48.8512 9.78538 48.1058 8.72297 47.4285V39.3391C12.9522 42.0355 25.4929 45.8106 41.8214 39.3391V47.4285C39.8317 48.217 37.8982 48.8535 36.0292 49.3583M13.4119 49.4852L15.0668 78.3201C19.0379 79.3831 28.7898 80.4915 36.0292 76.4216V49.3583M13.4119 49.4852C18.5024 51.0674 26.413 51.9554 36.0292 49.3583M8.72297 81.3543C13.7797 86.5029 30.4599 91.1933 42.9247 81.3543M6.24059 85.6769C5.68895 84.5736 5.3028 82.3119 8.17133 82.0912M11.2054 88.4351C10.8376 87.6899 10.5986 86.0951 12.5845 85.6769M18.3767 90.9175C18.2848 90.09 18.2664 88.4351 18.9283 88.4351M27.4788 88.7109L27.2029 91.4691M33.5468 87.8835C33.9146 88.5139 34.5398 90.0034 34.0985 90.9175M43.9751 81.3543C44.8555 80.4363 47.4095 82.6429 45.4071 84.1125M39.6149 85.4011C40.3504 85.4151 41.6008 85.9313 40.7182 87.8835M29.1337 77.1265C30.8806 76.7587 34.4846 75.3612 34.9259 72.7133M27.2029 76.4216C29.6853 75.2774 34.7053 72.2169 34.9259 69.1277M23.2885 76.4216C25.6223 75.7371 30.4448 73.6511 31.0644 70.7826M14.5152 52.6851C14.6991 52.1898 15.2875 51.2545 16.1701 51.4752M15.0668 56.2549C15.4346 54.8247 16.7218 52.1084 18.9283 52.6851M33.8226 53.1301C34.0985 57.3593 34.4846 66.1488 33.8226 67.4727M16.1701 76.4216C16.0782 76.8705 16.0598 77.7685 16.7218 77.7685M10.6537 46.601C12.7683 47.6117 18.5973 49.5782 24.9964 49.3583M27.4788 48.4411C31.3403 48.1653 39.339 47.2275 40.4423 45.6829M22.1852 46.601C23.6739 47.0305 27.4788 47.5585 30.7886 46.2346M10.1021 44.5796C12.0504 45.2534 16.764 46.601 20.0316 46.601M34.3743 45.4071C35.9373 45.2232 39.339 44.6348 40.4423 43.7522M10.6537 42.3731C15.7281 43.8764 27.6866 46.2569 34.9259 43.7522M14.5152 10.4687C11.0165 12.4294 8.15778 16.5535 24.713 17.3638C41.2683 16.5535 38.693 12.4294 35.1942 10.4687M5.36025 19.2042C9.05548 21.4107 20.3626 25.217 36.0292 22.7898M22.1852 15.3427C24.2255 14.9132 29.5198 14.0542 34.3743 14.0542M122.913 79.4238C123.464 79.4238 127.477 81.7207 130.636 79.4236M122.913 76.4216C124.66 77.2082 128.76 78.1194 131.187 75.4715M122.913 72.5281C124.716 73.4173 129.106 74.4234 132.238 71.3342M122.913 67.4727C125.171 67.8103 130.099 68.2829 131.739 67.4727M122.913 62.508C125.236 62.8757 130.255 63.2251 131.739 61.6805M122.361 57.819C122.913 57.819 129.684 57.7283 131.739 56.9916M121.205 54.324C124.182 53.7777 130.347 52.6851 131.187 52.6851M121.181 50.4625C123.151 49.4511 127.689 47.4285 130.084 47.4285M120.377 46.601C122.247 45.0997 126.696 42.4282 129.532 43.7522M119.191 42.0973C120.248 40.8101 123.078 38.2358 125.947 38.2358M115.466 38.2358C116.661 36.7647 119.823 33.8226 122.913 33.8226M112.983 33.8226C113.996 31.6161 116.656 27.5891 119.191 29.1337M110.225 31.9823C110.518 30.0778 111.988 26.1799 115.518 25.8238M106.639 29.7761C106.585 27.907 107.226 24.1138 110.225 23.8931M102.226 27.8802C101.95 26.1517 102.447 22.5664 106.639 22.0527M96.9326 25.2722C97.2261 23.3709 98.6956 19.6057 102.226 19.7558M66.0936 36.9471C67.7133 37.7127 71.7354 38.7846 74.867 36.9471M66.0936 32.7194C67.4551 33.4549 71.1158 34.4846 74.867 32.7194M66.9211 27.8802C68.0067 28.3515 71.1158 29.0114 74.867 27.8802M68.576 22.0527C69.7774 23.1259 72.6178 25.2722 74.3683 25.2722M70.6332 18.1009C72.2283 19.1725 75.4186 21.4631 75.4186 22.0527M74.867 15.8943C75.6201 17.1815 77.2919 19.7558 77.9539 19.7558M82.9187 12.0328C81.964 13.4737 80.341 16.9253 81.4867 19.2042M89.2626 14.791C88.2336 15.5265 86.1756 17.8251 86.1756 21.1349M94.4502 15.8943C92.8129 17.1815 89.759 20.3626 90.6417 22.7898M98.0888 19.2042C96.8759 19.4381 94.4502 20.7035 94.4502 23.8931M59.6968 63.426L67.6956 61.6805M67.6956 61.6805V57.819L61.4047 54.324M116.845 111.023C116.735 110.981 116.625 110.929 116.516 110.867L113.758 107.557C112.707 106.363 113.758 105.075 114.585 105.626L115.964 107.557L116.162 102.502M116.845 111.023C115.962 112.544 114.419 112.964 113.758 112.983C106.586 112.983 110.225 100.021 115.741 102.226L116.162 102.502M106.088 100.453C105.683 101.024 105.306 101.617 104.964 102.226M31.9492 100.007C31.1826 100.106 30.4112 100.196 29.6324 100.277C29.2839 100.313 28.9338 100.347 28.582 100.379" stroke="black"/>
</svg>
