<svg width="869" height="1555" viewBox="0 0 869 1555" fill="none" xmlns="http://www.w3.org/2000/svg">
<g opacity="0.5" filter="url(#filter0_f_379_17)">
<circle cx="508.085" cy="279.227" r="210.022" stroke="#EF8701" stroke-width="12"/>
<path d="M298.533 260.313C324.914 263.465 380.164 265.39 390.119 247.869C400.074 230.349 398.58 213.691 396.589 207.552C395.926 192.785 400.77 162.755 425.459 160.764C450.147 158.773 460.633 102.859 462.79 75.1511" stroke="#EF8701" stroke-width="12"/>
<path d="M515.053 269.272C536.954 270.467 545.748 238.246 547.407 221.986C547.407 181.37 527.995 198.558 527.995 213.027C527.995 217.507 526.004 223.48 515.053 227.462C495.895 234.429 495.143 248.367 495.143 253.345C495.143 258.322 493.152 268.078 515.053 269.272Z" stroke="#EF8701" stroke-width="12"/>
<path d="M362.743 429.547C374.523 424.238 409.232 415.212 453.83 421.583C498.428 427.954 532.143 409.637 543.425 399.682C553.214 386.409 574.985 365.835 588.222 365.835C607.634 365.835 620.078 347.419 658.902 425.565" stroke="#EF8701" stroke-width="12"/>
<path fill-rule="evenodd" clip-rule="evenodd" d="M563.063 19.7366C528.171 11.3605 491.86 10.7881 456.721 18.06C421.582 25.332 388.481 40.2692 359.779 61.806L359.76 61.7806C357.12 64.1362 353.797 67.3458 349.862 71.1461L349.86 71.1476C347.909 73.0321 345.807 75.0619 343.564 77.2048C336.373 84.0742 327.895 91.9376 318.792 99.324C309.702 106.7 299.891 113.681 290.017 118.735C280.184 123.767 269.979 127.05 260.188 126.634C251.346 126.295 237.032 126.737 223.031 129.162C208.812 131.626 195.832 135.99 188.795 142.862C188.639 143.014 188.472 143.152 188.294 143.277C178.971 149.803 170.659 160.714 162.206 173.385C159.753 177.063 157.284 180.896 154.784 184.778L154.783 184.779C148.84 194.006 142.719 203.509 136.204 211.86C126.918 223.764 116.286 234.091 103.117 238.594C90.4382 242.93 76.0862 241.653 59.3947 232.599C47.2292 245.551 29.6179 245.629 17.7993 237.84C11.4873 233.68 6.70164 227.203 5.33823 219.169C3.96989 211.107 6.13071 201.99 12.7394 192.684C12.7749 192.634 12.8116 192.585 12.8494 192.536C25.0033 176.991 44.1299 176.374 56.7019 184.66C63.0139 188.82 67.7995 195.297 69.1629 203.331C70.3479 210.312 68.8862 218.085 64.1814 226.087C78.9034 233.833 90.6386 234.407 100.528 231.025C111.465 227.284 120.908 218.461 129.897 206.94C136.18 198.886 141.976 189.886 147.828 180.798C150.377 176.84 152.936 172.866 155.551 168.946C163.935 156.377 172.881 144.396 183.443 136.908C192.373 128.364 207.357 123.759 221.665 121.28C236.314 118.742 251.202 118.283 260.503 118.641L260.52 118.641C268.371 118.976 277.146 116.335 286.372 111.613C295.558 106.911 304.886 100.305 313.752 93.1118C322.604 85.9285 330.9 78.2391 338.038 71.42C340.152 69.401 342.18 67.4424 344.096 65.5916L344.098 65.5903C348.576 61.2654 352.445 57.5285 355.376 54.9811C355.705 54.6954 356.067 54.4729 356.447 54.3125C385.749 32.6572 419.406 17.6127 455.1 10.226C491.391 2.7155 528.893 3.30675 564.93 11.9576C600.967 20.6085 634.651 37.1057 663.578 60.2725C692.506 83.4392 715.964 112.704 732.28 145.981C748.596 179.257 757.367 215.723 757.967 252.779C758.568 289.835 750.983 326.567 735.754 360.354C720.525 394.141 698.027 424.151 669.865 448.243C641.769 472.279 608.726 489.833 573.083 499.661L573.092 499.707C499.628 513.755 390.874 546.21 303.386 597.803C215.656 649.539 150.848 719.53 161.688 808.377C169.7 874.052 217.678 923.133 283.786 958.726C349.847 994.293 433.29 1015.96 510.568 1027.04L509.433 1034.96C431.648 1023.81 347.189 1001.95 279.994 965.769C212.846 929.617 162.213 878.742 153.747 809.346C142.287 715.42 211.041 642.973 299.323 590.912C387.5 538.912 496.694 506.264 570.717 492.017L570.716 492.014C605.318 482.512 637.398 465.491 664.665 442.164C691.932 418.837 713.715 389.781 728.46 357.067C743.206 324.353 750.549 288.788 749.968 252.909C749.387 217.03 740.894 181.722 725.097 149.502C709.299 117.283 686.586 88.9477 658.578 66.5168C630.569 44.0859 597.955 28.1127 563.063 19.7366ZM61.2757 204.669C62.2168 210.214 60.8891 217.195 55.293 225.108C45.9455 236.992 31.6108 237.362 22.2018 231.16C17.5138 228.07 14.1745 223.422 13.2254 217.831C12.2843 212.286 13.6121 205.305 19.2082 197.392C28.5557 185.508 42.8903 185.138 52.2994 191.34C56.9874 194.43 60.3267 199.078 61.2757 204.669ZM34.5903 196.59C32.7068 195.435 30.2441 196.026 29.0897 197.91C27.9353 199.793 28.5263 202.256 30.4098 203.41L45.9098 212.91C47.7934 214.065 50.2561 213.474 51.4105 211.59C52.5649 209.707 51.9739 207.244 50.0903 206.09L34.5903 196.59ZM26.5903 209.59C24.7068 208.435 22.2441 209.026 21.0897 210.91C19.9353 212.793 20.5263 215.256 22.4098 216.41L37.9098 225.91C39.7934 227.065 42.2561 226.474 43.4105 224.59C44.5649 222.707 43.9739 220.244 42.0903 219.09L26.5903 209.59Z" fill="#EF8701"/>
<circle cx="463.714" cy="246.063" r="201.62" stroke="white" stroke-width="12" stroke-linecap="round" stroke-linejoin="round"/>
<path d="M262.313 227.885C287.668 230.915 340.769 232.764 350.336 215.925C359.904 199.086 358.469 183.076 356.555 177.176C355.917 162.984 360.574 134.121 384.302 132.207C408.03 130.294 418.108 76.5552 420.181 49.9251" stroke="white" stroke-width="12" stroke-linecap="round" stroke-linejoin="round"/>
<path d="M470.411 236.496C491.46 237.644 499.912 206.676 501.506 191.049C501.506 152.013 482.849 168.532 482.849 182.438C482.849 186.744 480.936 192.484 470.411 196.311C451.998 203.007 451.276 216.404 451.276 221.187C451.276 225.971 449.362 235.348 470.411 236.496Z" stroke="white" stroke-width="12" stroke-linecap="round" stroke-linejoin="round"/>
<path d="M324.025 390.536C335.347 385.433 368.706 376.759 411.57 382.882C454.433 389.005 486.836 371.401 497.679 361.833C507.088 349.076 528.012 329.303 540.734 329.303C559.391 329.303 571.351 311.602 608.665 386.709" stroke="white" stroke-width="12" stroke-linecap="round" stroke-linejoin="round"/>
<path fill-rule="evenodd" clip-rule="evenodd" d="M518.35 18.466C484.859 10.4264 450.007 9.87692 416.28 16.8568C382.552 23.8366 350.781 38.1737 323.232 58.8453L322.968 58.4927C320.582 60.061 317.499 62.2949 313.778 64.9905C312.062 66.2334 310.211 67.5745 308.231 68.9938C301.911 73.5221 294.454 78.7104 286.446 83.5847C270.634 93.2088 251.911 102.098 235.151 101.565C227.359 101.34 214.756 101.632 202.425 103.234C196.261 104.035 190.243 105.154 184.965 106.67C181.105 107.778 177.771 109.063 175.105 110.51C176.372 113.484 177.422 116.744 177.728 120.275C178.163 125.285 177.082 130.551 173.634 136.139C166.945 146.978 151.295 159.075 120.242 174.101C118.358 175.013 116.089 174.317 115.039 172.505L107.682 159.809L73.4001 178.283C71.4554 179.331 69.0293 178.604 67.9813 176.659C66.9333 174.714 67.6602 172.288 69.605 171.24L103.669 152.884L100.586 147.564C100.574 147.542 100.561 147.52 100.549 147.497L97.4353 141.881L63.3814 160.03C61.4318 161.069 59.0091 160.331 57.9701 158.381C56.9311 156.432 57.6692 154.009 59.6187 152.97L93.5563 134.883L91.5251 131.218C91.4923 131.159 91.461 131.099 91.4312 131.038L85.9077 119.759C84.9648 117.834 85.7075 115.507 87.5917 114.485C113.991 100.153 132.619 94.0357 146.047 93.565C152.842 93.3267 158.434 94.529 163.02 96.957C166.299 98.6931 168.93 100.985 171.064 103.602C174.504 101.705 178.524 100.196 182.757 98.9805C188.541 97.3196 194.98 96.1346 201.394 95.301C214.217 93.6345 227.252 93.3335 235.387 93.568L235.4 93.5684C249.619 94.0236 266.574 86.3148 282.287 76.751C290.042 72.0307 297.311 66.9769 303.571 62.4909C305.416 61.1689 307.19 59.8836 308.87 58.6668L308.871 58.6658L308.872 58.6653C312.811 55.8117 316.229 53.3355 318.815 51.6494C319.279 51.347 319.782 51.1531 320.295 51.0616C348.351 30.4273 380.537 16.0842 414.658 9.02275C449.539 1.80436 485.582 2.37261 520.217 10.687C554.852 19.0013 587.226 34.8569 615.028 57.1225C642.83 79.3882 665.376 107.515 681.057 139.497C696.738 171.479 705.168 206.527 705.745 242.141C706.322 277.756 699.033 313.059 684.396 345.532C669.759 378.005 648.137 406.848 621.07 430.002C594.067 453.103 562.309 469.975 528.053 479.42L528.09 479.618C457.496 493.117 352.99 524.305 268.926 573.879C184.619 623.596 122.408 690.817 132.814 776.109C140.101 835.836 181.774 880.168 240.128 912.708C298.473 945.245 372.877 965.614 444.161 977.555L442.839 985.445C371.133 973.433 295.714 952.866 236.231 919.696C176.757 886.53 132.597 840.385 124.873 777.078C113.847 686.707 180.003 617.03 264.862 566.988C349.625 517.002 454.582 485.619 525.737 471.923L525.695 471.771C558.908 462.651 589.698 446.313 615.87 423.923C642.042 401.534 662.95 373.644 677.103 342.245C691.256 310.845 698.304 276.708 697.746 242.271C697.188 207.834 689.037 173.944 673.874 143.019C658.711 112.094 636.911 84.8967 610.027 63.3669C583.144 41.8371 551.84 26.5056 518.35 18.466ZM159.277 104.027C162.33 105.644 164.648 108.003 166.499 110.946C168.219 114.456 169.472 117.672 169.758 120.967C170.037 124.186 169.413 127.746 166.826 131.938C161.643 140.337 148.701 151.102 120.091 165.268L107.527 143.586L102.525 134.561L98.5713 127.429L94.7882 119.704C119.013 106.885 135.303 101.947 146.328 101.56C152.012 101.361 156.16 102.377 159.277 104.027Z" fill="white"/>
<path fill-rule="evenodd" clip-rule="evenodd" d="M500.483 1026L509.872 1027.05C579.344 1034.89 632.88 1076.2 672.502 1133.75C673.658 1133.32 674.881 1133.09 676.146 1133.09C678.177 1133.09 680.099 1133.68 681.808 1134.74C693.329 1119.48 709.017 1104.77 732.348 1092.04C761.405 1076.18 802.153 1063.46 861.179 1056.39L871.582 1055.14L864.657 1063C826.273 1106.58 778.024 1137.63 729.294 1148.61C729.691 1148.72 730.088 1148.84 730.484 1148.95C739.933 1151.71 748.919 1154.56 756.225 1157.26C759.877 1158.61 763.156 1159.94 765.886 1161.23C768.557 1162.49 770.929 1163.81 772.607 1165.18C775.314 1167.39 777.305 1169.49 778.351 1171.55C778.896 1172.63 779.292 1173.91 779.206 1175.31C779.115 1176.78 778.506 1178.04 777.616 1179C776.043 1180.7 773.795 1181.26 772.322 1181.5C770.66 1181.76 768.902 1181.76 767.42 1181.65L767.253 1181.64L767.087 1181.61L721.374 1174.2L731.806 1545.89L731.921 1550H727.807H676.147H672.009L672.009 1550L491.25 1550H487.136L472 1550L448.781 1550H444.644L444.784 1545.86L452.719 1311.93C451.914 1316.02 450.993 1320.15 449.96 1324.29C442.735 1353.28 429.881 1383.36 412.517 1402.5L406.73 1408.88L405.59 1400.34C403.207 1382.5 403.223 1353.13 408.898 1324C413.832 1298.66 423.172 1272.86 439.534 1255.12C439.366 1254.34 439.257 1253.53 439.214 1252.7C400.465 1243.1 376.98 1229.65 360.456 1214.72C351.566 1206.69 344.792 1198.32 338.796 1190.11C336.279 1186.67 333.964 1183.35 331.701 1180.1L331.7 1180.1L331.699 1180.1C328.449 1175.44 325.308 1170.94 321.835 1166.45L316.055 1158.97L325.448 1160.03C377.365 1165.88 417.325 1196.7 446.85 1239.5L447.929 1239.75C448.21 1239.72 448.494 1239.7 448.781 1239.7C449.936 1239.7 451.042 1239.96 452.067 1240.44C460.71 1228.97 472.489 1217.91 490.015 1208.35C511.739 1196.5 542.129 1187.04 586.034 1181.78L596.443 1180.54L589.511 1188.4C561.904 1219.72 527.392 1242.4 492.25 1251.32C498.231 1253.1 503.875 1254.92 508.591 1256.67C511.318 1257.68 513.782 1258.68 515.845 1259.65C517.85 1260.59 519.702 1261.61 521.048 1262.71C523.09 1264.38 524.704 1266.04 525.58 1267.77C526.041 1268.68 526.404 1269.81 526.325 1271.09C526.242 1272.44 525.681 1273.6 524.87 1274.47C523.458 1275.99 521.494 1276.45 520.347 1276.64C519.012 1276.85 517.622 1276.85 516.468 1276.76L516.3 1276.75L516.135 1276.72L483.425 1271.42L491.025 1542H672.28L683.585 1208.42C682.069 1220.73 679.644 1233.71 676.388 1246.78C666.683 1285.75 649.444 1326.06 626.275 1351.62L620.487 1358L619.347 1349.46C616.157 1325.56 616.173 1286.12 623.788 1246.99C630.357 1213.24 642.703 1179.08 664.108 1155.47C663.542 1153.62 663.231 1151.61 663.231 1149.51C663.231 1149.39 663.232 1149.28 663.234 1149.16C611.431 1136.27 580.112 1118.27 558.108 1098.37C546.233 1087.63 537.171 1076.43 529.125 1065.41C525.778 1060.82 522.67 1056.37 519.623 1051.99L519.621 1051.99L519.62 1051.99C515.219 1045.68 510.944 1039.54 506.258 1033.47L500.483 1026ZM483.022 1542L475.385 1270.12L462.214 1267.99L452.919 1542L472 1542L483.022 1542ZM688.777 1152.95C688.308 1155.75 687.281 1158.28 685.852 1160.34L689.701 1160.97L717.88 1165.53L768.192 1173.69C768.834 1173.73 769.484 1173.73 770.085 1173.7C769.486 1173.06 768.659 1172.29 767.543 1171.37C766.638 1170.63 764.981 1169.65 762.475 1168.47C760.026 1167.31 756.978 1166.07 753.449 1164.76C746.394 1162.15 737.608 1159.37 728.242 1156.63C722.565 1154.98 716.695 1153.34 710.897 1151.78C703.496 1152.67 696.112 1153.07 688.777 1152.95ZM851.361 1065.71C810.623 1108.86 760.379 1137.35 711.446 1143.65C703.717 1141.59 696.16 1139.66 689.389 1138C700.169 1124.13 714.737 1110.77 736.181 1099.06C762.319 1084.79 798.814 1072.91 851.361 1065.71ZM666.311 1138.86C665.797 1139.63 665.336 1140.46 664.939 1141.34C614.284 1128.71 584.282 1111.25 563.474 1092.43C552.16 1082.2 543.463 1071.48 535.586 1060.69C532.479 1056.44 529.437 1052.08 526.397 1047.72C523.719 1043.88 521.043 1040.05 518.324 1036.28C580.566 1046.32 629.369 1084.96 666.311 1138.86ZM668.418 1162.67C649.453 1184.6 637.939 1216.16 631.641 1248.52C625.109 1282.08 624.314 1315.85 626.286 1339.18C645.307 1314.89 659.956 1279.65 668.625 1244.85C673.386 1225.74 676.306 1206.9 677.171 1190.29C677.637 1181.34 677.503 1173.13 676.769 1165.91C676.563 1165.93 676.355 1165.93 676.146 1165.93C673.248 1165.93 670.573 1164.72 668.418 1162.67ZM456.581 1258.97L459.009 1259.37L479.93 1262.75L515.426 1268.5C514.778 1268.07 513.8 1267.53 512.437 1266.88C510.655 1266.05 508.422 1265.13 505.818 1264.17C500.612 1262.25 494.114 1260.19 487.171 1258.16C483.027 1256.95 478.743 1255.76 474.507 1254.62C468.969 1255.28 463.441 1255.56 457.948 1255.47C457.641 1256.74 457.176 1257.92 456.581 1258.97ZM475.056 1246.49C510.216 1241.91 546.369 1221.79 576.065 1191.16C538.713 1196.52 512.621 1205.13 493.846 1215.37C478.708 1223.63 468.238 1232.99 460.417 1242.73C464.98 1243.86 469.966 1245.13 475.056 1246.49ZM448.207 1264.05C446.611 1263.93 445.119 1263.31 443.827 1262.32C429.92 1278.38 421.415 1301.58 416.75 1325.53C412.164 1349.07 411.405 1372.75 412.584 1389.81C425.79 1372.05 436.031 1347.1 442.198 1322.36C445.719 1308.23 447.875 1294.33 448.513 1282.08C448.86 1275.43 448.754 1269.35 448.207 1264.05ZM440.822 1244.85C403.275 1235.51 381.133 1222.62 365.819 1208.78C357.492 1201.26 351.082 1193.37 345.255 1185.39C342.979 1182.28 340.73 1179.06 338.474 1175.83L338.474 1175.83C336.959 1173.66 335.441 1171.49 333.91 1169.34C378.7 1177.35 413.973 1205.6 440.822 1244.85ZM519.508 1268.64C519.511 1268.64 519.512 1268.64 519.511 1268.64L519.508 1268.64ZM692.906 1169.59L680.284 1542H723.693L713.335 1172.9L692.906 1169.59ZM771.994 1173.36C772 1173.35 772.004 1173.35 772.004 1173.35C772.004 1173.35 772.001 1173.35 771.994 1173.36ZM771.262 1175.28C771.262 1175.28 771.261 1175.27 771.26 1175.27C771.261 1175.27 771.262 1175.28 771.262 1175.28Z" fill="#EF8701"/>
<path fill-rule="evenodd" clip-rule="evenodd" d="M433.528 975.997L442.916 977.056C507.639 984.358 557.493 1022.86 594.368 1076.45C595.361 1076.12 596.405 1075.94 597.482 1075.94C599.276 1075.94 600.977 1076.44 602.505 1077.33C613.24 1063.1 627.86 1049.39 649.602 1037.52C676.66 1022.74 714.585 1010.91 769.487 1004.33L779.89 1003.08L772.966 1010.95C737.527 1051.19 693.034 1079.97 648.013 1090.4L648.083 1090.42C656.871 1092.99 665.234 1095.64 672.035 1098.15C675.435 1099.41 678.492 1100.65 681.04 1101.86C683.53 1103.03 685.759 1104.27 687.347 1105.56C689.873 1107.63 691.761 1109.61 692.76 1111.58C693.282 1112.61 693.669 1113.85 693.585 1115.22C693.496 1116.66 692.9 1117.89 692.032 1118.83C690.503 1120.47 688.333 1121.01 686.949 1121.23C685.375 1121.48 683.718 1121.48 682.325 1121.38L682.157 1121.36L681.992 1121.34L639.825 1114.5L649.514 1459.81L649.629 1463.92H645.515H604V1464L425.799 1464L425.799 1464H421.686H386.024H381.886L382.027 1459.87L389.291 1245.48C388.713 1248.21 388.079 1250.96 387.393 1253.72C380.67 1280.71 368.704 1308.77 352.516 1326.63L346.728 1333.01L345.588 1324.47C343.368 1307.83 343.384 1280.47 348.665 1253.32C353.271 1229.66 362.006 1205.5 377.357 1188.93C377.257 1188.4 377.186 1187.86 377.146 1187.3C341.031 1178.36 319.128 1165.81 303.711 1151.87C295.427 1144.38 289.115 1136.57 283.534 1128.92C281.186 1125.71 279.03 1122.61 276.925 1119.59C273.908 1115.26 270.996 1111.08 267.769 1106.9L261.996 1099.42L271.384 1100.48C319.725 1105.94 356.923 1134.65 384.399 1174.49L386.29 1174.92C387.17 1174.96 388.018 1175.15 388.817 1175.49C396.878 1164.76 407.867 1154.42 424.226 1145.49C444.466 1134.44 472.76 1125.63 513.605 1120.73L524.007 1119.49L517.083 1127.35C491.641 1156.24 459.882 1177.27 427.473 1185.75C432.684 1187.32 437.591 1188.92 441.733 1190.45C444.272 1191.39 446.572 1192.32 448.5 1193.23C450.37 1194.11 452.117 1195.07 453.395 1196.12C455.303 1197.68 456.84 1199.26 457.681 1200.92C458.124 1201.79 458.48 1202.9 458.403 1204.15C458.321 1205.47 457.771 1206.61 456.977 1207.46C455.597 1208.95 453.69 1209.39 452.609 1209.57C451.339 1209.77 450.024 1209.77 448.935 1209.68L448.768 1209.67L448.602 1209.64L418.525 1204.77L425.575 1456L593.613 1456L603.927 1151.63C602.516 1161.4 600.519 1171.54 597.98 1181.73C588.951 1217.99 572.908 1255.52 551.322 1279.34L545.533 1285.73L544.393 1277.18C541.424 1254.93 541.439 1218.22 548.525 1181.8C554.648 1150.34 566.172 1118.45 586.196 1096.43C585.729 1094.8 585.474 1093.04 585.474 1091.21L585.474 1091.17C537.235 1079.18 508.053 1062.41 487.545 1043.86C476.484 1033.85 468.046 1023.42 460.558 1013.17C457.437 1008.89 454.544 1004.74 451.71 1000.67C447.623 994.807 443.657 989.117 439.302 983.475L433.528 975.997ZM417.572 1456L410.486 1203.47L398.783 1201.57L390.162 1456H407V1456H417.572ZM609.177 1094.69C608.742 1097.06 607.872 1099.22 606.679 1101.03L610.131 1101.59L636.33 1105.83L683.096 1113.41C683.459 1113.44 683.825 1113.45 684.18 1113.44C683.685 1112.96 683.062 1112.39 682.283 1111.76C681.469 1111.09 679.952 1110.19 677.628 1109.09C675.362 1108.02 672.536 1106.87 669.259 1105.66C662.708 1103.23 654.546 1100.64 645.84 1098.1C640.582 1096.57 635.145 1095.05 629.772 1093.61C622.882 1094.43 616.007 1094.8 609.177 1094.69ZM759.64 1013.67C721.908 1053.42 675.502 1079.64 630.322 1085.47C623.312 1083.6 616.455 1081.86 610.282 1080.34C620.257 1067.59 633.71 1055.31 653.436 1044.54C677.568 1031.36 711.23 1020.37 759.64 1013.67ZM588.172 1081.56C587.809 1082.13 587.478 1082.73 587.181 1083.35C540.088 1071.61 512.224 1055.39 492.911 1037.92C482.412 1028.43 474.338 1018.48 467.02 1008.45C464.14 1004.5 461.315 1000.45 458.489 996.403L458.489 996.403L458.488 996.403L458.488 996.403L458.487 996.401C456.125 993.016 453.763 989.63 451.368 986.303C508.859 995.796 553.978 1031.63 588.172 1081.56ZM590.502 1103.64C572.921 1123.98 562.23 1153.26 556.378 1183.33C550.377 1214.17 549.589 1245.21 551.344 1266.85C568.78 1244.33 582.229 1211.88 590.217 1179.8C594.64 1162.04 597.351 1144.54 598.155 1129.12C598.588 1120.8 598.462 1113.17 597.78 1106.48C597.681 1106.48 597.582 1106.48 597.482 1106.48C594.879 1106.48 592.47 1105.43 590.502 1103.64ZM393.417 1192.6L395.579 1192.95L415.031 1196.1L446.573 1201.21C446.149 1200.98 445.656 1200.73 445.088 1200.47C443.442 1199.69 441.373 1198.85 438.956 1197.95C434.125 1196.16 428.091 1194.25 421.638 1192.37C417.804 1191.25 413.842 1190.14 409.923 1189.09C404.758 1189.69 399.601 1189.96 394.478 1189.87C394.22 1190.84 393.861 1191.76 393.417 1192.6ZM410.472 1180.95C442.844 1176.71 476.143 1158.26 503.6 1130.13C469.326 1135.13 445.344 1143.08 428.06 1152.51C414.195 1160.08 404.555 1168.66 397.334 1177.57C401.446 1178.59 405.913 1179.74 410.472 1180.95ZM385.205 1197.55C383.919 1197.4 382.712 1196.9 381.642 1196.13C368.754 1211.03 360.853 1232.57 356.518 1254.85C352.327 1276.39 351.578 1298.05 352.598 1313.85C364.626 1297.4 373.972 1274.51 379.63 1251.78C382.901 1238.65 384.902 1225.73 385.494 1214.35C385.818 1208.14 385.717 1202.48 385.205 1197.55ZM377.978 1179.27C343.537 1170.59 323.178 1158.69 309.077 1145.93C301.355 1138.95 295.408 1131.62 289.996 1124.21C287.888 1121.32 285.799 1118.33 283.703 1115.32C282.421 1113.48 281.137 1111.64 279.843 1109.82C320.845 1117.38 353.23 1143.28 377.978 1179.27ZM613.335 1110.21L601.62 1455.92H641.401L631.785 1113.2L613.335 1110.21ZM686.468 1113.14C686.475 1113.13 686.479 1113.13 686.479 1113.13C686.479 1113.13 686.476 1113.13 686.468 1113.14ZM685.655 1115.27C685.655 1115.27 685.654 1115.26 685.652 1115.26C685.654 1115.26 685.655 1115.27 685.655 1115.27Z" fill="white"/>
</g>
<defs>
<filter id="filter0_f_379_17" x="0.946777" y="0" width="874.635" height="1554" filterUnits="userSpaceOnUse" color-interpolation-filters="sRGB">
<feFlood flood-opacity="0" result="BackgroundImageFix"/>
<feBlend mode="normal" in="SourceGraphic" in2="BackgroundImageFix" result="shape"/>
<feGaussianBlur stdDeviation="2" result="effect1_foregroundBlur_379_17"/>
</filter>
</defs>
</svg>
