<svg width="162" height="175" viewBox="0 0 162 175" fill="none" xmlns="http://www.w3.org/2000/svg">
<ellipse cx="81.0877" cy="66.5502" rx="47.0379" ry="46.4789" fill="#DFDFDF" fill-opacity="0.8"/>
<path d="M109.346 103.874C96.3575 116.022 59.675 115.318 54.0585 106.339L47.5645 135.564C52.3033 143.311 72.7684 154.825 116.717 138.909C115.547 133.041 113.382 120.881 114.084 119.191C113.148 114.672 110.89 105.282 109.346 103.874Z" fill="url(#paint0_radial_363_344)"/>
<path d="M81.6234 20.625C89.6611 21.1875 94.0226 22.25 100.066 25C108.353 28.75 116.89 36.3125 121.002 43.5625C121.999 45.375 122.996 46.875 123.183 46.875C123.307 46.875 122.684 45.375 121.687 43.5625C119.008 38.625 109.662 29.4375 104.054 26.3125C96.3903 22.0625 90.658 20.5 81.9349 20.3125L74.458 20.125L81.6234 20.625Z" fill="black"/>
<path d="M68.1026 21.5629C59.4418 23.9379 50.8433 28.9379 45.7341 34.5629C42.7433 37.8754 38.8803 43.5004 38.2572 45.5004C38.0703 46.0629 38.6933 45.2504 39.6903 43.6879C47.1049 31.6254 57.0118 24.6254 71.031 21.5004C72.9003 21.1254 73.7726 20.7504 72.9003 20.7504C72.0279 20.6879 69.9095 21.1254 68.1026 21.5629Z" fill="black"/>
<path d="M77.76 21.6875C78.8192 21.8125 80.6884 21.8125 81.81 21.6875C82.8692 21.5625 81.9969 21.4375 79.7538 21.4375C77.5108 21.4375 76.6384 21.5625 77.76 21.6875Z" fill="black"/>
<path d="M68.5384 22.8752C66.6692 23.3752 62.4946 25.0627 59.2546 26.6252C54.4569 29.0002 52.4007 30.5002 48.2884 34.6252C45.4846 37.3752 42.8053 40.3752 42.4315 41.2502C41.8707 42.3127 42.1823 42.1252 43.3661 40.6252C50.4692 31.5002 60.8746 24.9377 71.5915 22.8127C73.8346 22.3752 74.8938 22.0002 73.8346 22.0002C72.8377 21.9377 70.4077 22.3752 68.5384 22.8752Z" fill="black"/>
<path d="M87.1061 22.5631C93.96 23.6881 102.621 27.5006 107.917 31.6256C109.35 32.7506 109.163 32.5006 107.481 30.9381C102.995 26.8131 90.6577 21.7506 85.6107 21.9381C84.4892 22.0006 85.1123 22.2506 87.1061 22.5631Z" fill="black"/>
<path d="M75.0809 23.8125C66.4201 24.6875 57.3855 28.875 51.2171 34.8125L47.6655 38.25L51.6532 34.8125C63.8655 24.0625 81.4986 21.375 97.3248 27.75C101.936 29.625 102.06 29.1875 97.4494 27.125C90.9071 24.25 82.8071 23 75.0809 23.8125Z" fill="black"/>
<path d="M123.431 47.5003C123.369 47.6878 124.055 49.5003 124.927 51.5628C125.737 53.6253 126.485 54.8753 126.485 54.3753C126.485 53.5003 123.494 46.8128 123.431 47.5003Z" fill="black"/>
<path d="M127.606 65.3131C127.731 69.4381 127.918 73.0631 128.042 73.4381C128.478 74.6881 128.229 61.5006 127.793 59.6881C127.544 58.6256 127.419 61.1881 127.606 65.3131Z" fill="black"/>
<path d="M33.7708 67.1877C33.5216 79.6877 38.257 90.7502 48.0393 100.75L53.3354 106.188L52.5254 109.188C51.4039 113.5 47.3539 134.125 47.3539 135.438C47.4162 137.688 48.4131 134.75 50.0954 127.5C52.027 119.25 53.5847 114.125 54.0208 114.625C54.2077 114.75 53.8339 116.375 53.2731 118.063C52.7124 119.813 52.3385 121.625 52.4631 122C52.6501 122.438 53.0862 121.375 53.5224 119.688C54.0208 117.688 54.457 116.875 54.7685 117.438C55.1424 118 55.3916 117.813 55.7031 116.75C56.0147 115.563 56.2016 115.5 56.7001 116.25C57.1985 117.063 57.3231 117 57.3231 116.063C57.3231 114.813 55.7654 114.625 55.2047 115.75C55.0177 116.188 54.9554 116 55.0177 115.313C55.1424 114.563 55.5785 114.188 56.1393 114.313C56.6377 114.438 57.9462 114.688 59.0677 114.875C61.6224 115.188 61.6224 115.938 59.0677 116.813C58.0085 117.188 57.2608 117.625 57.4477 117.813C57.6347 118 58.9431 117.625 60.4385 116.938C63.0554 115.75 65.1739 115.813 64.4262 116.938C64.2393 117.25 63.9277 117.438 63.6785 117.313C63.4293 117.188 62.7439 117.563 62.1831 118.25C61.0616 119.375 61.4977 119.875 62.6816 118.813C62.9931 118.5 63.8031 118.125 64.4885 118C65.1739 117.938 66.1085 117.438 66.6693 117.063C67.1677 116.625 68.1647 115.813 68.85 115.313C70.0962 114.313 70.0962 114.313 68.7877 114.938C68.1024 115.25 67.1677 115.313 66.7316 115.063C65.4854 114.25 73.4608 113.063 76.0154 113.625C78.4454 114.188 84.6139 114.063 87.0439 113.438C88.0408 113.188 88.4147 113.313 88.1654 113.75C87.9162 114.125 88.4147 114.375 89.4116 114.375C90.2839 114.375 91.1562 113.938 91.3431 113.438C91.5924 112.938 92.1531 112.5 92.6516 112.5C93.3993 112.5 93.3993 112.625 92.5893 113.5C91.0939 114.938 91.4054 115.188 93.15 114C94.0224 113.438 94.7077 113.188 94.7077 113.438C94.7077 113.688 95.0816 113.563 95.58 113.188C96.2031 112.625 96.5147 112.688 96.7639 113.313C97.2 114.438 94.957 115.813 92.2777 116.125C90.72 116.313 90.3462 116.125 90.6577 115.5C91.0316 114.875 90.9693 114.813 90.2839 115.438C89.7854 115.938 87.7293 116.25 85.1747 116.25C82.7447 116.25 81.0624 116.5 81.2493 116.813C81.4985 117.125 81.2493 117.563 80.8754 117.688C80.4393 117.875 83.7416 118.063 88.1654 118.125C92.6516 118.188 96.9508 118.313 97.8231 118.313C98.6954 118.375 99.6301 118.125 99.8793 117.813C100.191 117.438 100.315 117.563 100.129 118.125C99.9416 118.875 98.6954 119.063 94.4585 119.125C88.9754 119.25 85.9847 120 91.0316 120C93.7108 120.063 93.7731 120.063 92.2154 120.938C91.3431 121.438 90.9693 121.813 91.3431 121.875C91.6547 121.875 92.527 121.438 93.2124 120.938C93.8354 120.438 95.6424 120.063 97.2 120.063C99.63 120.063 99.817 120.125 98.7577 120.75C98.0724 121.188 97.1377 121.875 96.7016 122.313C96.2654 122.75 95.58 123.125 95.2062 123.125C94.8324 123.125 94.6454 123.313 94.8947 123.5C95.0816 123.75 96.2031 123.313 97.3247 122.625C98.4462 121.938 99.7547 121.563 100.191 121.688C101.312 122.125 101.125 123.75 99.8793 124.188C99.3185 124.438 98.3839 125.063 97.8231 125.563C97.2624 126.125 96.2654 126.875 95.58 127.313C94.4585 128 94.4585 128 95.767 127.688C96.5147 127.5 97.5739 126.813 98.197 126.188C98.7577 125.563 99.7547 125 100.378 125C100.939 125 101.562 124.688 101.686 124.375C101.811 124 102.185 124.25 102.621 124.875C103.244 125.938 102.995 126.313 100.565 127.813C99.007 128.813 97.6362 129.813 97.4493 130.125C97.2624 130.438 98.5708 129.75 100.378 128.625C102.496 127.375 103.742 126.875 103.929 127.375C104.303 128.563 103.992 129 100.689 131.125C96.7639 133.625 97.5116 133.813 101.562 131.313C104.365 129.563 104.615 129.563 105.487 130.5C106.982 132.25 107.855 134.375 107.419 135.125C107.169 135.5 107.232 135.625 107.668 135.375C108.353 134.938 109.35 137.125 108.789 138C108.665 138.25 109.039 138.563 109.724 138.563C111.095 138.688 111.219 137.688 109.973 136C109.475 135.375 109.225 134.563 109.412 134.313C109.599 134 109.475 133.75 109.163 133.75C108.852 133.75 108.104 132.563 107.481 131.063C106.92 129.625 105.736 127.125 104.926 125.438C104.116 123.813 103.68 122.5 104.054 122.5C104.365 122.5 105.612 124.438 106.733 126.875C107.917 129.25 109.039 131 109.225 130.813C109.412 130.625 109.163 129.813 108.602 129C107.419 127.188 108.166 126.063 109.35 127.75C110.16 128.875 110.222 128.813 110.659 127.25C111.095 125.313 111.905 125.125 112.341 126.813C112.528 127.625 112.154 128.438 111.282 129.063L109.973 130.063L111.406 129.375C112.154 129 112.777 128.938 112.777 129.188C112.777 129.438 113.089 129.25 113.4 128.75C113.899 127.938 114.023 128 114.023 128.938C114.023 129.625 113.151 130.938 112.092 131.938C110.16 133.75 111.344 133.875 113.4 132.125C114.397 131.25 114.584 131.563 116.266 138.438C116.702 140.188 116.765 140.25 117.014 138.813C117.201 137.625 117.388 137.5 117.886 138.188C118.385 138.875 118.447 138.813 118.135 137.938C117.949 137.313 117.762 136.188 117.699 135.438C117.637 134.188 117.575 134.188 117.076 135.625C116.702 136.75 116.64 136.375 116.827 134.063C117.014 131.688 116.952 131.25 116.515 132.188C116.017 133.125 115.955 132.875 116.204 130.938C116.453 129 116.391 128.688 115.892 129.375C115.332 130.125 115.269 130.063 115.581 129C116.142 126.813 113.026 110.188 111.157 105.688L110.222 103.625L114.21 99.7502C116.391 97.6252 119.07 94.5627 120.192 92.9377C122.435 89.6252 125.55 83.1877 125.052 82.7502C124.927 82.5627 124.304 83.6252 123.681 85.1252C121.313 91.1877 115.519 98.3127 108.665 103.563C106.048 105.625 99.6924 108.938 99.2562 108.5C99.007 108.313 98.4462 108.5 97.8854 109C96.8885 109.875 94.0847 110.938 94.0847 110.438C94.0847 110.313 95.6424 109.125 97.5116 107.813C99.4431 106.5 100.876 105.313 100.689 105.188C100.565 105 98.5708 106.375 96.2654 108.125C93.2124 110.5 91.717 111.313 90.5954 111.063C89.7854 110.938 89.287 111 89.4116 111.313C90.2216 112.5 74.8316 112.75 66.9185 111.625C61.4354 110.813 51.7154 104.563 46.6062 98.6252C38.6308 89.2502 35.2039 80.8127 34.2693 68.4377L33.8331 62.1877L33.7708 67.1877ZM109.412 108.25C109.35 108.688 109.101 109.438 108.852 109.813C108.229 110.813 109.163 110.875 110.16 109.875C110.721 109.313 110.908 109.313 110.908 109.875C110.908 110.563 103.555 115 102.434 115C102.122 115 103.057 114.188 104.552 113.188C106.609 111.813 107.045 111.313 106.235 111C105.674 110.813 105.362 110.875 105.549 111.188C106.11 112.063 100.129 115.625 98.1347 115.625C96.7639 115.625 96.577 115.438 97.1377 114.813C97.5116 114.313 97.6362 113.75 97.387 113.5C97.1377 113.25 97.3247 112.813 97.8231 112.5C99.3185 111.563 100.066 111.813 98.6954 112.813C96.7639 114.25 98.0724 113.875 101.873 111.875C104.552 110.438 105.674 110.188 106.546 110.625C107.917 111.375 108.415 111.438 108.353 110.75C108.291 110.5 108.353 110.125 108.415 109.813C108.478 109.563 108.665 109.063 108.727 108.75C108.789 108.375 108.914 108 108.976 107.813C109.101 107.125 109.537 107.563 109.412 108.25ZM55.1424 109.313C54.9554 109.688 55.3293 110.188 55.8901 110.563C56.5131 110.938 56.7624 111.188 56.3885 111.25C55.2047 111.25 54.0208 110.125 54.457 109.438C54.7062 109.063 55.0177 108.75 55.2047 108.75C55.3916 108.75 55.3916 109 55.1424 109.313ZM59.1301 111.313C58.6316 111.625 58.0085 111.875 57.6347 111.875C57.3231 111.875 57.3854 111.625 57.8839 111.313C58.5693 110.875 58.4447 110.688 57.3854 110.313C56.7001 110.125 56.077 109.688 56.077 109.375C56.077 109.063 56.9493 109.313 58.0085 109.813C59.4416 110.563 59.7531 110.938 59.1301 111.313ZM60.4385 112.75C60.4385 113.25 60.8124 113.813 61.2485 114C61.6224 114.188 61.1862 114.188 60.127 113.938C59.1301 113.75 58.0085 113.313 57.6347 112.938C57.1985 112.563 57.4477 112.438 58.4447 112.688C59.1924 112.875 59.6908 112.75 59.4416 112.438C59.2547 112.125 59.4416 111.875 59.7531 111.875C60.127 111.875 60.4385 112.25 60.4385 112.75ZM65.2985 113.438C64.2393 114.313 62.3077 114.938 62.3077 114.375C62.3077 114.063 62.7439 113.75 63.2424 113.75C63.7408 113.75 64.177 113.438 64.177 113.063C64.177 112.75 64.4885 112.625 64.8624 112.813C65.2362 113.063 65.4231 113.313 65.2985 113.438ZM106.546 119.5C106.546 120.125 106.858 120.625 107.169 120.625C108.042 120.625 107.979 118.563 107.045 117.625C106.484 117.063 106.484 116.875 107.045 116.875C108.291 116.875 108.665 119.938 107.543 121.188C106.359 122.5 106.235 124.625 107.356 124.188C107.73 124.063 108.042 123.5 107.917 122.875C107.792 122.313 108.042 121.875 108.415 121.875C108.789 121.875 108.976 122.125 108.727 122.438C108.54 122.75 108.665 123.188 109.039 123.438C109.35 123.625 109.662 124.313 109.599 124.875C109.599 125.563 109.412 125.625 109.225 125.125C109.101 124.75 108.665 124.375 108.291 124.375C107.917 124.375 107.792 124.813 108.042 125.313C108.229 125.813 108.104 126.25 107.73 126.25C106.795 126.25 105.3 122.25 106.048 121.813C106.422 121.563 106.297 120.813 105.612 119.813C105.051 118.875 104.739 117.875 104.989 117.438C105.549 116.563 106.546 117.875 106.546 119.5ZM104.864 120.063C105.113 121.063 105.051 121.188 104.303 120.563C103.306 119.75 103.119 118.75 103.992 118.75C104.303 118.75 104.677 119.313 104.864 120.063ZM110.908 120.75C110.908 121.063 110.659 121.25 110.285 121.25C109.973 121.25 109.662 120.625 109.662 119.813C109.662 118.688 109.786 118.625 110.285 119.375C110.596 119.875 110.908 120.5 110.908 120.75ZM113.026 121.5C112.59 123.25 111.531 123.75 111.531 122.188C111.531 121.688 111.842 121.25 112.154 121.25C112.528 121.25 112.777 120.75 112.777 120.188C112.777 119.625 112.902 119.313 113.089 119.5C113.338 119.688 113.275 120.563 113.026 121.5ZM111.531 124.188C111.531 124.625 111.282 125 110.908 125C110.596 125 110.285 124.25 110.285 123.25C110.285 121.938 110.409 121.75 110.908 122.5C111.219 123 111.531 123.813 111.531 124.188ZM113.525 125.375C113.275 126.813 113.151 126.875 112.59 125.938C112.092 125.063 112.715 123.938 113.774 123.75C113.836 123.75 113.712 124.5 113.525 125.375Z" fill="black"/>
<path d="M123.494 71.2508C123.494 72.4383 123.619 72.9383 123.805 72.3133C123.93 71.7508 123.93 70.7508 123.805 70.1258C123.619 69.5633 123.494 70.0633 123.494 71.2508Z" fill="black"/>
<path d="M125.363 72.5008C125.363 73.6883 125.488 74.1883 125.675 73.5633C125.799 73.0008 125.799 72.0008 125.675 71.3758C125.488 70.8133 125.363 71.3133 125.363 72.5008Z" fill="black"/>
<path d="M67.6039 75.4383C65.6723 75.8758 62.9931 76.9383 58.5069 79.0633C56.2015 80.1883 53.5223 81.3133 52.5877 81.5633C51.5908 81.8133 51.0923 82.1258 51.4662 82.3133C52.1515 82.5633 55.5785 81.3133 61.1239 78.8758C67.6662 76.0008 68.2269 75.8758 67.5415 77.0008C67.1677 77.6258 67.2923 77.6258 67.9777 77.0008C68.4139 76.6258 69.3485 76.2508 70.0962 76.2508C71.0931 76.2508 71.1554 76.1258 70.4077 75.6258C69.9092 75.3133 69.3485 75.0633 69.1615 75.0633C68.9746 75.1258 68.2892 75.2508 67.6039 75.4383Z" fill="black"/>
<path d="M120.004 76.9377C119.506 79.5627 120.004 80.0627 120.565 77.5002C120.814 76.4377 120.877 75.3752 120.69 75.2502C120.565 75.0627 120.254 75.8752 120.004 76.9377Z" fill="black"/>
<path d="M120.939 82.3131C119.506 86.3131 116.079 91.5006 112.777 94.6256C111.032 96.3131 109.661 97.7506 109.786 97.8756C110.222 98.2506 115.954 92.3131 117.824 89.5631C119.88 86.6256 122.247 81.3756 121.998 80.5006C121.874 80.1881 121.375 81.0006 120.939 82.3131Z" fill="black"/>
<path d="M45.4846 83.125C45.4846 84.4375 52.7746 94.375 53.7092 94.375C54.0831 94.375 53.2731 93.1875 51.9646 91.6875C49.2231 88.75 46.4192 84.5 46.9177 84C47.0423 83.875 47.8523 83.5625 48.6 83.4375C51.0923 82.9375 50.7808 82.5 48.1015 82.6875C46.6685 82.75 45.4846 82.9375 45.4846 83.125Z" fill="black"/>
<path d="M116.64 85.5C115.83 86.75 114.771 88.4375 114.272 89.1875C113.711 90 113.4 90.625 113.649 90.625C114.21 90.625 118.634 83.75 118.26 83.4375C118.135 83.25 117.388 84.1875 116.64 85.5Z" fill="black"/>
<path d="M41.123 84.6259C41.123 84.9384 42.12 87.0009 43.3661 89.1884C45.6092 93.2509 51.0923 99.3134 53.7092 100.688C54.5192 101.063 54.0207 100.376 52.65 99.1884C51.2792 97.9384 50.033 96.9384 49.8461 96.8759C49.223 96.8759 44.8615 90.8134 42.9923 87.3759C41.9954 85.5634 41.123 84.3134 41.123 84.6259Z" fill="black"/>
<path d="M42.1826 91.3129C42.8057 92.3754 44.8618 94.8754 46.731 96.8754C48.6003 98.8129 49.0364 99.1254 47.6033 97.5004C46.1703 95.9379 44.2387 93.4379 43.3041 92.0004C41.3103 88.9379 40.5626 88.5004 42.1826 91.3129Z" fill="black"/>
<path d="M48.5376 92.3751C49.5968 93.7501 50.9053 95.1876 51.5284 95.6876C52.1514 96.1876 51.4037 95.0626 49.9084 93.2501C46.7307 89.5001 45.6714 88.8126 48.5376 92.3751Z" fill="black"/>
<path d="M100.565 107L99.3809 108.312L101.125 107.188C102.87 106.062 103.182 105.625 102.309 105.625C101.998 105.625 101.25 106.25 100.565 107Z" fill="black"/>
<path d="M66.3576 118.751C65.9214 120.063 64.7376 120.501 65.0491 119.188C65.1114 118.813 65.1114 118.626 64.9868 118.938C64.7999 119.188 64.426 119.251 64.1145 119.063C63.803 118.813 63.7407 119.063 63.8653 119.501C64.1145 120.063 63.2422 120.938 61.6845 121.813C58.8184 123.376 58.2576 124.251 60.9991 122.876L62.806 121.938L62.6191 124.813C62.4945 126.376 62.0584 128.001 61.6222 128.376C60.8745 129.063 60.8745 128.876 61.996 126.063C62.5568 124.751 61.6845 124.688 60.0645 125.938C59.0676 126.751 59.0676 126.813 60.0022 126.501C61.3107 126.001 61.373 126.813 60.1268 128.563C59.2545 129.813 59.2545 129.938 60.4384 129.813C61.1237 129.751 61.6845 129.501 61.6845 129.251C61.6845 129.001 62.806 128.188 64.1768 127.501C65.5476 126.813 66.6691 126.063 66.6691 125.938C66.6691 125.751 65.8591 126.001 64.7999 126.563C62.3076 127.876 62.3699 126.688 64.8622 124.313C66.046 123.251 66.3576 122.688 65.6722 122.938C64.7376 123.313 64.7999 122.876 66.233 120.438C67.1676 118.813 67.666 117.501 67.3545 117.501C67.043 117.501 66.5445 118.063 66.3576 118.751ZM64.4884 122.563C63.9276 123.626 63.3045 124.313 63.1176 124.126C62.7437 123.751 64.5507 120.626 65.1114 120.626C65.2984 120.626 64.9868 121.501 64.4884 122.563Z" fill="black"/>
<path d="M55.9524 125.063C54.6439 125.75 53.5847 126.438 53.5847 126.563C53.5847 126.75 54.7063 126.313 56.077 125.625C57.4478 124.938 58.5693 124.188 58.5693 124.063C58.5693 123.625 58.5693 123.625 55.9524 125.063Z" fill="black"/>
<path d="M60.6878 131.188C60.8747 131.501 60.1893 132.063 59.1924 132.501C58.1332 132.938 57.3855 133.438 57.5724 133.563C57.697 133.688 58.8809 133.313 60.127 132.626C61.9962 131.688 62.2455 131.376 61.4355 131.063C60.8747 130.813 60.5009 130.876 60.6878 131.188Z" fill="black"/>
<path d="M104.179 133.376C102.06 134.563 101.686 135.126 103.431 134.501C104.303 134.188 105.362 134.001 105.799 134.126C106.235 134.188 106.297 134.126 105.923 133.938C105.612 133.813 105.425 133.376 105.674 133.063C106.048 132.376 105.985 132.376 104.179 133.376Z" fill="black"/>
<path d="M113.4 135.313C112.528 136.313 113.213 136.563 114.584 135.688C115.082 135.375 115.145 135 114.771 134.75C114.459 134.563 113.836 134.813 113.4 135.313Z" fill="black"/>
<path d="M120.658 59C118.658 40 98.9915 30 87.6582 29C80.1582 32.5 100.158 36 106.658 42.9997C114.688 51.6466 123.487 85.8701 120.658 59Z" fill="#F2F2F2"/>
<path d="M70.339 44.765C70.1285 45.774 70.2922 45.821 70.5963 44.8354C70.7367 44.3896 70.7835 44.0141 70.6665 44.0141C70.5729 44.0141 70.4326 44.3426 70.339 44.765Z" fill="black"/>
<path d="M63.2042 45.5387C63.4147 45.7968 63.6487 46.1723 63.7188 46.36C63.8358 46.6651 63.8592 46.6651 63.8592 46.3365C63.8826 46.1253 63.6487 45.7734 63.3679 45.5152C62.8299 45.0694 62.8299 45.0694 63.2042 45.5387Z" fill="black"/>
<path d="M70.1988 46.5714C70.1988 46.6887 70.3859 46.853 70.6198 46.9234C70.8772 47.0173 71.1345 47.4866 71.3216 48.1671C71.4854 48.8006 71.6959 49.5985 71.7895 49.9974C71.9299 50.5371 72.117 50.6779 72.4913 50.6544C72.889 50.6075 73.0293 50.7952 73.2867 51.7103C73.5674 52.649 73.6844 52.8132 74.1288 52.7428C74.5733 52.6724 74.6435 52.7663 74.6435 53.4937C74.6435 54.2681 74.6669 54.315 75.2049 54.1038C75.743 53.9161 75.7664 53.963 75.8599 54.8782C75.9301 55.5821 75.8599 55.9341 75.6026 56.1453C75.3453 56.333 75.1815 56.333 75.088 56.1688C74.9944 56.0045 74.8306 56.0984 74.6903 56.38C74.4095 56.8962 72.7252 57.5298 72.3042 57.2717C72.1638 57.1778 71.9533 56.8493 71.8363 56.5677C71.6491 56.0749 71.5556 56.028 70.8538 56.2392C69.8245 56.5208 69.8479 56.5208 69.5438 55.8637C69.3566 55.4413 69.0759 55.2771 68.6314 55.2771C68.1168 55.2536 67.8361 55.0424 67.298 54.1977C66.8769 53.4937 66.6898 52.9775 66.7834 52.6255C66.8769 52.25 66.76 51.945 66.4325 51.6634C65.988 51.288 65.988 51.2176 66.3155 50.7248C66.643 50.2086 66.6196 50.1382 66.1283 49.6689C65.8242 49.3873 65.4032 48.7537 65.1692 48.2375C64.9353 47.7212 64.561 47.2754 64.2569 47.205L63.7656 47.0877L64.2569 47.4866C64.5376 47.6978 64.8417 48.1201 64.9353 48.4252C65.0055 48.7068 65.333 49.2465 65.6605 49.6219C66.0114 50.0443 66.1283 50.3728 65.988 50.4667C65.6605 50.6779 65.7073 51.4288 66.0582 51.8042C66.5026 52.2266 66.7132 53.7518 66.3857 54.0804C66.0348 54.4323 65.7541 54.4089 65.7541 53.9865C65.7541 53.7988 65.5435 53.5406 65.2862 53.3999C65.0289 53.2591 64.8183 52.954 64.8183 52.7194C64.8183 52.3908 64.7014 52.297 64.3739 52.3908C64.0931 52.4612 63.8124 52.3204 63.5551 51.9685C63.3446 51.6634 63.1808 51.5461 63.1808 51.6869C63.1808 52.0623 63.8592 52.6959 64.2569 52.6959C64.444 52.6959 64.5844 52.8602 64.5844 53.0713C64.5844 53.2825 64.7949 53.4937 65.0523 53.5641C65.3564 53.6345 65.5201 53.8926 65.5201 54.2446C65.5201 54.8782 65.5903 54.9251 66.1985 54.5262C66.7366 54.1977 67.3916 54.4323 67.5553 55.0424C67.6489 55.371 67.8828 55.5117 68.3507 55.5117C68.842 55.5117 69.0993 55.676 69.38 56.1922C69.7075 56.8258 69.7777 56.8727 70.4795 56.6616C71.1579 56.4738 71.2982 56.5208 71.7427 57.1074C72.2106 57.6706 72.234 57.7879 71.9299 58.1164C71.7427 58.3276 71.5556 58.7265 71.4854 59.0081C71.4386 59.2662 71.3216 59.6182 71.2515 59.7355C71.0643 60.0171 69.9648 59.3131 69.9648 58.9142C69.9648 58.75 69.7075 58.5623 69.38 58.5153C69.0759 58.4449 68.8654 58.4919 68.9355 58.5857C69.0057 58.703 69.2163 58.7969 69.4034 58.7969C69.5905 58.7969 69.7309 59.0081 69.7309 59.2662C69.7309 59.5243 69.8947 59.7355 70.0818 59.7355C70.2923 59.7355 70.5029 59.8998 70.5731 60.0875C70.7602 60.5334 69.3098 63.0676 68.9823 62.8564C68.7952 62.7626 68.7718 62.8564 68.8654 63.1145C69.1929 63.9358 67.8828 63.7716 66.9705 62.8799C66.7366 62.6452 66.5494 62.6218 66.0816 62.833C65.5669 63.0676 65.4265 63.0442 65.1692 62.7156C64.9353 62.3637 64.8417 62.3637 64.444 62.6687C63.8124 63.138 63.5551 63.0911 63.2978 62.481C63.1574 62.1994 62.7129 61.8005 62.3152 61.6128C61.8942 61.425 61.5433 61.0965 61.5433 60.8853C61.5433 60.6741 61.3327 60.4395 61.0754 60.3691C60.5374 60.2283 60.4906 59.6182 60.9584 58.7969C61.4497 57.9522 61.4029 57.8583 60.6075 57.9991C59.9759 58.1399 59.9057 58.0929 59.9057 57.5767C59.9057 57.2482 59.6484 56.7085 59.3209 56.3565C58.9934 56.0045 58.7361 55.8637 58.7361 56.028C58.7361 56.1922 58.9466 56.4738 59.2039 56.6381C59.5081 56.8258 59.6718 57.1778 59.6718 57.6236C59.6718 58.2103 59.7654 58.3276 60.2566 58.3276C60.7713 58.3276 60.8181 58.3745 60.5841 58.8908C60.2566 59.5947 60.4906 60.6741 60.9584 60.6741C61.169 60.6741 61.2392 60.8149 61.169 61.0261C61.0754 61.2608 61.2392 61.4485 61.6836 61.6362C62.596 61.9647 63.1808 62.5279 63.1808 63.0676C63.1808 63.3023 63.3446 63.49 63.5317 63.49C63.9762 63.49 63.9762 63.9124 63.5317 65.0152C63.2276 65.7192 63.0872 65.8131 62.8299 65.6019C62.5726 65.3907 62.362 65.4376 61.8708 65.8131L61.2392 66.3058L60.7947 65.8365C60.3736 65.3672 60.3268 65.3672 59.6718 65.7661C59.2975 65.9773 59.0168 66.212 59.0636 66.2589C59.1338 66.3058 59.4145 66.1651 59.742 65.9539C60.3034 65.6019 60.3502 65.6019 60.7011 66.1181C61.0754 66.6578 61.0988 66.6578 61.8006 66.2354C62.3854 65.9069 62.596 65.8835 62.8767 66.1181C63.1574 66.3528 63.2978 66.3293 63.5785 65.9539C63.7422 65.6957 63.9528 65.2264 64.023 64.8979C64.2803 63.6543 64.561 63.2084 65.0289 63.3727C65.2628 63.4431 65.7541 63.3727 66.105 63.2084C66.643 62.9738 66.76 62.9738 66.9471 63.3257C67.0875 63.5369 67.3214 63.7246 67.4852 63.7246C67.6489 63.7246 67.9998 63.9358 68.2571 64.1705C68.5378 64.4286 68.8186 64.5694 68.9355 64.4755C69.0291 64.3817 69.0291 64.4521 68.9355 64.6163C68.842 64.7806 68.6782 64.851 68.5612 64.7806C68.4443 64.7102 68.2805 64.9918 68.2103 65.4142C68.1168 65.8365 67.8127 66.4936 67.5553 66.8456C67.1343 67.4791 67.1109 67.573 67.4618 68.3004C67.7659 68.9574 67.7893 69.1452 67.4852 69.7083C67.0875 70.4827 67.0875 70.4592 67.4852 70.6C67.6957 70.6939 67.7659 70.6 67.6957 70.295C67.6255 70.0603 67.6957 69.8022 67.8361 69.7318C67.9998 69.6145 68.0934 69.8022 68.0934 70.2246C68.1168 70.5766 68.2571 71.2805 68.4443 71.7968C68.7484 72.6415 68.725 72.7354 68.1869 73.2751C67.7425 73.7209 67.5319 73.7913 67.181 73.6036C66.8301 73.3924 66.6664 73.4628 66.3389 73.9556C65.9646 74.5422 65.9646 74.8473 66.3389 75.739C66.4559 76.0205 66.2921 76.2317 65.7774 76.5133C64.9353 76.9357 64.5844 76.8184 64.5844 76.1379C64.5844 75.739 64.5142 75.7155 64.0697 75.9501C63.2978 76.3491 62.2451 77.3815 62.2451 77.7335C62.2451 77.9212 61.941 78.0386 61.3795 78.0386C60.2333 78.0386 59.9993 78.2263 59.859 79.118C59.7888 79.6577 59.8356 79.8454 60.0461 79.7515C60.2099 79.7046 60.3034 79.5169 60.2333 79.3761C60.0227 78.7895 60.5841 78.414 61.7538 78.3671C63.1808 78.2967 63.3679 78.2028 63.8124 77.1234C64.1633 76.3491 64.1867 76.3256 64.3972 76.7714C64.5142 77.0296 64.9821 77.3815 65.4032 77.5458C66.105 77.8039 66.2453 77.7804 66.7366 77.2642C67.0407 76.9592 67.4618 76.6541 67.6489 76.5837C67.9296 76.4898 67.9062 76.3491 67.5553 75.739L67.1343 75.0115L67.7893 74.683C69.2163 73.9556 69.38 73.979 70.035 74.9646C70.3859 75.4808 70.5965 76.0675 70.5263 76.2787C70.4561 76.4664 70.5029 76.6306 70.6666 76.6306C70.807 76.6306 70.8538 76.5133 70.7602 76.3491C70.6666 76.1848 70.69 76.1613 70.8772 76.2552C71.0175 76.3491 71.0877 76.5133 71.0175 76.6306C70.9474 76.7245 71.1579 76.9826 71.462 77.1703C71.8597 77.4519 71.9767 77.6866 71.9065 78.1324C71.8129 78.5313 72 78.9772 72.5147 79.6107C73.006 80.2443 73.1931 80.6667 73.0995 81.0421C72.9592 81.488 73.0293 81.5584 73.6844 81.5584C74.2458 81.5584 74.4095 81.6522 74.4095 82.0277C74.4095 82.2858 74.5499 82.497 74.7371 82.497C74.9476 82.497 75.0178 82.6613 74.9476 82.9663C74.854 83.3652 74.9476 83.4356 75.5324 83.4356C76.281 83.4356 76.5149 83.7641 76.5149 84.8435C76.5149 85.7352 76.3044 86.2515 75.9301 86.2515C75.743 86.2515 75.5324 86.3453 75.4622 86.4861C75.3687 86.6269 75.509 86.6504 75.8599 86.5096C76.5149 86.2749 77.0296 84.8905 76.8191 83.9049C76.7489 83.506 76.4214 82.9898 76.0705 82.7316C74.971 81.9104 74.8774 81.7696 74.8774 81.2533C74.8774 80.7136 74.1288 79.8689 73.427 79.6107C73.1931 79.5404 73.006 79.2353 73.006 78.9772C73.006 78.4375 73.2399 78.5079 74.082 79.2588C74.3394 79.4934 74.7604 79.7281 75.0178 79.775C75.9535 79.9627 77.17 80.6902 77.053 80.9952C76.9594 81.2533 77.0764 81.2768 77.6846 81.0656C78.3864 80.8075 80.8427 80.9013 81.1234 81.1829C81.1936 81.2533 81.0766 81.7226 80.8895 82.2154C80.562 83.0602 80.562 83.154 80.9129 83.5295C81.2638 83.8815 81.2638 83.9753 80.7257 84.9609C80.1877 85.9464 80.1877 86.0168 80.562 86.4392C81.0766 87.0024 81.0532 87.1901 80.4918 87.1901C80.2579 87.1901 79.6964 87.4951 79.2519 87.894C78.6905 88.3634 78.3864 88.5041 78.2226 88.3399C78.0823 88.1991 77.7314 88.1287 77.4273 88.1756C76.9126 88.246 76.8658 88.3399 76.9126 89.3724C76.9828 90.4283 76.9594 90.4752 76.4214 90.3344C75.7664 90.1702 75.4622 90.5691 75.5558 91.4608C75.626 92.2117 74.9476 92.7279 73.4504 93.0564L72.4211 93.2676L73.4504 93.1738C74.6903 93.0799 75.6728 92.3994 75.7664 91.625C75.8131 91.32 75.8833 90.8976 75.9535 90.7099C76.0471 90.4283 76.0939 90.4283 76.281 90.7099C76.4448 90.9915 76.5617 90.968 76.9594 90.616C77.3337 90.2641 77.3805 90.0998 77.17 89.4897C77.0062 89.0204 77.0062 88.7153 77.17 88.5511C77.5676 88.1522 78.1291 88.5041 78.2694 89.2316C78.363 89.5836 78.5735 90.1702 78.7607 90.5222C79.0648 91.0853 79.0648 91.2261 78.7373 91.7424C78.3396 92.3525 78.48 92.9156 79.1818 93.5023C79.4859 93.7604 79.4625 93.8777 79.135 94.4644C78.9244 94.8398 78.5268 95.1918 78.2928 95.2153C78.0355 95.2622 77.8016 95.403 77.7548 95.5672C77.5676 96.1304 78.9712 95.1918 79.4157 94.4644C79.7666 93.8308 79.79 93.69 79.5093 93.4554C78.6671 92.7514 78.5969 92.4463 79.0882 91.8128C79.5561 91.2261 79.5561 91.2261 79.0882 90.4283C78.6437 89.654 78.6437 89.607 79.0414 88.8092C79.3221 88.3164 79.8368 87.8236 80.4684 87.5186L81.4509 87.0493L80.9597 86.4157L80.4684 85.7822L80.9363 85.1721C81.4743 84.4916 81.5679 83.6703 81.1702 83.2714C80.7725 82.8724 81.7784 80.7606 82.2697 80.9483C82.4568 81.0187 82.8311 81.0891 83.0884 81.0891C83.4159 81.0891 83.5329 81.2768 83.5563 81.7226C83.6031 82.2858 83.6031 82.3093 83.6967 81.84C83.7434 81.5584 83.9306 81.3237 84.0943 81.3237C84.2815 81.3237 84.5388 81.1595 84.726 80.9483C84.8897 80.7606 85.4044 80.3851 85.8956 80.127L86.7612 79.6811L87.5098 80.3851L88.2583 81.0891L87.7671 81.6992C87.463 82.0981 87.2758 82.6613 87.2758 83.2244C87.2758 83.9284 87.1589 84.21 86.6676 84.515C85.7319 85.1486 84.9365 87.1901 85.6383 87.1901C85.7553 87.1901 86.2465 87.5186 86.7378 87.9175C87.5565 88.598 87.5565 88.598 86.6442 87.6829C86.0828 87.1432 85.6383 86.5565 85.6383 86.3688C85.6383 86.1811 85.9424 85.6883 86.3401 85.2659C86.9717 84.562 87.0185 84.5385 87.0419 84.9843C87.0419 85.2659 87.3226 85.6648 87.6735 85.8995C88.2349 86.2749 88.2583 86.3453 87.9074 86.6034C87.5799 86.8381 87.5565 87.0258 87.7437 87.5186C88.0946 88.4807 88.0244 88.8327 87.5098 88.8327C86.8314 88.8327 86.6676 89.4428 87.1355 90.3814C87.6033 91.4139 87.6033 92.3994 87.1355 93.3146C86.7612 94.042 86.9717 94.699 87.5799 94.699C87.7203 94.699 87.6735 94.5348 87.463 94.3236C87.1355 93.9951 87.1355 93.8777 87.4162 93.3146C87.8373 92.5167 87.8373 91.4373 87.3928 90.3814C86.9717 89.3958 87.0887 89.0673 87.7905 89.0673C88.2349 89.0673 88.2583 88.9735 88.0946 87.9879C87.9776 87.1901 88.0244 86.8381 88.2583 86.6973C88.4923 86.5565 88.3987 86.3453 87.9308 85.8526C87.346 85.2425 87.3226 85.0782 87.4396 83.7407C87.5332 82.7316 87.7203 82.145 88.001 81.8869C88.6092 81.3237 88.5625 80.7136 87.8607 80.2443C87.0887 79.7515 87.1121 79.6342 88.0946 79.0945L88.9367 78.6487L89.5684 79.2822C90.1298 79.8454 90.1532 79.9862 89.8725 80.4086C89.6151 80.8309 89.6151 80.9483 89.8959 81.1125C90.0596 81.2299 90.3403 81.3237 90.5041 81.3237C90.6678 81.3237 91.1123 81.488 91.51 81.6757C92.1416 82.0042 92.2352 82.0042 92.5627 81.6757C92.7498 81.488 92.82 81.3237 92.6797 81.3237C92.5627 81.3237 92.3989 81.4176 92.3288 81.5114C92.2586 81.6288 91.7439 81.5114 91.1825 81.2533C90.3169 80.8544 90.1766 80.6902 90.2702 80.2208C90.3403 79.8454 90.2 79.4934 89.8725 79.1884C89.1707 78.5313 89.3344 78.2028 90.5041 77.9212C91.0421 77.7804 91.8141 77.3581 92.2352 76.9592C92.9136 76.3256 93.0774 76.2552 93.6856 76.4898C94.2704 76.7245 94.4108 76.6776 94.8786 76.0675C95.3933 75.4339 95.4167 75.4104 96.1185 75.7859C96.5162 75.9971 97.0074 76.1613 97.1946 76.1613C97.6156 76.1613 97.873 75.3635 97.756 74.4249C97.6624 73.6036 98.3876 73.017 98.7385 73.5801C98.8555 73.7679 98.9724 74.1668 98.9724 74.4484C98.9724 74.8942 99.0894 74.9646 100.095 74.9411C100.704 74.9411 101.78 74.9881 102.481 75.0585C103.604 75.1758 103.768 75.2462 103.838 75.739C104.025 77.2642 104.072 77.3346 104.844 77.053C105.429 76.8653 105.616 76.8888 106.014 77.2407C106.528 77.6866 107.16 77.5223 107.347 76.8418C107.394 76.6541 107.277 76.7245 107.066 76.9826C106.692 77.4519 106.692 77.4519 106.248 76.9357C105.873 76.4898 105.71 76.4429 105.078 76.6306C104.259 76.8653 104.189 76.7949 104.072 75.5747C104.002 74.8942 103.955 74.8707 102.598 74.7534C101.639 74.683 101.218 74.5422 101.265 74.3545C101.312 74.0025 100.937 73.9556 100.727 74.2841C100.657 74.4014 100.446 74.5187 100.306 74.5187C100.142 74.5187 100.212 74.3545 100.47 74.1668C100.75 73.9556 101.218 73.8852 101.803 73.9556C102.341 74.0494 102.949 73.9556 103.347 73.7679C103.698 73.5801 104.54 73.1578 105.195 72.8292C105.99 72.4069 106.482 72.2895 106.716 72.4303C106.903 72.5477 107.16 72.6415 107.277 72.618C107.417 72.618 107.254 72.4773 106.926 72.313C106.411 72.0079 106.248 72.0314 105.382 72.5477C104.868 72.8527 104.213 73.1108 103.955 73.1108C103.698 73.1108 103.347 73.2516 103.207 73.4393C102.996 73.6975 102.786 73.7209 102.224 73.5097C101.616 73.2751 101.382 73.2985 100.61 73.7679L99.6976 74.2841L99.4169 73.7679C99.2766 73.4628 98.9491 72.9935 98.6917 72.7119L98.2239 72.1957L97.3115 72.8058L96.4226 73.3924L96.7501 74.2137C97.2647 75.4339 97.1946 75.5278 96.1185 74.9646L95.136 74.4718L94.5745 75.1054C94.1067 75.6686 93.9663 75.7155 93.4516 75.4808C92.6563 75.1288 92.5627 75.1523 91.7439 75.8328C91.3462 76.1613 91.0187 76.3256 91.0187 76.2083C91.0187 76.0909 91.1825 75.8563 91.3462 75.692C91.5334 75.5512 91.8141 75.0585 91.9545 74.6361C92.1416 74.0964 92.4223 73.7679 92.937 73.6036C93.592 73.3689 93.6388 73.2751 93.4984 72.5946C93.3815 72.0314 93.475 71.7264 93.8493 71.3274C94.2002 70.952 94.247 70.7643 94.0365 70.6469C93.8727 70.5296 93.8025 70.5531 93.8961 70.6939C93.9897 70.8347 93.8493 71.1163 93.592 71.3509C93.3347 71.5856 93.1241 71.9375 93.1241 72.1253C93.1241 72.3365 93.054 72.4303 92.9838 72.3365C92.9136 72.2661 93.0774 71.1397 93.3815 69.8257C93.7558 68.1362 94.0833 67.2914 94.4809 66.8456C94.9722 66.3058 95.019 66.1181 94.8084 65.4376C94.5745 64.6633 94.5745 64.6633 95.6272 64.194C97.0074 63.5839 97.0308 63.5839 97.4753 64.4755C97.6858 64.8979 97.8964 65.2734 97.9197 65.3203C97.9665 65.3672 98.3174 65.2264 98.7151 65.0387C99.0894 64.8275 99.6508 64.6867 99.955 64.7337C100.306 64.7571 100.493 64.6398 100.563 64.3113C100.61 64.0297 100.563 63.9358 100.446 64.1001C100.353 64.2409 99.955 64.4051 99.5573 64.4755C99.183 64.5459 98.6917 64.6633 98.5046 64.7571C98.2472 64.851 98.0133 64.6633 97.7092 64.0766C97.4519 63.6073 97.1244 63.2788 96.9606 63.3492C96.7735 63.4196 96.7033 63.3257 96.7969 63.1145C96.8671 62.9268 96.7969 62.6452 96.6565 62.481C96.3056 62.0351 96.8437 60.9557 97.4987 60.7915C97.8028 60.7211 98.0835 60.416 98.1771 60.111C98.2473 59.8059 98.528 59.4774 98.7853 59.4305C99.2064 59.3131 99.2532 59.1724 99.1128 58.3745C98.9958 57.5063 99.0426 57.389 99.9784 56.5442C100.516 56.028 101.288 55.371 101.663 55.0894C102.06 54.7843 102.154 54.6435 101.897 54.7843C101.616 54.9016 100.774 55.5821 99.9784 56.2861C98.949 57.2013 98.6215 57.6471 98.7619 57.8818C99.066 58.3745 99.0192 59.3131 98.6917 59.1958C98.528 59.1489 98.2239 59.4305 98.0367 59.8294C97.8262 60.2518 97.4753 60.5803 97.1478 60.6272C96.8671 60.6741 96.6331 60.8619 96.6331 61.0261C96.6331 61.1904 96.4694 61.5189 96.2588 61.7301C95.9547 62.0117 95.9313 62.1759 96.1419 62.3871C96.7735 63.0207 96.1185 63.7716 94.4575 64.2878C94.13 64.4051 94.0833 64.5225 94.2938 64.8745C94.6447 65.555 94.5745 66.1885 94.0833 66.6344C93.6388 67.0333 93.6388 67.0098 93.5452 65.6723C93.4282 64.1001 93.0072 62.9503 92.2586 62.129C91.9545 61.8005 91.7205 61.4485 91.7205 61.3546C91.7205 60.9557 92.1884 61.1434 92.5393 61.7066C92.7732 62.0586 93.1943 62.2933 93.709 62.3637C94.13 62.4106 94.4342 62.3637 94.3874 62.2698C94.3172 62.1759 94.0131 62.0821 93.7324 62.0821C93.4049 62.0821 93.0306 61.8474 92.7966 61.4954C92.5861 61.1669 92.2118 60.9088 91.9779 60.9088C91.7205 60.9088 91.2761 60.4864 90.8784 59.8529C90.5275 59.2662 90.083 58.7969 89.9193 58.7969C89.2409 58.7969 89.6853 58.398 90.6211 58.1868C91.5334 57.9991 91.6036 57.9287 91.5334 57.2482C91.4632 56.4269 91.6971 56.1688 92.9604 55.7699C93.4282 55.6056 93.8259 55.371 93.8259 55.2302C93.8259 55.0659 93.7324 55.0659 93.5452 55.2067C93.3815 55.3475 92.937 55.5117 92.5393 55.6056C91.5334 55.8637 91.2527 56.1688 91.2527 57.0605V57.8583H90.0596C88.656 57.8583 87.1589 57.0135 87.5332 56.4504C87.9074 55.8403 87.7437 55.6056 87.3226 56.1688L86.9015 56.7085L85.4512 56.1688C84.0008 55.6525 83.7668 55.371 84.2815 54.8547C84.4686 54.667 84.4686 54.5027 84.2347 54.2211C83.9774 53.9161 84.0008 53.7988 84.3283 53.4468C84.5388 53.2121 84.7026 52.7428 84.7026 52.4143C84.7026 52.0858 84.8663 51.6869 85.0535 51.5226C85.2406 51.3584 85.4044 51.1237 85.4044 51.0064C85.4044 50.8891 85.147 51.1002 84.8195 51.4757C84.492 51.8746 84.2815 52.3439 84.3751 52.5316C84.4452 52.7428 84.2581 53.0713 83.9072 53.3295C83.3692 53.7518 83.3458 53.8222 83.6967 54.1742C84.0476 54.5262 84.0476 54.5966 83.6967 54.9955C83.3692 55.3475 83.1118 55.4179 82.3866 55.2771C81.5445 55.1363 79.7198 55.2536 77.8951 55.6291C77.1232 55.7699 77.0296 55.7229 76.7957 55.1128C76.6553 54.7609 76.4915 54.0804 76.4682 53.6345C76.4214 52.954 76.3044 52.8367 75.9301 52.8836C75.6728 52.9305 75.3687 53.0009 75.2283 53.0009C75.1113 53.0244 74.971 52.8132 74.9242 52.5082C74.8774 52.2031 74.6903 51.8981 74.5031 51.8277C74.316 51.7573 73.8949 51.1706 73.5674 50.5371C73.1697 49.7393 72.8656 49.4107 72.6317 49.5046C72.3042 49.6219 71.3684 48.1436 71.3684 47.4631C71.3684 47.2754 71.1111 46.9469 70.7836 46.7357C70.4561 46.5245 70.1988 46.4541 70.1988 46.5714ZM73.006 50.1147C73.006 50.232 72.8422 50.3493 72.6551 50.3493C72.4679 50.3493 72.3042 50.232 72.3042 50.1147C72.3042 49.9739 72.4679 49.88 72.6551 49.88C72.8422 49.88 73.006 49.9739 73.006 50.1147ZM76.164 53.3764C76.0237 53.4937 75.6728 53.658 75.3453 53.7284C74.7838 53.8926 74.7838 53.8692 75.2049 53.5406C75.6962 53.1417 76.5383 53.0009 76.164 53.3764ZM76.4915 55.6291V56.0984L76.281 55.6291C76.164 55.371 76.0705 54.9955 76.0705 54.8078C76.0471 54.5027 76.0705 54.5027 76.281 54.8078C76.398 54.9955 76.4915 55.371 76.4915 55.6291ZM84.2347 56.5912C87.1355 57.4359 89.8725 59.4539 91.3696 61.8474C91.7439 62.4341 92.165 62.9972 92.3054 63.138C92.6563 63.4196 92.9838 64.2644 92.6797 64.1001C92.5627 64.0062 92.5159 64.1705 92.5861 64.4521C92.6797 64.7571 92.7732 64.851 92.8902 64.6633C93.0773 64.3582 93.3581 64.8979 93.3581 65.555C93.3581 65.86 93.3113 65.8835 93.1475 65.6488C93.054 65.4846 93.0072 66.1885 93.0774 67.221C93.1943 69.4502 92.5627 72.2426 91.4398 74.1902C89.966 76.8184 86.6208 79.2353 83.5095 79.9158C81.8252 80.2912 78.4098 80.1035 76.8658 79.5638C75.1581 78.9772 72.6551 77.1938 71.579 75.8563C69.4502 73.1578 68.4677 69.7083 68.9823 66.5874C69.1461 65.6723 69.38 64.6398 69.5204 64.2644C69.7543 63.6543 69.8011 63.6543 69.9648 64.0766C70.0584 64.3347 70.0818 64.6398 70.0116 64.7571C69.9414 64.8745 70.0116 64.8979 70.152 64.8041C70.3391 64.7102 70.3391 64.4521 70.1754 63.9828C69.8245 63.0207 70.5965 61.6362 72.5147 59.7355C74.8774 57.3655 77.4507 56.3096 80.9597 56.2392C82.2229 56.2157 83.4159 56.333 84.2347 56.5912ZM72.3977 58.4449C72.1872 58.7734 71.9065 59.0316 71.7661 59.0316C71.6258 59.0316 71.7661 58.7734 72.0702 58.4449C72.3743 58.1164 72.6551 57.8583 72.7018 57.8583C72.7486 57.8583 72.6083 58.1164 72.3977 58.4449ZM68.0934 67.6434C68.07 68.4647 68.0466 68.5116 67.7425 68.0892C67.5085 67.7842 67.4852 67.526 67.6489 67.221C67.9764 66.564 68.0934 66.6813 68.0934 67.6434ZM97.873 73.2516C97.2413 73.7444 97.1478 73.9321 97.3349 74.2841C97.7092 74.9646 97.5922 75.1758 97.2179 74.5187C96.7501 73.6975 96.7735 73.5097 97.5221 73.0639C98.4812 72.4538 98.7151 72.5711 97.873 73.2516ZM69.0291 73.4628C69.0291 73.6505 68.6314 73.979 68.1636 74.1668C66.76 74.7534 66.6196 74.9411 67.1343 75.6686C67.5553 76.2787 67.5553 76.2787 66.8067 76.9122C66.3155 77.3346 65.9646 77.4754 65.7541 77.3346C65.5669 77.2173 65.4733 77.0765 65.5201 77.053C65.5903 77.0061 65.9178 76.7714 66.2921 76.5602C66.9003 76.1613 66.9237 76.1144 66.5728 75.4574C66.1283 74.5657 66.5026 73.7679 67.2746 73.9556C67.5787 74.026 67.9998 73.8852 68.3507 73.6036C69.0291 73.017 69.0291 73.017 69.0291 73.4628ZM95.2295 74.9646C95.2295 75.0585 94.9722 75.4339 94.6447 75.7859C94.1534 76.3256 94.0131 76.3725 93.475 76.1144C92.9136 75.8563 92.7966 75.9032 92.0714 76.701C91.627 77.1703 91.0655 77.5693 90.8082 77.5693C90.2702 77.5693 90.2468 77.5458 90.4573 77.0061C90.5275 76.7949 90.7614 76.6306 90.972 76.6306C91.1825 76.6306 91.6504 76.3491 92.0013 75.9971C92.5861 75.4574 92.7498 75.387 93.1241 75.6451C93.8025 76.0675 94.2236 75.9971 94.6915 75.34C95.1593 74.7065 95.2295 74.6595 95.2295 74.9646ZM63.6487 76.8418C63.6487 77.1938 62.7597 78.1559 62.596 77.9916C62.3854 77.7804 63.0872 76.6306 63.4147 76.6306C63.5551 76.6306 63.6487 76.7245 63.6487 76.8418ZM72.772 78.6721C72.772 79.2588 72.7486 79.2822 72.3977 78.9303C72.1872 78.7191 72.0936 78.4375 72.1638 78.2967C72.4679 77.8274 72.772 78.0386 72.772 78.6721ZM74.4095 80.9248C74.4095 81.0891 74.199 81.2299 73.9417 81.2299C73.4738 81.2299 73.3569 81.0656 73.6376 80.784C73.8949 80.5024 74.4095 80.5963 74.4095 80.9248ZM75.9301 82.9663C76.0003 83.0836 75.8599 83.201 75.5792 83.201C75.2985 83.201 75.1581 83.0836 75.2283 82.9663C75.2985 82.8255 75.4622 82.7316 75.5792 82.7316C75.6962 82.7316 75.8599 82.8255 75.9301 82.9663Z" fill="black"/>
<path d="M87.58 46.5245C86.5507 46.5949 86.3401 46.6887 86.3401 47.0642C86.3401 47.2988 86.2466 47.557 86.1296 47.6274C86.0126 47.6978 85.8723 48.1905 85.8255 48.6833C85.7787 49.1995 85.8255 49.5515 85.9191 49.5046C86.036 49.4342 86.1062 49.0822 86.1062 48.7302C86.1062 48.3783 86.2466 47.8151 86.4103 47.4631C86.6442 46.9234 86.8314 46.8295 87.6735 46.8295C88.2116 46.8295 88.7262 46.7122 88.7964 46.5949C88.8666 46.4541 88.9134 46.3837 88.8666 46.4072C88.8198 46.4306 88.235 46.4776 87.58 46.5245Z" fill="black"/>
<path d="M89.6153 53.2123C89.3112 53.7286 88.9603 53.9867 88.6328 53.9867C88.2351 53.9867 88.0947 54.1275 88.0713 54.5264C88.048 54.9488 88.048 54.9722 88.1415 54.5733C88.2585 54.0571 88.469 53.9867 88.8433 54.3621C89.0071 54.5264 89.2644 54.2917 89.6855 53.5408C90.3639 52.3206 90.3171 52.0625 89.6153 53.2123Z" fill="black"/>
<path d="M95.5102 53.1656C96.095 53.6115 96.095 53.6115 97.0073 53.1656C97.4986 52.9075 97.7793 52.6963 97.6156 52.6963C97.4518 52.6963 97.0073 52.8606 96.6564 53.0483C96.0482 53.3533 95.9546 53.3533 95.6973 53.0483C95.5336 52.8606 95.2996 52.6963 95.1593 52.6963C95.0423 52.6963 95.2061 52.9075 95.5102 53.1656Z" fill="black"/>
<path d="M104.751 58.4918C104.657 58.5622 104.587 58.9377 104.587 59.2896C104.587 59.6651 104.423 60.0405 104.189 60.1813C103.955 60.3221 103.885 60.4395 104.025 60.4395C104.423 60.4395 104.751 59.9232 104.868 59.0785C104.985 58.2572 104.985 58.2572 104.751 58.4918Z" fill="black"/>
<path d="M51.2502 63.1148C51.2502 63.1852 51.5777 63.3964 51.952 63.6076C52.4433 63.8657 52.6538 64.1473 52.6538 64.5462C52.6538 64.8982 52.7942 65.1328 52.9813 65.1328C53.1685 65.1328 53.5194 65.3909 53.7767 65.7194C54.034 66.048 54.3148 66.3061 54.4083 66.3061C54.5019 66.3061 54.7826 66.5642 55.0399 66.9162C55.4844 67.4794 55.5312 67.4794 55.9523 67.1039C56.3734 66.7285 56.4201 66.7285 56.9114 67.1508L57.4261 67.5967L56.9582 66.9631C56.5605 66.3999 56.4669 66.3765 55.9991 66.6815C55.5078 66.9866 55.4376 66.9631 55.0867 66.4234C54.8762 66.0949 54.5955 65.8368 54.4317 65.8368C53.9873 65.8133 52.8878 64.7104 52.8878 64.2411C52.8878 63.8657 52.6304 63.6545 51.4374 63.0679C51.3204 63.0209 51.2502 63.0444 51.2502 63.1148Z" fill="black"/>
<path d="M57.8939 66.4002C57.8237 66.5879 57.8003 66.9399 57.8471 67.1745C57.9173 67.4326 57.9875 67.3153 58.0576 66.8225C58.198 66.0247 58.1044 65.837 57.8939 66.4002Z" fill="black"/>
<path d="M95.9781 69.0279C95.8377 69.3095 95.5804 69.3799 95.2295 69.286C94.6447 69.1218 93.8259 69.4503 93.8259 69.8492C93.8259 69.99 93.9897 69.9431 94.1768 69.7319C94.4108 69.4972 94.7851 69.4268 95.2061 69.4972C95.7442 69.6146 95.9547 69.5442 96.1419 69.1452C96.4694 68.5586 96.2822 68.4647 95.9781 69.0279Z" fill="black"/>
<path d="M66.3857 71.9612C65.8243 72.5009 65.4032 73.1345 65.4032 73.4161C65.4032 73.7681 65.2629 73.9323 65.0055 73.9089C64.7716 73.8854 64.6546 73.9558 64.7248 74.0731C64.912 74.3782 65.5202 74.3312 65.567 73.9793C65.567 73.8385 65.6138 73.5803 65.6138 73.463C65.6839 72.9468 66.5963 71.8439 67.2747 71.445C67.649 71.1869 67.8361 70.9991 67.6724 70.9991C67.4852 70.9991 66.9238 71.4215 66.3857 71.9612Z" fill="black"/>
<path d="M108.096 76.2321C108.096 76.6075 108.587 77.335 108.868 77.335C109.055 77.335 109.078 77.2646 108.891 77.1472C108.751 77.0534 108.517 76.7718 108.377 76.5137C108.236 76.2556 108.096 76.1382 108.096 76.2321Z" fill="black"/>
<path d="M58.2448 81.0187C57.9173 81.3942 57.426 81.9808 57.1453 82.3328L56.654 82.9898L56.2564 82.3797C55.9522 81.9104 55.8119 81.84 55.5546 82.0512C55.3674 82.192 55.2271 82.4501 55.2271 82.5909C55.2271 82.7317 55.344 82.6848 55.461 82.4971C55.6715 82.192 55.7885 82.2389 56.1862 82.7317L56.6774 83.3184L57.309 82.4971C57.6366 82.0512 58.198 81.3942 58.5489 81.0187C58.8764 80.6668 59.0869 80.3852 58.9934 80.3852C58.8998 80.3852 58.5489 80.6668 58.2448 81.0187Z" fill="black"/>
<path d="M93.5218 81.2295C93.4516 81.3703 93.5218 81.6989 93.709 81.957C93.9897 82.3559 94.2236 82.4263 95.1126 82.3324C95.8377 82.2386 96.329 82.309 96.7501 82.5905C97.4285 83.0364 97.4753 83.4588 96.9606 84.2331C96.5161 84.9606 96.7033 85.0544 98.3174 85.0075C99.3467 84.9606 99.5339 84.9136 99.2298 84.679C98.9958 84.5147 98.7151 84.4912 98.4578 84.632C98.2472 84.7494 97.8028 84.8432 97.4519 84.8432C96.867 84.8432 96.867 84.8198 97.2413 84.2566C98.0835 82.9895 96.9606 81.91 94.9722 82.0743C94.0599 82.1447 93.9429 82.0978 93.8259 81.5581C93.7557 81.2295 93.6154 81.0888 93.5218 81.2295Z" fill="black"/>
<path d="M77.3336 81.8865C77.4038 82.1446 77.3336 82.4262 77.1699 82.5201C76.9593 82.6608 76.9593 82.8016 77.1699 83.2475C77.357 83.576 77.4038 83.5995 77.3336 83.3413C77.2634 83.1067 77.3336 82.7782 77.474 82.5904C77.6611 82.3793 77.6377 82.1681 77.4506 81.863C77.1933 81.4641 77.1933 81.4641 77.3336 81.8865Z" fill="black"/>
<path d="M82.8312 82.755C82.6908 83.0131 82.5972 83.3416 82.644 83.4589C82.6908 83.5763 82.8312 83.3651 82.9949 82.9662C83.299 82.1683 83.2054 82.0275 82.8312 82.755Z" fill="black"/>
<path d="M54.1743 84.1162C53.4257 84.9374 53.3555 85.0782 53.8702 84.7497C54.455 84.3743 55.3673 83.2245 55.1802 83.1071C55.1334 83.0837 54.6889 83.5295 54.1743 84.1162Z" fill="black"/>
<path d="M75.0646 87.5418C74.8307 87.8469 74.6436 88.2458 74.6436 88.4101C74.6436 88.5743 74.8775 88.3631 75.1348 87.9408C75.7196 87.0491 75.6495 86.744 75.0646 87.5418Z" fill="black"/>
<path d="M90.2 89.5832C90.1766 90.1464 90.1064 90.8738 89.9894 91.2258C89.8491 91.7186 89.8958 91.8828 90.2935 92.1175C90.7146 92.3287 90.8784 92.2817 91.3462 91.8124C91.6269 91.5074 91.9311 91.1319 91.9778 90.9677C92.1416 90.5218 93.2411 91.0381 94.0364 91.9297L94.7382 92.7041L95.557 92.2583C96.0249 92.0001 96.3524 91.7655 96.3056 91.7186C96.2588 91.6716 95.8845 91.8124 95.4868 92.0471L94.7382 92.4694L94.1066 91.7186C93.7557 91.3196 93.1241 90.8269 92.7264 90.6157L91.9544 90.2402L91.6269 91.0615C91.393 91.6012 91.1123 91.8828 90.8082 91.8828C90.1298 91.8828 90.0596 91.6247 90.4573 90.4984C90.6912 89.7944 90.7146 89.3955 90.5509 89.067C90.4105 88.8088 90.2701 88.5977 90.2467 88.5977C90.2233 88.5977 90.2 89.0435 90.2 89.5832Z" fill="black"/>
<path d="M99.9082 92.7041C100.353 93.1499 100.75 93.5254 100.821 93.5254C100.891 93.5254 100.587 93.1499 100.142 92.7041C99.6977 92.2583 99.3 91.8828 99.2298 91.8828C99.1596 91.8828 99.4637 92.2583 99.9082 92.7041Z" fill="black"/>
<path d="M102.435 92.1649C102.248 92.3292 101.943 92.8219 101.78 93.2208C101.522 93.9013 101.382 93.9952 100.516 94.0421L99.5574 94.0656L100.446 94.1595C101.499 94.2768 101.92 93.9952 102.131 93.0566C102.224 92.6107 102.482 92.3057 102.903 92.1414C103.254 92.0241 103.37 91.9068 103.16 91.9068C102.973 91.8833 102.645 92.0241 102.435 92.1649Z" fill="black"/>
<defs>
<radialGradient id="paint0_radial_363_344" cx="0" cy="0" r="1" gradientUnits="userSpaceOnUse" gradientTransform="translate(107.766 111.62) rotate(153.435) scale(63.7752 103.03)">
<stop stop-color="#BA712E"/>
<stop offset="0.0001" stop-color="#805126"/>
<stop offset="1" stop-color="#BA712E"/>
</radialGradient>
</defs>
</svg>
