<svg width="121" height="65" viewBox="0 0 121 65" fill="none" xmlns="http://www.w3.org/2000/svg" preserveAspectRatio="none">
    <path d="M119.995 26.4044V35.8032C120.132 41.589 117.42 46.3709 112.829 50.25C111.67 51.2297 110.391 52.1518 109.007 53.0179C108.096 53.5888 107.139 54.1353 106.141 54.658C105.219 55.1413 104.261 55.6042 103.273 56.0472C102.496 56.3951 101.7 56.7308 100.886 57.0542C99.9531 57.4252 98.9968 57.7801 98.0199 58.1193C97.0827 58.4448 96.1265 58.7557 95.1536 59.0524C94.059 59.3863 92.9432 59.7021 91.8096 60.0003C91.0217 60.2075 90.2251 60.4062 89.421 60.5964C87.8545 60.967 86.2594 61.3056 84.6438 61.6131C81.3618 62.2376 77.9952 62.7335 74.6118 63.1079C69.4759 63.6761 64.3012 63.9642 59.3248 63.9969C59.0056 63.999 58.6872 64 58.3696 64C52.2085 64 45.7585 63.5627 39.5 62.6322C37.437 62.3255 35.3949 61.9652 33.3907 61.5493C29.2418 60.6883 25.2557 59.589 21.5852 58.2338C20.4382 57.8102 19.3219 57.3617 18.2412 56.8876C16.9106 56.3039 15.6338 55.6816 14.4195 55.0194C13.4201 54.4745 12.4631 53.9027 11.5532 53.3034C9.76678 52.1268 8.16217 50.8443 6.77599 49.4516C6.0829 48.7553 5.44441 48.0314 4.86512 47.2795C3.99515 46.1502 3.25867 44.9576 2.67123 43.6998C1.55383 41.3074 0.975645 38.6794 1.04354 35.8032V29.2962V28.8584C0.986052 28.0649 0.984925 27.2471 1.04354 26.4044C0.918733 22.8155 2.25631 19.3107 6.29827 14.6861C7.2557 13.5906 8.36487 12.5135 9.64229 11.4771C16.7334 5.72392 42.3416 0.450042 62.6255 1.04613C73.0623 0.866676 106.603 4.29762 115.218 14.5059C116.353 15.8512 117.322 17.3277 118.084 18.9462C118.707 20.2682 119.192 21.6849 119.517 23.2022C119.829 24.6573 119.995 24.759 119.995 26.4044Z" fill="#D79050"/>
    <path d="M1.04354 26.4044V29.2962M1.04354 26.4044C0.918733 22.8155 2.25631 19.3107 6.29827 14.6861M1.04354 26.4044C0.170703 38.9536 12.5455 45.9718 27 49.6392M119.995 26.4044V35.8032C120.132 41.589 117.42 46.3709 112.829 50.25M119.995 26.4044C119.995 26.8947 119.974 27.3766 119.931 27.8502M119.995 26.4044C119.995 24.759 119.829 24.6573 119.517 23.2022M2.67123 43.6998V34.7598M4.86512 47.2795V38.072M6.77599 49.4516V42.9998M9.64229 51.9502V44.3998M11.5532 53.7216V49.5402M14.4195 55.0194V48.5998M18.2412 56.8876V49.9998M21.5852 58.2338C9.46879 53.7599 0.791125 46.4962 1.04354 35.8032V29.2962M21.5852 58.2338V48.065M21.5852 58.2338C25.2557 59.589 29.2418 60.6883 33.3907 61.5493M47.8596 63.581V55.3242V52.8342M51.6814 53.0481C54.0739 53.1488 56.3255 53.1801 58.3696 53.1552C62.9809 53.1552 68.6273 52.8856 74.6118 52.2253M51.6814 53.0481V56.5701M51.6814 53.0481C50.4422 52.996 49.1652 52.9253 47.8596 52.8342M47.8596 52.8342C41.2389 52.3722 33.8836 51.3856 27 49.6392M59.3248 63.9969V56.0472M66 56.9998V63.8027M71.7455 52.5148V60.3852M74.6118 52.2253V63.1079M74.6118 52.2253C75.5597 52.1207 76.516 52.0063 77.4781 51.8817M77.4781 51.8817V62.7608M77.4781 51.8817C78.349 51.7688 79.2245 51.6476 80.1027 51.5175M80.1027 51.5175C80.1027 53.6143 80.1027 56.8217 80.1027 56.5701M80.1027 51.5175C81.6122 51.294 83.1293 51.0445 84.6438 50.7673M82.2553 62.0426V54.6012M84.6438 50.7673V61.6131M84.6438 50.7673C85.4413 50.6213 86.238 50.4676 87.0324 50.306M84.6438 61.6131C76.0601 63.2465 66.898 64 58.3696 64C52.2085 64 45.7585 63.5627 39.5 62.6322M84.6438 61.6131C86.2594 61.3056 87.8545 60.967 89.421 60.5964M87.0324 61.1082V50.306M87.0324 50.306C88.6383 49.9793 90.2348 49.6201 91.8096 49.2261M89.421 56.2998V60.5964M89.421 60.5964C90.2251 60.4062 91.0217 60.2075 91.8096 60.0003M91.8096 49.2261V60.0003M91.8096 49.2261C92.937 48.9441 94.0532 48.6443 95.1536 48.3259M91.8096 60.0003C92.9432 59.7021 94.0589 59.3863 95.1536 59.0524M95.1536 59.0524V48.3259M95.1536 59.0524C96.1265 58.7557 97.0827 58.4448 98.0199 58.1193M95.1536 48.3259C96.1223 48.0456 97.0788 47.7509 98.0199 47.4412M98.0199 47.4412V58.1193M98.0199 47.4412C98.993 47.121 99.9496 46.7848 100.886 46.4321M98.0199 58.1193C98.9968 57.7801 99.9531 57.4252 100.886 57.0542M100.886 46.4321V57.0542M100.886 46.4321C102.723 45.7401 104.484 44.9844 106.141 44.1602M100.886 57.0542C101.7 56.7308 102.496 56.3951 103.273 56.0472M103.273 56.0472V52.0998M103.273 56.0472C104.261 55.6042 105.219 55.1413 106.141 54.658M106.141 44.1602V54.658M106.141 44.1602C107.136 43.6658 108.093 43.1467 109.007 42.602M106.141 54.658C107.139 54.1353 108.096 53.5888 109.007 53.0179M109.007 53.0179V42.602M109.007 53.0179C110.391 52.1518 111.67 51.2297 112.829 50.25M109.007 42.602C110.385 41.7816 111.665 40.9032 112.829 39.9634M112.829 39.9634V50.25M112.829 39.9634C113.885 39.1107 114.845 38.2075 115.695 37.2512C116.414 36.4427 117.054 35.5963 117.606 34.7103M117.606 34.7103V44.4792M117.606 34.7103C118.894 32.6446 119.706 30.3643 119.931 27.8502M1.04354 29.2962L119.931 27.8502M119.517 23.2022H98.0199M119.517 23.2022C119.192 21.6849 118.707 20.2682 118.084 18.9462M91.8096 24.9582H85.5993M80.1027 24.9582H73.6563M8.68686 23.5122H15.8526M7.73142 19.1742H16.3303M6.29827 14.6861H15.3749M6.29827 14.6861C7.2557 13.5906 8.36487 12.5135 9.64229 11.4771M9.64229 11.4771C16.7334 5.72392 42.3416 0.450042 62.6255 1.04613C73.0623 0.866676 106.603 4.29762 115.218 14.5059M9.64229 11.4771H21.5852M28.2732 4.71421H34.0059M34.0059 9.05221H93.7205M32.095 11.9442H103.273M115.218 14.5059H107.574M115.218 14.5059C116.353 15.8512 117.322 17.3277 118.084 18.9462M118.084 18.9462H61.7134M41.1716 18.9462H50.7259M55.0254 18.9462H60.2803M28.2732 16.2822H42.6048M50.7259 16.2822H71.7455M77.0004 14.6861H94.1982M17.7635 14.6861H23.4961M21.1075 8.32921H24.4515M27 49.6392C27 51.4725 27 55.1151 27 55.0194M33.3907 61.5493V55.5998M33.3907 61.5493C35.3949 61.9652 37.437 62.3255 39.5 62.6322M39.5 52.0998V55.5998M39.5 62.6322V59.0998M33.5281 32.371H93.2427M51.6413 42.9998H61.1957M69.3548 40.731H74.6096M27.7955 39.601H42.127M45.9466 35.8032H66.9662M76.5227 38.0048H93.7205" stroke="black" stroke-linecap="round"/>
</svg>