<svg width="67" height="75" viewBox="0 0 67 75" fill="none" xmlns="http://www.w3.org/2000/svg">
<path d="M16.3691 8.3521C6.10066 14.332 1.99329 17.1105 1.14765 18.4393C0.120805 20.1306 0 21.7615 0 37.889C0 54.6809 0.0604026 55.5869 1.20805 57.0366C2.3557 58.4862 8.63757 62.4124 23.7986 71.1708C33.463 76.7278 32.557 76.8486 49.8925 66.701C62.8791 59.1507 64.1475 58.2446 65.2348 55.9493C66.322 53.654 66.4428 52.2044 66.4428 37.6473C66.4428 20.6742 66.2012 19.1642 63.3623 16.6272C62.0939 15.4796 42.0402 3.64069 37.0268 1.04338C32.9194 -1.07071 31.5301 -0.587486 16.3691 8.3521ZM35.0335 4.48633C36.9664 5.57358 38.6577 6.54002 50.4362 13.3655C55.7516 16.446 60.5838 19.4662 61.1878 20.1306C62.0939 21.2178 62.2147 22.9695 62.2147 37.3453C62.2147 46.3453 61.973 53.7748 61.6106 54.3789C61.3086 54.9829 58.1073 57.1574 54.5435 59.2715C50.9798 61.3856 44.7583 65.0097 40.8321 67.305C34.3087 71.1708 33.463 71.4728 31.953 70.9292C30.9865 70.5668 24.463 66.8822 17.4563 62.7748C8.69797 57.701 4.53019 54.9225 4.16778 53.956C3.38254 51.9024 3.50335 22.7883 4.28858 21.0366C4.7114 20.1306 7.0067 18.3789 9.90602 16.7481C12.5637 15.1776 15.2215 13.6675 15.7047 13.3655C23.3758 8.65411 32.1946 3.7615 32.9194 3.7011C33.2818 3.7011 34.1879 4.06351 35.0335 4.48633Z" fill="#EC9615"/>
<path d="M29.7182 26.6541C26.3356 31.6071 23.5571 35.7749 23.5571 35.9561C23.5571 36.1373 25.6712 36.3185 28.2685 36.4393C31.9531 36.5601 32.9195 36.8017 32.7987 37.5266C32.7383 38.0098 31.047 42.4796 29.0538 47.4326C27.0001 52.3856 25.4296 56.493 25.5504 56.6138C25.7316 56.795 42.3423 34.2044 42.7652 33.1776C42.886 32.936 40.4095 32.6944 37.2081 32.6944C34.0068 32.6944 31.4095 32.634 31.4095 32.5132C31.4095 32.3923 32.4967 29.1306 33.8256 25.144C35.1544 21.2179 36.1209 17.8957 36.0605 17.7749C35.9397 17.7145 33.1007 21.7011 29.7182 26.6541Z" fill="#EC9615"/>
<path d="M8.1543 27.379C7.97309 28.1642 7.91269 33.238 7.97309 38.7346L8.1543 48.7011L16.6711 48.8823L25.1878 49.0635L27.0603 44.5333C28.0267 42.0568 28.6912 39.8823 28.51 39.7011C28.3288 39.5199 25.9127 39.3387 23.1341 39.3387C20.0536 39.3387 18.1207 39.0971 18.1207 38.7346C18.1207 38.3722 19.1476 36.6809 20.416 34.9293C23.0133 31.4863 25.9731 26.8353 25.9731 26.3521C25.9731 26.1709 22.0469 26.0501 17.2147 26.0501C8.63752 26.0501 8.45631 26.0501 8.1543 27.379Z" fill="#EC9615"/>
<path d="M36.2415 27.5601C35.8791 28.4662 35.6375 29.3722 35.6375 29.6138C35.6375 29.8554 38.3556 30.097 41.7381 30.097C45.0603 30.1574 47.8992 30.2783 48.0804 30.3991C48.2012 30.5803 45.4831 34.6272 41.9797 39.399C38.4764 44.1708 35.6375 48.2782 35.6375 48.5198C35.6375 48.8218 39.8656 49.0031 44.9999 49.0031H54.3623V46.6474C54.3623 44.5333 54.5435 44.2917 56.1743 43.9292L57.9864 43.5668V37.5266V31.4259L56.2347 31.1239C54.6643 30.8219 54.4227 30.4595 54.2414 28.5266L54.0602 26.3521L45.4227 26.1709L36.8455 25.9897L36.2415 27.5601Z" fill="#EC9615"/>
</svg>
