<svg width="136" height="43" viewBox="0 0 136 43" fill="none" xmlns="http://www.w3.org/2000/svg" preserveAspectRatio="none">
    <path d="M12.2194 33.6836C7.98943 33.1522 9.57594 29.9638 4.81718 29.4324C2.4063 29.1632 1.42321 25.8963 1.11592 22.5467C0.937972 20.607 0.986651 18.6395 1.11592 17.2104C1.54853 12.428 7.22284 8.82772 10.6332 7.11404C15.9207 4.45708 24.3807 5.3428 28.082 5.51994C31.607 5.51994 39.6087 5.09482 43.4158 3.39437C47.2228 1.69392 53.462 1.26876 56.1058 1.26874C64.7421 0.914476 82.9663 0.631067 86.7733 2.33152C90.5804 4.03197 97.1721 4.45708 99.9921 4.45708C104.046 4.45708 112.999 4.98847 116.383 7.11404C119.767 9.2396 122.728 10.1252 123.786 10.3024C126.253 10.1252 131.717 10.8338 133.832 15.0849C134.651 16.7305 134.968 18.376 134.998 19.8675C135.005 20.2317 134.995 20.5867 134.971 20.9303C134.841 22.8145 134.289 24.3549 133.832 25.1813C132.07 26.2441 128.333 29.0073 127.487 31.558C126.641 34.1087 123.962 35.1006 122.728 35.2777C119.908 35.1006 114.057 35.0652 113.211 36.3405C112.365 37.6159 107.571 38.2889 105.28 38.4661C103.517 38.4661 99.1461 38.8912 95.7621 40.5916C92.3781 42.2921 87.6546 41.3002 85.7158 40.5916C84.1296 39.5289 79.7938 38.041 75.1408 40.5916C70.4878 43.1423 61.922 41.6544 58.2208 40.5916C57.1633 39.8831 53.1448 38.4661 45.5308 38.4661C36.0132 38.4661 28.6107 37.4033 24.9095 35.2777C21.2082 33.1522 16.4494 34.215 12.2194 33.6836Z" fill="#FBFAEE"/>
    <path d="M1.11592 22.5467C0.937972 20.607 0.986651 18.6395 1.11592 17.2104C1.54853 12.428 7.22284 8.82772 10.6332 7.11404C15.9207 4.45708 24.3807 5.34281 28.082 5.51994C31.607 5.51994 39.6087 5.09482 43.4158 3.39437C47.2228 1.69392 53.462 1.26876 56.1058 1.26874C64.7421 0.914476 82.9663 0.631067 86.7733 2.33152C90.5804 4.03197 97.1721 4.45708 99.9921 4.45708C104.046 4.45708 112.999 4.98847 116.383 7.11404C119.767 9.2396 122.728 10.1252 123.786 10.3024C126.253 10.1252 131.717 10.8338 133.832 15.0849C134.651 16.7305 134.968 18.376 134.998 19.8675C135.005 20.2317 134.995 20.5867 134.971 20.9303M1.11592 22.5467C1.42321 25.8963 2.4063 29.1632 4.81718 29.4324C9.57594 29.9638 7.98943 33.1522 12.2194 33.6836C16.4494 34.215 21.2082 33.1522 24.9095 35.2777C28.6107 37.4033 36.0132 38.4661 45.5308 38.4661C53.1448 38.4661 57.1633 39.8831 58.2208 40.5916C61.922 41.6544 70.4878 43.1423 75.1408 40.5916C79.7938 38.041 84.1296 39.5289 85.7158 40.5916C87.6546 41.3002 92.3781 42.2921 95.7621 40.5916C99.1461 38.8912 103.517 38.4661 105.28 38.4661C107.571 38.2889 112.365 37.6159 113.211 36.3405C114.057 35.0652 119.908 35.1006 122.728 35.2777C123.962 35.1006 126.641 34.1087 127.487 31.558C128.333 29.0073 132.07 26.2441 133.832 25.1813C134.289 24.3549 134.841 22.8145 134.971 20.9303M1.11592 22.5467C1.42321 25.8963 6.1073 25.4436 8.51818 25.7128C13.2769 26.2442 12.2194 28.9011 16.4494 29.4325C20.6795 29.9639 22.3473 28.901 26.0485 31.0266C29.7498 33.1522 37.1523 34.215 46.6698 34.215C54.2838 34.215 59.2783 34.5692 60.3358 35.2777C64.037 36.3405 71.5453 37.8284 76.1983 35.2777C80.8513 32.7271 86.7733 33.1522 88.3596 34.215C91.0034 35.2777 93.1184 35.8092 97.4299 34.7463C101.104 33.8404 104.656 34.215 106.419 34.215C108.71 34.0378 111.991 31.415 113.211 30.4953C115.326 28.9011 119.556 32.0895 122.2 31.0267C124.315 30.1765 126.641 27.2007 127.487 24.65C128.333 22.0993 133.209 21.993 134.971 20.9303M8.51818 14.0222L10.1044 12.9594M10.1044 15.6164L11.6907 13.4908M12.7482 16.1478L14.8632 13.4908M15.9207 16.6791L18.5645 13.4908M20.6795 16.1478L23.3232 13.4908M24.3807 16.6791L26.4957 14.0222M28.6107 16.6791C29.0337 16.254 30.902 14.7307 31.7832 14.0222M33.8982 16.6791L37.0707 14.0222M37.0707 16.6791L40.2432 14.5536M41.3008 16.1478L43.9445 15.085M27.5532 28.9011L30.7257 31.0266M29.6682 27.307L32.312 28.9011M32.312 26.2442C32.735 26.2442 33.5457 27.307 33.8982 27.8383M36.542 25.1814L38.1282 26.7756M38.657 23.0558L40.2432 25.1814M41.8295 22.5244H43.9445M57.1633 32.0895C57.5863 32.0895 60.1595 32.0895 61.3933 32.0895M60.3358 30.4953H63.5083M60.3358 28.3697H64.5658M62.9795 26.2442H66.1521M65.0946 24.1186H67.2096M66.1521 21.993H68.2671M63.5083 9.77106H65.0946M45.5308 6.05133L49.7608 3.92576M49.7608 8.17689L53.462 4.98854M53.462 8.17689C53.885 7.75178 56.4583 6.93698 57.692 6.58272M57.692 9.23967L60.8645 8.17689M96.8196 5.51994C97.3079 5.94505 100.901 6.75985 102.636 7.11411M95.7621 7.6455L99.9921 8.70828M91.0034 8.70828C92.5896 9.4168 95.8679 10.8338 96.2909 10.8338M87.8309 10.3025C88.3596 10.3025 89.9459 12.428 90.4746 11.8966M84.6583 11.8966C85.0108 12.2509 85.8216 12.9594 86.2446 12.9594M80.4283 15.6164L82.0146 13.4908M80.4283 31.0267C80.9571 31.0267 84.1296 29.4325 89.9459 31.0267M80.9571 27.8383C81.4858 27.8383 85.1871 27.307 87.8309 28.9011M83.0721 25.7128C84.1296 25.7128 86.3503 25.8191 86.7733 26.2442M82.5433 23.5872C83.2483 23.5872 84.7641 23.5872 85.1871 23.5872M82.5433 21.4617C83.0721 21.2845 84.2353 21.0365 84.6583 21.4617M86.7733 19.3361C88.0424 18.911 88.3596 18.4504 88.3596 18.2733M91.0034 20.3989C91.5321 20.0446 92.5896 19.2298 92.5896 18.8047M94.1759 21.4617C94.7046 20.9303 95.9736 19.8675 96.8196 19.8675M98.4059 22.5244C98.9346 22.1702 100.098 21.4617 100.521 21.4617C101.05 21.4617 102.636 21.4617 102.636 20.3989M102.636 24.1186C103.49 23.233 105.32 21.4617 105.808 21.4617M105.808 25.1814C105.985 24.65 106.654 23.5872 107.923 23.5872M108.981 26.7756C109.51 26.2442 110.99 25.2877 112.682 25.7128M112.153 28.3697C112.33 27.4841 113.528 25.9253 116.912 26.7756M112.153 21.4617C112.506 20.9303 113.211 19.7612 113.211 19.3361M115.326 21.4617C115.855 20.576 116.912 18.6984 116.912 18.2733M119.027 22.5244C120.085 21.2845 122.411 18.8047 123.257 18.8047M122.728 22.5244C122.905 21.8159 123.574 20.2926 124.843 19.8675M124.843 23.5872C125.196 22.7016 126.324 21.0365 128.016 21.4617M116.912 9.77106C117.441 10.8338 118.816 12.9594 120.085 12.9594M113.74 11.3652C114.268 12.0738 115.537 13.5971 116.383 14.0222" stroke="black" stroke-linecap="round"/>
</svg>