<svg width="50" height="50" viewBox="0 0 50 50" fill="none" xmlns="http://www.w3.org/2000/svg">
<circle cx="25" cy="25" r="23" stroke="#F5F5F5" stroke-width="4"/>
<path d="M23.1328 13.2203C21.2834 15.0697 22.6876 18.5288 25.1193 18.0494C27.4482 17.6041 28.5784 14.7272 27.0715 13.1175C26.0782 12.0558 24.2288 12.09 23.1328 13.2203Z" fill="#F5F5F5"/>
<path d="M21.9683 21.0634C19.5366 22.8443 19.2969 24.5225 21.5915 23.7348C23.3725 23.1183 23.3725 23.6663 21.797 31.0298C20.7011 36.0302 20.7011 36.7494 21.6943 37.9139C22.345 38.6673 22.8588 38.8728 24.3657 38.9756C26.6946 39.1468 28.2358 38.4276 29.5373 36.5096C30.3935 35.2424 30.4278 35.1054 29.8798 34.6944C29.4003 34.3177 29.2633 34.3862 29.0236 35.0369C28.6468 36.0302 27.4139 37.3659 26.8659 37.3659C26.0097 37.3659 25.7014 35.0712 26.2494 32.4683C27.7906 24.6937 27.7906 24.728 27.4139 23.358C26.6261 20.3784 24.263 19.3852 21.9683 21.0634Z" fill="#F5F5F5"/>
</svg>
