<svg width="44" height="85" viewBox="0 0 44 85" fill="none" xmlns="http://www.w3.org/2000/svg">
    <path d="M14.7485 5.27313L37.3832 1L43 2.59195L41.7144 4.35147L40.3675 6.19478L38.4697 8.79218L37.3832 10.2791L36.0898 12.0492L34.7964 13.8194L33.6369 15.4063L32.4088 17.0871L31.0007 19.0142L29.5212 21.039L28.3108 22.6956L27.0719 24.3912L25.8144 26.1122L24.0582 28.5158L23.7186 28.9805L29.3353 28.3145L35.5389 30.1578L34.1976 32.0609L32.8815 33.9282L31.4052 36.0229L30.4013 37.4473L29.3353 38.9598L28.0983 40.715L26.8204 42.5281L25.8144 43.9555L24.7636 45.4464L23.5792 47.1269L22.398 48.8029L21.2768 50.3936L20.1557 51.9843L24.3892 51.5235L30.1737 53.6181L28.8835 55.2101L27.4072 57.0318L25.8144 58.9973L24.1983 60.9914L22.398 63.2129L20.7844 65.2039L19.4431 66.859L17.8835 68.7836L16.509 70.4796L15.1677 72.1347L13.7415 73.8946L12.3053 75.6667L11.0847 77.1729L10.0069 78.5028L8.78466 80.011L8.37725 80.5137C8.18777 80.8028 7.79616 81.1949 7.17878 81.5799C4.18563 85.122 3.68263 84.0328 1.50299 82.9435L11.8144 59.567H4.26946L14.7485 39.3744L1 38.8717L14.7485 5.27313Z" fill="#FFDC6B"/>
    <path d="M37.3832 1L14.7485 5.27313L1 38.8717L14.7485 39.3744L4.26946 59.567H11.8144L1.50299 82.9435M37.3832 1L43 2.59195L41.7144 4.35147M37.3832 1L36.3807 2.59195M29.3353 28.3145L23.7186 28.9805M29.3353 28.3145L35.5389 30.1578L34.1976 32.0609M29.3353 28.3145L28.5436 29.7389M24.3892 51.5235L20.1557 51.9843M24.3892 51.5235L30.1737 53.6181L28.8835 55.2101M24.3892 51.5235L23.2907 53.0316M1.50299 82.9435L3.94419 79.5921M1.50299 82.9435C3.68263 84.0328 4.18563 85.122 7.17878 81.5799M23.7186 28.9805L19.4431 29.4875L21.1316 26.8063M23.7186 28.9805L24.0582 28.5158M20.1557 51.9843L15.9222 52.4451L17.4125 49.7639M20.1557 51.9843L21.2768 50.3936M36.3807 2.59195L41.7144 4.35147M36.3807 2.59195L35.2726 4.35147M41.7144 4.35147L40.3675 6.19478M35.2726 4.35147L40.3675 6.19478M35.2726 4.35147L33.6369 6.94887M40.3675 6.19478L38.4697 8.79218M33.6369 6.94887L38.4697 8.79218M33.6369 6.94887L32.8274 8.23425M38.4697 8.79218L37.3832 10.2791M32.8274 8.23425L32.018 9.51963L31.5397 10.2791M32.8274 8.23425L37.3832 10.2791M37.3832 10.2791L36.0898 12.0492M30.5765 11.8085L34.7964 13.8194M30.5765 11.8085L31.5397 10.2791M30.5765 11.8085L29.5212 13.4842M34.7964 13.8194L36.0898 12.0492M34.7964 13.8194L33.6369 15.4063M31.5397 10.2791L36.0898 12.0492M29.5212 13.4842L33.6369 15.4063M29.5212 13.4842L28.3108 15.4063M33.6369 15.4063L32.4088 17.0871M28.3108 15.4063L32.4088 17.0871M28.3108 15.4063L27.0719 17.3737M32.4088 17.0871L31.0007 19.0142M27.0719 17.3737L31.0007 19.0142M27.0719 17.3737L25.8144 19.3705M31.0007 19.0142L29.5212 21.039M25.8144 19.3705L29.5212 21.039M25.8144 19.3705L24.7636 21.039M29.5212 21.039L28.3108 22.6956M24.7636 21.039L28.3108 22.6956M24.7636 21.039L23.5792 22.9198M28.3108 22.6956L27.0719 24.3912M23.5792 22.9198L27.0719 24.3912M23.5792 22.9198L22.398 24.7955M27.0719 24.3912L25.8144 26.1122M22.398 24.7955L25.8144 26.1122M22.398 24.7955L21.1316 26.8063M25.8144 26.1122L24.0582 28.5158M21.1316 26.8063L24.0582 28.5158M28.5436 29.7389L34.1976 32.0609M28.5436 29.7389L27.4258 31.7498M34.1976 32.0609L32.8815 33.9282M27.4258 31.7498L32.8815 33.9282M27.4258 31.7498L26.2149 33.9282M32.8815 33.9282L31.4052 36.0229M26.2149 33.9282L31.4052 36.0229M26.2149 33.9282L25.33 35.5202M31.4052 36.0229L30.4013 37.4473M25.33 35.5202L30.4013 37.4473M25.33 35.5202L24.3892 37.2127M30.4013 37.4473L29.3353 38.9598M24.3892 37.2127L29.3353 38.9598M24.3892 37.2127L23.2994 39.1733M29.3353 38.9598L28.0983 40.715M23.2994 39.1733L28.0983 40.715M23.2994 39.1733L22.398 40.795M28.0983 40.715L26.8204 42.5281M22.398 40.795L26.8204 42.5281M22.398 40.795L21.4346 42.5281M26.8204 42.5281L25.8144 43.9555M21.4346 42.5281L25.8144 43.9555M21.4346 42.5281L20.6412 43.9555M25.8144 43.9555L24.7636 45.4464M20.6412 43.9555L24.7636 45.4464M20.6412 43.9555L19.4431 46.1108M24.7636 45.4464L23.5792 47.1269M19.4431 46.1108L23.5792 47.1269M19.4431 46.1108L18.3906 48.0044M23.5792 47.1269L22.398 48.8029M18.3906 48.0044L22.398 48.8029M18.3906 48.0044L17.4125 49.7639M22.398 48.8029L21.2768 50.3936M17.4125 49.7639L21.2768 50.3936M23.2907 53.0316L28.8835 55.2101M23.2907 53.0316L21.948 54.8749M28.8835 55.2101L27.4072 57.0318M21.948 54.8749L27.4072 57.0318M21.948 54.8749L20.5443 56.802M27.4072 57.0318L25.8144 58.9973M20.5443 56.802L25.8144 58.9973M20.5443 56.802L19.1916 58.6592M25.8144 58.9973L24.1983 60.9914M19.1916 58.6592L24.1983 60.9914M19.1916 58.6592L17.6759 60.74M24.1983 60.9914L22.398 63.2129M17.6759 60.74L22.398 63.2129M17.6759 60.74L16.509 62.3421M22.398 63.2129L20.7844 65.2039M16.509 62.3421L20.7844 65.2039M16.509 62.3421L14.9296 64.5104M20.7844 65.2039L19.4431 66.859M14.9296 64.5104L19.4431 66.859M14.9296 64.5104L13.5259 66.4375M19.4431 66.859L17.8835 68.7836M13.5259 66.4375L17.8835 68.7836M13.5259 66.4375L12.3053 68.1133M17.8835 68.7836L16.509 70.4796M12.3053 68.1133L16.509 70.4796M12.3053 68.1133L11.0847 69.789M16.509 70.4796L15.1677 72.1347M11.0847 69.789L15.1677 72.1347M11.0847 69.789L9.80307 71.5485M15.1677 72.1347L13.7415 73.8946M9.80307 71.5485L13.7415 73.8946M9.80307 71.5485L8.37725 73.506M13.7415 73.8946L12.3053 75.6667M8.37725 73.506L12.3053 75.6667M8.37725 73.506L7.17878 75.1514M12.3053 75.6667L11.0847 77.1729M7.17878 75.1514L11.0847 77.1729M7.17878 75.1514L6.2023 76.4919M11.0847 77.1729L10.0069 78.5028M6.2023 76.4919L10.0069 78.5028M6.2023 76.4919L5.10376 78.0001M10.0069 78.5028L8.78466 80.011M5.10376 78.0001L8.78466 80.011M5.10376 78.0001L3.94419 79.5921M8.78466 80.011L8.37725 80.5137C8.18777 80.8028 7.79616 81.1949 7.17878 81.5799M3.94419 79.5921L7.17878 81.5799" stroke="#EF8701" stroke-linejoin="round"/>
</svg>