<svg width="62" height="90" viewBox="0 0 62 90" fill="none" xmlns="http://www.w3.org/2000/svg">
    <path d="M1 89L26.5587 45.8333L7.03352 44.8333L31 5.75L41.3073 1L44.8268 1.84894L49.5196 2.98085L55.2598 4.36543L61 5.75L57.5221 9.58333L55.5564 11.75L51.0956 16.6667L47.0894 21.0823L43.7612 24.7506L40.5863 28.25L38.2905 30.7804L33.933 35.5833H47.0894L56.3073 36.4167L53.2486 39.4844L50.1899 42.5522L46.5028 46.2503L43.7612 49L39.8827 52.8901L36.6145 56.168L31.963 60.8333L28.7374 64.0685L24.3799 68.439L21.5035 71.3239L18.9184 73.9167L15.4288 77.4167L13.1024 79.75L9.03115 83.8333L7.45251 85.4167L1 89Z" fill="#FFDC6B"/>
    <path d="M31 5.75L7.03352 44.8333L26.5587 45.8333L1 89M31 5.75L41.3073 1L44.8268 1.84894M31 5.75L35.7765 6.32074M52.6201 8.33333L61 5.75M52.6201 8.33333L50.6718 10.6042M52.6201 8.33333L48.7235 7.86773M47.0894 35.5833H33.933M47.0894 35.5833L56.3073 36.4167L53.2486 39.4844M47.0894 35.5833L42.4804 40.925M1 89L7.45251 85.4167L9.03115 83.8333M1 89L5.45794 83.8333M61 5.75L57.5221 9.58333M61 5.75L55.2598 4.36543M33.933 35.5833H29.2402L31.963 32.4099M33.933 35.5833L38.2905 30.7804M5.45794 83.8333H9.03115M5.45794 83.8333L10.7207 77.7339M9.03115 83.8333L13.1024 79.75M9.03115 80.25L13.1024 79.75M13.1024 79.75L15.4288 77.4167M10.7207 77.7339L15.4288 77.4167M10.7207 77.7339L13.511 74.5M15.4288 77.4167L18.9184 73.9167M13.511 74.5L18.9184 73.9167M13.511 74.5L16.2514 71.3239M18.9184 73.9167L21.5035 71.3239M16.2514 71.3239H21.5035M16.2514 71.3239L18.1847 69.0833M21.5035 71.3239L24.3799 68.439M18.1847 69.0833L24.3799 68.439M18.1847 69.0833L20.845 66M24.3799 68.439L28.7374 64.0685M20.845 66L28.7374 64.0685M20.845 66L24.0087 62.3333M28.7374 64.0685L31.963 60.8333M24.0087 62.3333L31.963 60.8333M24.0087 62.3333L27.3162 58.5M31.963 60.8333L36.6145 56.168M27.3162 58.5L36.6145 56.168M27.3162 58.5L30.5519 54.75M36.6145 56.168L39.8827 52.8901M30.5519 54.75L39.8827 52.8901M30.5519 54.75L33.7156 51.0833M39.8827 52.8901L43.7612 49M33.7156 51.0833L43.7612 49M33.7156 51.0833L37.095 47.1667M43.7612 49L46.5028 46.2503M37.095 47.1667L46.5028 46.2503M37.095 47.1667L39.3239 44.5833M46.5028 46.2503L50.1899 42.5522M39.3239 44.5833L50.1899 42.5522M39.3239 44.5833L42.4804 40.925M50.1899 42.5522L53.2486 39.4844M42.4804 40.925L53.2486 39.4844M31.963 32.4099L38.2905 30.7804M31.963 32.4099L34.5311 29.4167M38.2905 30.7804L40.5863 28.25M34.5311 29.4167L40.5863 28.25M34.5311 29.4167L37.095 26.4284M40.5863 28.25L43.7612 24.7506M37.095 26.4284L43.7612 24.7506M37.095 26.4284L40.5863 22.3591M43.7612 24.7506L47.0894 21.0823M40.5863 22.3591L47.0894 21.0823M40.5863 22.3591L44.8268 17.4167M47.0894 21.0823L51.0956 16.6667M44.8268 17.4167L51.0956 16.6667M44.8268 17.4167L48.7235 12.875M51.0956 16.6667L55.5564 11.75M48.7235 12.875L55.5564 11.75M48.7235 12.875L50.6718 10.6042M55.5564 11.75L57.5221 9.58333M50.6718 10.6042L57.5221 9.58333M35.7765 6.32074L44.8268 1.84894M35.7765 6.32074L42.4804 7.12177M44.8268 1.84894L49.5196 2.98085M42.4804 7.12177L49.5196 2.98085M42.4804 7.12177L48.7235 7.86773M49.5196 2.98085L55.2598 4.36543M55.2598 4.36543L48.7235 7.86773" stroke="#EF8701" stroke-linejoin="round"/>
</svg>