<svg width="45" height="87" viewBox="0 0 45 87" fill="none" xmlns="http://www.w3.org/2000/svg">
    <path d="M1 46.8717L33.9415 2.83154L40.8148 1L39.7919 3.74731L39.017 5.8286L38.2421 7.90989L37.4672 9.99119L36.2274 13.3213L35.1988 16.0838L34.3366 18.3996L33.2208 21.3967L32.1813 24.1885L30.958 27.474L30.1521 29.6386L29.4392 31.5534L28.9123 32.9687L30.7563 33.0838L33.5371 33.2576L36.7914 33.4608L39.8928 33.6546L44 33.8844C43.8326 34.1754 42.0834 37.0073 41.0495 38.5465C40.4404 39.4534 39.7013 40.5473 38.8564 41.7933C38.3522 42.5369 37.8104 43.3346 37.2359 44.1791C36.5951 45.1213 35.9137 46.1216 35.1988 47.1699C34.6242 48.0126 34.028 48.8862 33.4138 49.7855C32.7864 50.7042 32.1403 51.6496 31.4795 52.6161C30.6714 53.7979 29.8412 55.0111 28.9961 56.2455C28.1642 57.4606 27.3178 58.6962 26.4639 59.9422C25.8015 60.9087 25.1346 61.8815 24.4664 62.856C23.8385 63.7716 23.2094 64.6886 22.5819 65.6033C21.9125 66.5788 21.2448 67.5517 20.5821 68.5171C19.9478 69.441 19.3181 70.3581 18.6956 71.2645C18.0578 72.193 17.4277 73.1103 16.8083 74.0118C16.2146 74.8758 15.6307 75.7254 15.0593 76.5566C14.3224 77.6286 13.6062 78.6702 12.9166 79.6729L11.3703 81.9207L10.0526 83.8355L3.59844 86L17.345 46.8717H1Z" fill="#FFDC6B"/>
    <path d="M33.9415 2.83154L1 46.8717H17.345L3.59844 86M33.9415 2.83154L40.8148 1L39.7919 3.74731M33.9415 2.83154L33.1825 4.78795M3.59844 86L10.0526 83.8355C10.4751 83.2217 10.915 82.5824 11.3703 81.9207M3.59844 86L5.9313 82.5867M36.3723 38.047L34.8929 40.2116M36.3723 38.047H34.0253M36.3723 38.047L44 33.8844M20.2788 38.047L28.9123 32.9687M20.2788 38.047H23.7154M20.2788 38.047L21.926 33.8012M28.9123 32.9687L30.7563 33.0838M28.9123 32.9687L29.4392 31.5534M44 33.8844C43.8326 34.1754 42.0834 37.0073 41.0495 38.5465M44 33.8844L39.8928 33.6546M5.9313 82.5867L11.3703 81.9207M5.9313 82.5867L7.92277 79.6729M11.3703 81.9207C11.8682 81.1971 12.3845 80.4465 12.9166 79.6729M7.92277 79.6729H12.9166M7.92277 79.6729L10.0526 76.5566M12.9166 79.6729C13.6062 78.6702 14.3224 77.6286 15.0593 76.5566M10.0526 76.5566H15.0593M10.0526 76.5566L11.7919 74.0118M15.0593 76.5566C15.6307 75.7254 16.2146 74.8758 16.8083 74.0118M11.7919 74.0118H16.8083M11.7919 74.0118L13.6696 71.2644M16.8083 74.0118C17.4277 73.1103 18.0578 72.193 18.6956 71.2644M13.6696 71.2644H18.6956M13.6696 71.2644L15.5473 68.5171M18.6956 71.2644C19.3181 70.3581 19.9478 69.441 20.5821 68.5171M15.5473 68.5171H20.5821M15.5473 68.5171L17.5387 65.6033M20.5821 68.5171C21.2448 67.5517 21.9125 66.5788 22.5819 65.6033M17.5387 65.6033H22.5819M17.5387 65.6033L19.4164 62.856M22.5819 65.6033C23.2094 64.6886 23.8385 63.7716 24.4664 62.856M19.4164 62.856H24.4664M19.4164 62.856L21.4079 59.9422M24.4664 62.856C25.1346 61.8815 25.8015 60.9087 26.4639 59.9422M21.4079 59.9422H26.4639M21.4079 59.9422L23.57 56.7786M26.4639 59.9422C27.3178 58.6962 28.1642 57.4606 28.9961 56.2455M23.57 56.7786L28.9961 56.2455M23.57 56.7786L26.1874 52.9491M28.9961 56.2455C29.8412 55.0111 30.6714 53.7979 31.4795 52.6161M26.1874 52.9491L31.4795 52.6161M26.1874 52.9491L28.122 50.1185M31.4795 52.6161C32.1403 51.6496 32.7864 50.7042 33.4138 49.7855M28.122 50.1185L33.4138 49.7855M28.122 50.1185L29.9427 47.4545M33.4138 49.7855C34.028 48.8862 34.6242 48.0126 35.1988 47.1699M29.9427 47.4545L35.1988 47.1699M29.9427 47.4545L32.1813 44.1791M35.1988 47.1699C35.9137 46.1216 36.5951 45.1213 37.2359 44.1791M32.1813 44.1791H37.2359M32.1813 44.1791L33.5371 42.1953M37.2359 44.1791C37.8104 43.3346 38.3522 42.5369 38.8564 41.7933M34.8929 40.2116L41.0495 38.5465M34.8929 40.2116L33.5371 42.1953M41.0495 38.5465C40.4404 39.4534 39.7013 40.5473 38.8564 41.7933M33.5371 42.1953L38.8564 41.7933M34.0253 38.047L39.8928 33.6546M34.0253 38.047H30.7563M39.8928 33.6546L36.7914 33.4608M30.7563 38.047L36.7914 33.4608M30.7563 38.047H27.152M36.7914 33.4608L33.5371 33.2576M27.152 38.047L33.5371 33.2576M27.152 38.047H23.7154M33.5371 33.2576L30.7563 33.0838M23.7154 38.047L30.7563 33.0838M21.926 33.8012L29.4392 31.5534M21.926 33.8012L22.961 31.1335M29.4392 31.5534L30.1521 29.6386M22.961 31.1335L30.1521 29.6386M22.961 31.1335L23.9286 28.6396M30.1521 29.6386L30.958 27.474M23.9286 28.6396L30.958 27.474M23.9286 28.6396L24.9945 25.8923M30.958 27.474L32.1813 24.1885M24.9945 25.8923L32.1813 24.1885M24.9945 25.8923L26.3188 22.4789M32.1813 24.1885L33.2208 21.3967M26.3188 22.4789L33.2208 21.3967M26.3188 22.4789L27.4816 19.4819M33.2208 21.3967L34.3366 18.3996M27.4816 19.4819L34.3366 18.3996M27.4816 19.4819L28.4829 16.9011M34.3366 18.3996L35.1988 16.0838M28.4829 16.9011L35.1988 16.0838M28.4829 16.9011L29.5811 14.0705M35.1988 16.0838L36.2274 13.3213M29.5811 14.0705L36.2274 13.3213M29.5811 14.0705L30.647 11.3232M36.2274 13.3213L37.4672 9.99119M30.647 11.3232L37.4672 9.99119M30.647 11.3232L31.5836 8.90891M37.4672 9.99119L38.2421 7.90989M31.5836 8.90891L38.2421 7.90989M31.5836 8.90891L32.4234 6.74437M38.2421 7.90989L39.017 5.8286M32.4234 6.74437L39.017 5.8286M32.4234 6.74437L33.1825 4.78795M39.017 5.8286L39.7919 3.74731M33.1825 4.78795L39.7919 3.74731" stroke="#EF8701" stroke-linejoin="round"/>
</svg>