<svg width="451" height="298" viewBox="0 0 451 298" fill="none" xmlns="http://www.w3.org/2000/svg">
<ellipse cx="287" cy="146.5" rx="160" ry="138.5" fill="#fff"/>
<path d="M135 90.5L3 143L145.5 175C127.9 130.6 131.167 100.167 135 90.5Z" fill="#BD8B5C"/>
<path d="M447 156C417 284.5 206.5 321 147.5 181V207C167 240 205 303.611 309 293.5C427.761 281.954 450.333 195.667 447 156Z" fill="#9B602A"/>
<path d="M3 172.5V143L146.5 177V206L3 172.5Z" fill="#9B602A"/>
<path d="M290.5 2.50022C188.9 -1.49978 145.167 61.8336 136 94.0002C152.167 66.6669 217.5 15.1366 305.5 23.5002C402.3 32.7002 443.704 112 448 146.5C447.5 93.5002 417.5 7.50022 290.5 2.50022Z" fill="#603106"/>
<path d="M133.835 99.9545C167.03 41.4156 243.961 24.7762 278.276 23.7738C318.02 16.423 425.344 43.8213 444.778 138.045C447.307 153.992 447.149 174.543 441.373 195.5M133.835 99.9545C134.756 96.3852 135.923 92.5092 137.411 88.4271M133.835 99.9545C132.862 103.729 132.329 109.038 132.43 115.5M137.411 88.4271C149.509 55.2514 182.867 8.47048 278.276 2.22265C331.851 -0.617422 440.996 22.5709 448.98 138.045C449.855 174.464 422.613 251.714 306.639 269.356C218.303 282.794 168.534 227.235 146.441 175.824M137.411 88.4271L2 142.555M2 142.555V172.916L8 174.298M2 142.555L52 154.072M146.441 175.824V206.184M146.441 175.824L129.802 171.992L125 170.886M146.441 175.824C144.357 170.974 142.542 166.183 140.973 161.5M146.441 206.184C159.541 230.352 180.929 259.257 213.147 277.433M146.441 206.184L135.721 203.715M213.147 277.433L218 269.356M213.147 277.433C216.169 279.138 219.286 280.748 222.5 282.251M222.5 282.251L230.5 269.356M222.5 282.251C226.047 283.91 229.713 285.439 233.5 286.819M233.5 286.819L241.5 271.5M233.5 286.819C237.372 288.231 241.371 289.489 245.5 290.573M245.5 290.573L253 274.5M245.5 290.573C248.593 291.386 251.76 292.102 255 292.713M255 292.713L263 277.433M255 292.713C258.892 293.447 262.892 294.03 267 294.449M267 294.449L273 277.433M267 294.449C270.104 294.766 273.27 294.988 276.5 295.112M276.5 295.112L282.5 279M276.5 295.112C280.405 295.26 284.402 295.264 288.493 295.112M288.493 295.112C289.805 295.063 291.127 294.998 292.458 294.917C294.661 294.782 296.835 294.626 298.98 294.449M288.493 295.112L292.458 279M298.98 294.449L303.5 279M298.98 294.449C303.978 294.036 308.816 293.509 313.5 292.873M313.5 292.873L318.5 274.5M313.5 292.873C316.566 292.457 319.566 291.994 322.5 291.487M332.5 289.534L337.5 269.356M332.5 289.534C335.402 288.9 338.235 288.219 341 287.495M332.5 289.534C329.254 290.243 325.921 290.895 322.5 291.487M352 284.271L355.5 264M352 284.271C355.093 283.263 358.093 282.196 361 281.074M352 284.271C348.458 285.425 344.793 286.501 341 287.495M369.695 277.433L372 254M369.695 277.433C372.741 276.053 375.674 274.608 378.5 273.103M369.695 277.433C366.892 278.703 363.995 279.918 361 281.074M386.5 268.51V248.5M386.5 268.51C383.935 270.096 381.27 271.628 378.5 273.103M386.5 268.51C389.284 266.79 391.949 265.007 394.5 263.167M401 258.161V239M401 258.161C398.921 259.871 396.755 261.541 394.5 263.167M401 258.161C403.241 256.319 405.381 254.43 407.424 252.5M413 246.881V228.5M413 246.881C416.423 243.199 419.531 239.394 422.346 235.5M413 246.881C411.227 248.788 409.369 250.663 407.424 252.5M422.346 235.5V217.5M422.346 235.5C424.947 231.902 427.299 228.226 429.418 224.5M378.5 273.103V260M361 281.074L363 268.51M341 287.495L345 274.5M322.5 291.487L326 281.074M394.5 263.167L395 252.5M407.424 252.5V241.5M429.418 224.5V209M429.418 224.5C431.944 220.058 434.14 215.544 436.036 211M436.036 211V198.5M436.036 211C438.185 205.85 439.95 200.663 441.373 195.5M441.373 195.5V185.5M125 170.886L140.973 161.5M125 170.886L112 167.891M140.973 161.5C140.009 158.623 139.137 155.786 138.353 153M112 167.891L138.353 153M112 167.891L100.5 165.243M138.353 153C137.588 150.281 136.906 147.611 136.301 145M100.5 165.243L136.301 145M100.5 165.243L92.5 163.4M136.301 145C135.91 143.308 135.551 141.64 135.224 140M92.5 163.4L135.224 140M92.5 163.4L84.2509 161.5M135.224 140C134.85 138.13 134.518 136.295 134.224 134.5M84.2509 161.5L134.224 134.5M84.2509 161.5L66.5 157.411M134.224 134.5C133.652 131.006 133.226 127.662 132.933 124.5M66.5 157.411L132.933 124.5M66.5 157.411L52 154.072M132.933 124.5C132.636 121.305 132.474 118.295 132.43 115.5M52 154.072L132.43 115.5M8 174.298L13.5 153M8 174.298L18 176.601M18 176.601L24 160M18 176.601L32.5 179.941M32.5 179.941L38.5 165.243M32.5 179.941L44 182.59M44 182.59L49 167.891M44 182.59L56.5 185.469M56.5 185.469L62.5 170.886M56.5 185.469L66.5 187.772M66.5 187.772L72 172.916M66.5 187.772L80 190.881M80 190.881L84.2509 175.824M80 190.881L92.5 193.76M92.5 193.76L95 176.601M92.5 193.76L102 195.948M102 195.948L105.5 174.298M102 195.948L114 198.712M114 198.712L116.5 176.601M114 198.712L125 201.246M125 201.246L127 179.941M125 201.246L135.721 203.715M135.721 203.715L137.411 182.59" stroke="black" stroke-width="4" stroke-linecap="round" stroke-linejoin="round"/>
<path d="M244.136 51.3393C229.429 48.9336 213.847 62.0313 207.894 68.8809C205.268 76.8999 210.521 77.9023 213.147 75.8975C215.773 73.8928 231.53 65.3726 232.056 64.8714C232.581 64.3702 262.52 54.3464 244.136 51.3393Z" fill="white"/>
<path d="M365.992 61.8642C322.292 32.1939 283.704 39.1437 269.873 46.3274C263.57 49.601 267.772 56.8524 275.651 54.3464C278.452 52.8428 288.782 50.2367 307.69 51.8405C331.326 53.8452 336.112 60.3851 351.81 66.8761C367.568 73.3916 370.194 64.8714 365.992 61.8642Z" fill="white"/>
<path d="M244.136 51.3393C229.429 48.9336 213.847 62.0313 207.894 68.8809C205.268 76.8999 210.521 77.9023 213.147 75.8975C215.773 73.8928 231.53 65.3726 232.056 64.8714C232.581 64.3702 262.52 54.3464 244.136 51.3393Z" stroke="black" stroke-width="4" stroke-linecap="round" stroke-linejoin="round"/>
<path d="M365.992 61.8642C322.292 32.1939 283.704 39.1437 269.873 46.3274C263.57 49.601 267.772 56.8524 275.651 54.3464C278.452 52.8428 288.782 50.2367 307.69 51.8405C331.326 53.8452 336.112 60.3851 351.81 66.8761C367.568 73.3916 370.194 64.8714 365.992 61.8642Z" stroke="black" stroke-width="4" stroke-linecap="round" stroke-linejoin="round"/>
</svg>
