<svg width="462" height="473" viewBox="0 0 462 473" fill="none" xmlns="http://www.w3.org/2000/svg">
<path d="M116.817 -33.6491C116.817 -32.4404 118.751 -30.7481 121.168 -30.0228C123.828 -29.0558 126.487 -24.2208 128.421 -17.21C130.113 -10.6827 132.289 -2.4632 133.256 1.64658C134.706 7.20687 136.64 8.65741 140.508 8.41566C144.618 7.93215 146.069 9.86614 148.728 19.2945C151.629 28.9645 152.838 30.6568 157.431 29.9316C162.024 29.2063 162.75 30.1733 162.75 37.6676C162.75 45.6454 162.991 46.1289 168.552 43.9531C174.112 42.0191 174.354 42.5026 175.321 51.931C176.046 59.1835 175.321 62.8098 172.661 64.9855C170.002 66.9195 168.31 66.9195 167.343 65.2273C166.376 63.535 164.684 64.502 163.233 67.4031C160.332 72.7216 142.926 79.2489 138.574 76.5896C137.124 75.6226 134.948 72.2381 133.739 69.3371C131.805 64.2603 130.838 63.7768 123.586 65.9526C112.949 68.8536 113.19 68.8536 110.048 62.0845C108.114 57.733 105.213 56.0407 100.619 56.0407C95.3008 55.799 92.3998 53.6232 86.8395 44.9202C82.488 37.6676 80.554 32.349 81.521 28.7228C82.488 24.8547 81.2792 21.712 77.8947 18.811C73.3014 14.9429 73.3014 14.2177 76.686 9.1409C80.0705 3.82236 79.8287 3.09709 74.7519 -1.73794C71.6092 -4.63896 67.2576 -11.1663 64.8401 -16.4848C62.4226 -21.8033 58.5546 -26.3966 55.4118 -27.1219L50.335 -28.3306L55.4118 -24.2208C58.3128 -22.0451 61.4556 -17.6935 62.4226 -14.5508C63.1479 -11.6498 66.5324 -6.08947 69.9169 -2.22144C73.5432 2.13009 74.7519 5.51462 73.3014 6.48163C69.9169 8.65739 70.4004 16.3934 74.0267 20.2615C78.62 24.613 80.7957 40.3269 77.4112 43.7114C73.7849 47.3377 70.8839 47.0959 70.8839 42.7444C70.8839 40.8104 68.7081 38.1511 66.0489 36.7006C63.3896 35.2501 61.2138 32.1073 61.2138 29.6898C61.2138 26.3053 60.0051 25.3382 56.6206 26.3052C53.7195 27.0305 50.8185 25.58 48.1593 21.9537C45.9835 18.811 44.2912 17.6022 44.2912 19.0527C44.2912 22.9207 51.302 29.448 55.4118 29.448C57.3458 29.448 58.7963 31.1403 58.7963 33.3161C58.7963 35.4918 60.9721 37.6676 63.6314 38.3928C66.7741 39.1181 68.4664 41.7774 68.4664 45.4037C68.4664 51.931 69.1917 52.4145 75.4772 48.3047C81.0375 44.9202 87.8065 47.3376 89.4988 53.6232C90.4658 57.0077 92.8833 58.4582 97.7184 58.4582C102.795 58.4582 105.454 60.1505 108.355 65.469C111.74 71.9963 112.465 72.4798 119.718 70.3041C126.729 68.3701 128.179 68.8536 132.772 74.8974C137.607 80.6994 137.849 81.9082 134.706 85.2927C132.772 87.4685 130.838 91.5782 130.113 94.4792C129.63 97.1385 128.421 100.765 127.696 101.974C125.762 104.875 114.399 97.622 114.399 93.5123C114.399 91.82 111.74 89.886 108.355 89.4025C105.213 88.6772 103.037 89.1607 103.762 90.1277C104.487 91.3365 106.663 92.3035 108.597 92.3035C110.531 92.3035 111.982 94.4793 111.982 97.1385C111.982 99.7978 113.674 101.974 115.608 101.974C117.784 101.974 119.96 103.666 120.685 105.6C122.619 110.193 107.63 136.302 104.246 134.127C102.312 133.16 102.07 134.127 103.037 136.786C106.421 145.247 92.8833 143.555 83.455 134.368C81.0375 131.951 79.1035 131.709 74.2684 133.885C68.9499 136.302 67.4994 136.061 64.8401 132.676C62.4226 129.05 61.4556 129.05 57.3458 132.193C50.8185 137.028 48.1593 136.544 45.5 130.259C44.0495 127.357 39.4562 123.248 35.3464 121.314C30.9949 119.38 27.3686 115.995 27.3686 113.819C27.3686 111.644 25.1928 109.226 22.5336 108.501C16.9733 107.05 16.4898 100.765 21.3248 92.3035C26.4016 83.6004 25.9181 82.6334 17.6985 84.0839C11.1712 85.5345 10.446 85.0509 10.446 79.7324C10.446 76.3479 7.78672 70.7876 4.40219 67.1613C1.01767 63.535 -1.6416 62.0845 -1.6416 63.7768C-1.6416 65.469 0.534164 68.3701 3.19343 70.0623C6.33621 71.9963 8.02847 75.6226 8.02847 80.2159C8.02847 86.2597 8.99547 87.4685 14.0723 87.4685C19.3908 87.4685 19.8743 87.952 17.4568 93.2705C14.0723 100.523 16.4898 111.644 21.3248 111.644C23.5006 111.644 24.2258 113.094 23.5006 115.27C22.5336 117.687 24.2258 119.621 28.8191 121.555C38.2474 124.94 44.2912 130.742 44.2912 136.302C44.2912 138.72 45.9835 140.654 47.9175 140.654C52.5108 140.654 52.5108 145.005 47.9175 156.368C44.7747 163.62 43.3242 164.587 40.6649 162.411C38.0057 160.236 35.8299 160.719 30.7531 164.587L24.2258 169.664L19.6326 164.829C15.281 159.994 14.7975 159.994 8.02847 164.104C4.16044 166.28 1.25942 168.697 1.74292 169.181C2.46818 169.664 5.3692 168.214 8.75372 166.038C14.5558 162.411 15.0393 162.411 18.6655 167.73C22.5336 173.29 22.7753 173.29 30.0279 168.939C36.0717 165.554 38.2474 165.313 41.1485 167.73C44.0495 170.148 45.5 169.906 48.401 166.038C50.0933 163.378 52.269 158.543 52.9943 155.159C55.6536 142.346 58.5546 137.753 63.3896 139.445C65.8071 140.17 70.8839 139.445 74.5102 137.753C80.0705 135.335 81.2792 135.335 83.2132 138.962C84.6638 141.137 87.0813 143.071 88.7735 143.071C90.4658 143.071 94.0921 145.247 96.7513 147.665C99.6524 150.324 102.553 151.774 103.762 150.807C104.729 149.84 104.729 150.566 103.762 152.258C102.795 153.95 101.103 154.675 99.8941 153.95C98.6854 153.225 96.9931 156.126 96.2678 160.477C95.3008 164.829 92.1581 171.598 89.4988 175.224C85.1473 181.752 84.9055 182.719 88.5318 190.213C91.6746 196.982 91.9163 198.916 88.7735 204.718C84.6638 212.696 84.6638 212.454 88.7735 213.905C90.9493 214.872 91.6746 213.905 90.9493 210.762C90.2241 208.344 90.9493 205.685 92.3998 204.96C94.0921 203.751 95.0591 205.685 95.0591 210.037C95.3008 213.663 96.7513 220.915 98.6854 226.234C101.828 234.937 101.586 235.904 96.0261 241.464C91.4328 246.058 89.257 246.783 85.6308 244.849C82.0045 242.673 80.3122 243.398 76.9277 248.475C73.0597 254.519 73.0597 257.662 76.9277 266.848C78.1365 269.749 76.4442 271.925 71.1257 274.826C62.4226 279.178 58.7963 277.969 58.7963 270.958C58.7963 266.848 58.0711 266.606 53.4778 269.024C45.5 273.134 34.6212 283.771 34.6212 287.397C34.6212 289.331 31.4784 290.54 25.6763 290.54C13.8305 290.54 11.413 292.474 9.96248 301.66C9.23723 307.221 9.72073 309.155 11.8965 308.188C13.5888 307.704 14.5558 305.77 13.8305 304.32C11.6547 298.276 17.4568 294.408 29.5444 293.924C44.2912 293.199 46.2252 292.232 50.8185 281.112C54.4448 273.134 54.6865 272.892 56.8623 277.485C58.0711 280.145 62.9061 283.771 67.2576 285.463C74.5102 288.122 75.9607 287.881 81.0375 282.562C84.1803 279.419 88.5318 276.277 90.4658 275.551C93.3668 274.584 93.1251 273.134 89.4988 266.848L85.1473 259.354L91.9163 255.969C106.663 248.475 108.355 248.717 115.124 258.87C118.751 264.189 120.927 270.233 120.201 272.409C119.476 274.343 119.96 276.035 121.652 276.035C123.102 276.035 123.586 274.826 122.619 273.134C121.652 271.442 121.894 271.2 123.828 272.167C125.278 273.134 126.003 274.826 125.278 276.035C124.553 277.002 126.729 279.661 129.871 281.595C133.981 284.496 135.19 286.914 134.465 291.507C133.498 295.617 135.432 300.21 140.75 306.737C145.827 313.265 147.761 317.616 146.794 321.484C145.343 326.077 146.069 326.803 152.838 326.803C158.64 326.803 160.332 327.77 160.332 331.638C160.332 334.297 161.783 336.473 163.717 336.473C165.892 336.473 166.618 338.165 165.892 341.308C164.925 345.418 165.892 346.143 171.936 346.143C179.672 346.143 182.09 349.527 182.09 360.648C182.09 369.834 179.914 375.153 176.046 375.153C174.112 375.153 171.936 376.12 171.211 377.571C170.244 379.021 171.694 379.263 175.321 377.812C182.09 375.395 187.408 361.131 185.232 350.978C184.507 346.868 181.123 341.55 177.496 338.89C166.134 330.429 165.167 328.978 165.167 323.66C165.167 318.1 157.431 309.397 150.178 306.737C147.761 306.012 145.827 302.869 145.827 300.21C145.827 294.65 148.244 295.375 156.948 303.111C159.607 305.529 163.958 307.946 166.618 308.43C176.288 310.364 188.859 317.858 187.65 321.001C186.683 323.66 187.892 323.902 194.177 321.726C201.43 319.067 226.814 320.034 229.715 322.935C230.44 323.66 229.231 328.495 227.297 333.572C223.913 342.275 223.913 343.242 227.539 347.11C231.165 350.736 231.165 351.703 225.605 361.857C220.045 372.01 220.045 372.735 223.913 377.087C229.231 382.889 228.99 384.823 223.187 384.823C220.77 384.823 214.968 387.966 210.375 392.076C204.573 396.911 201.43 398.361 199.738 396.669C198.287 395.218 194.661 394.493 191.518 394.977C186.199 395.702 185.716 396.669 186.199 407.306C186.925 418.185 186.683 418.668 181.123 417.218C174.354 415.526 171.211 419.635 172.178 428.822C172.903 436.558 165.892 441.876 150.42 445.261L139.783 447.437L150.42 446.47C163.233 445.503 173.387 438.492 174.354 430.514C174.837 427.371 175.562 423.02 176.288 421.086C177.255 418.185 177.738 418.185 179.672 421.086C181.364 423.987 182.573 423.745 186.683 420.119C190.551 416.493 191.035 414.8 188.859 408.515C187.166 403.68 187.166 400.537 188.859 398.845C192.969 394.735 198.771 398.361 200.221 405.855C201.188 409.482 203.364 415.526 205.298 419.152C208.441 424.954 208.441 426.404 205.056 431.723C200.946 438.008 202.397 443.81 209.649 449.854C212.792 452.514 212.55 453.722 209.166 459.766C206.99 463.634 202.88 467.26 200.463 467.502C197.804 467.986 195.386 469.436 194.903 471.128C192.969 476.93 207.474 467.26 212.067 459.766C215.693 453.239 215.935 451.788 213.034 449.371C204.331 442.118 203.606 438.975 208.682 432.448C213.517 426.404 213.517 426.404 208.682 418.185C204.089 410.207 204.089 409.724 208.199 401.504C211.1 396.427 216.418 391.35 222.946 388.208L233.099 383.373L228.023 376.845L222.946 370.318L227.781 364.032C233.341 357.022 234.308 348.56 230.198 344.451C226.089 340.341 236.484 318.583 241.561 320.517C243.495 321.242 247.363 321.968 250.022 321.968C253.406 321.968 254.615 323.902 254.857 328.495C255.34 334.297 255.34 334.539 256.307 329.704C256.791 326.803 258.725 324.385 260.417 324.385C262.351 324.385 265.011 322.693 266.945 320.517C268.637 318.583 273.955 314.715 279.032 312.056L287.977 307.463L295.713 314.715L303.449 321.968L298.372 328.253C295.23 332.363 293.295 338.165 293.295 343.967C293.295 351.22 292.087 354.121 287.01 357.263C277.34 363.791 269.12 384.823 276.373 384.823C277.582 384.823 282.658 388.208 287.735 392.317C296.197 399.328 296.197 399.328 286.768 389.9C280.966 384.34 276.373 378.296 276.373 376.362C276.373 374.428 279.516 369.351 283.625 364.999C290.153 357.747 290.636 357.505 290.878 362.098C290.878 364.999 293.779 369.109 297.405 371.527C303.207 375.395 303.449 376.12 299.823 378.779C296.438 381.197 296.197 383.131 298.131 388.208C301.757 398.119 301.032 401.746 295.713 401.746C288.702 401.746 287.01 408.031 291.845 417.701C296.68 428.338 296.68 438.492 291.845 447.92C287.977 455.415 290.153 462.184 296.438 462.184C297.889 462.184 297.405 460.491 295.23 458.316C291.845 454.931 291.845 453.722 294.746 447.92C299.098 439.701 299.098 428.58 294.504 417.701C290.153 407.548 291.361 404.163 298.614 404.163C303.207 404.163 303.449 403.196 301.757 393.043C300.548 384.823 301.032 381.197 303.449 379.746C305.867 378.296 304.9 376.12 300.065 371.043C294.021 364.758 293.779 363.065 294.988 349.286C295.955 338.89 297.889 332.846 300.79 330.187C307.075 324.385 306.592 318.1 299.339 313.265C291.361 308.188 291.603 306.979 301.757 301.419L310.46 296.825L316.987 303.353C322.789 309.155 323.031 310.605 320.13 314.957C317.471 319.308 317.471 320.517 320.372 322.209C322.064 323.418 324.965 324.385 326.657 324.385C328.349 324.385 332.943 326.077 337.053 328.011C343.58 331.396 344.547 331.396 347.931 328.011C349.865 326.077 350.591 324.385 349.14 324.385C347.931 324.385 346.239 325.352 345.514 326.319C344.789 327.528 339.47 326.319 333.668 323.66C324.723 319.55 323.273 317.858 324.24 313.023C324.965 309.155 323.514 305.529 320.13 302.386C312.877 295.617 314.57 292.232 326.657 289.331C332.218 287.881 340.195 283.529 344.547 279.419C351.558 272.892 353.25 272.167 359.535 274.584C365.579 277.002 367.03 276.518 371.865 270.233C377.183 263.705 377.425 263.464 384.678 267.332C388.787 269.508 393.864 271.2 395.798 271.2C400.15 271.2 402.809 262.98 401.6 253.31C400.633 244.849 408.128 238.805 411.754 244.607C412.963 246.541 414.171 250.651 414.171 253.552C414.171 258.145 415.38 258.87 425.775 258.629C432.061 258.629 443.182 259.112 450.434 259.837C462.038 261.046 463.73 261.771 464.456 266.848C466.39 282.562 466.873 283.287 474.851 280.386C480.895 278.452 482.829 278.694 486.939 282.32C492.257 286.914 498.784 285.221 500.718 278.211C501.202 276.277 499.993 277.002 497.817 279.661C493.949 284.496 493.949 284.496 489.356 279.178C485.488 274.584 483.796 274.101 477.269 276.035C468.807 278.452 468.082 277.727 466.873 265.156C466.148 258.145 465.664 257.903 451.643 256.695C441.731 255.969 437.38 254.519 437.863 252.585C438.347 248.959 434.479 248.475 432.303 251.86C431.577 253.068 429.402 254.277 427.951 254.277C426.259 254.277 426.984 252.585 429.643 250.651C432.544 248.475 437.38 247.75 443.423 248.475C448.984 249.442 455.269 248.475 459.379 246.541C463.005 244.607 471.708 240.256 478.477 236.871C486.697 232.519 491.774 231.311 494.191 232.761C496.125 233.97 498.784 234.937 499.993 234.695C501.444 234.695 499.751 233.245 496.367 231.552C491.048 228.41 489.356 228.651 480.411 233.97C475.093 237.113 468.324 239.772 465.664 239.772C463.005 239.772 459.379 241.223 457.928 243.157C455.753 245.816 453.577 246.058 447.775 243.882C441.489 241.464 439.072 241.706 431.094 246.541L421.666 251.86L418.765 246.541C417.314 243.398 413.93 238.563 411.27 235.662L406.435 230.344L397.007 236.629L387.82 242.673L391.205 251.134C396.523 263.705 395.798 264.672 384.678 258.87L374.524 253.794L368.722 260.321C363.887 266.123 362.436 266.606 357.118 264.189C348.898 260.563 347.931 260.804 339.47 267.815C335.36 271.2 331.976 272.892 331.976 271.683C331.976 270.475 333.668 268.057 335.36 266.365C337.294 264.914 340.195 259.837 341.646 255.486C343.58 249.926 346.481 246.541 351.799 244.849C358.568 242.431 359.052 241.464 357.601 234.454C356.393 228.651 357.36 225.509 361.228 221.399C364.854 217.531 365.338 215.597 363.162 214.388C361.469 213.179 360.744 213.421 361.711 214.872C362.678 216.322 361.228 219.223 358.568 221.641C355.909 224.058 353.733 227.684 353.733 229.618C353.733 231.794 353.008 232.761 352.283 231.794C351.558 231.069 353.25 219.465 356.393 205.927C360.261 188.521 363.645 179.818 367.755 175.224C372.832 169.664 373.315 167.73 371.14 160.719C368.722 152.741 368.722 152.741 379.601 147.906C393.864 141.621 394.106 141.621 398.699 150.807C400.875 155.159 403.051 159.027 403.293 159.51C403.776 159.994 407.402 158.543 411.512 156.609C415.38 154.434 421.182 152.983 424.325 153.467C427.951 153.708 429.885 152.5 430.61 149.115C431.094 146.214 430.61 145.247 429.402 146.939C428.435 148.39 424.325 150.082 420.215 150.807C416.347 151.533 411.27 152.741 409.336 153.708C406.677 154.675 404.26 152.741 401.117 146.698C398.457 141.863 395.073 138.478 393.381 139.203C391.447 139.929 390.721 138.962 391.688 136.786C392.414 134.852 391.688 131.951 390.238 130.259C386.612 125.665 392.172 114.545 398.941 112.852C402.084 112.127 404.985 108.984 405.952 105.842C406.677 102.699 409.578 99.3143 412.237 98.8308C416.589 97.622 417.072 96.1715 415.622 87.952C414.413 79.0071 414.897 77.7984 424.567 69.0953C430.127 63.7768 438.105 57.0077 441.973 54.1067C446.083 50.964 447.05 49.5134 444.39 50.964C441.489 52.1727 432.786 59.1835 424.567 66.4361C413.93 75.8644 410.545 80.4576 411.996 82.8752C415.138 87.9519 414.655 97.622 411.27 96.4133C409.578 95.9298 406.435 98.8308 404.501 102.941C402.326 107.292 398.699 110.677 395.315 111.16C392.414 111.644 389.996 113.578 389.996 115.27C389.996 116.962 388.304 120.347 386.128 122.522C382.985 125.423 382.744 127.116 384.919 129.292C391.447 135.819 384.678 143.555 367.513 148.873C364.129 150.082 363.645 151.291 365.821 154.917C369.447 161.928 368.722 168.455 363.645 173.049C359.052 177.158 359.052 176.917 358.085 163.137C356.876 146.939 352.525 135.094 344.789 126.632C341.646 123.248 339.228 119.621 339.228 118.654C339.228 114.545 344.063 116.479 347.69 122.281C350.107 125.907 354.459 128.324 359.777 129.05C364.129 129.533 367.272 129.05 366.788 128.083C366.063 127.116 362.92 126.149 360.019 126.149C356.634 126.149 352.766 123.731 350.349 120.105C348.173 116.72 344.305 114.061 341.888 114.061C339.228 114.061 334.635 109.71 330.525 103.182C326.899 97.1385 322.306 92.3035 320.613 92.3035C313.603 92.3035 318.196 88.1937 327.866 86.0179C337.294 84.0839 338.02 83.3587 337.294 76.3479C336.569 67.8866 338.987 65.2273 352.041 61.1175C356.876 59.4253 360.986 57.0077 360.986 55.5572C360.986 53.865 360.019 53.865 358.085 55.3155C356.393 56.766 351.799 58.4582 347.69 59.4252C337.294 62.0845 334.393 65.2273 334.393 74.4138V82.6334H322.064C307.559 82.6334 292.087 73.9303 295.955 68.1283C299.823 61.8428 298.131 59.4252 293.779 65.2273L289.427 70.7876L274.439 65.2273C259.45 59.9087 257.033 57.0077 262.351 51.6892C264.285 49.7552 264.285 48.0629 261.868 45.1619C259.209 42.0191 259.45 40.8104 262.835 37.1841C265.011 34.7666 266.703 29.9316 266.703 26.547C266.703 23.1625 268.395 19.0527 270.329 17.3604C272.263 15.6682 273.955 13.2507 273.955 12.0419C273.955 10.8332 271.296 13.0089 267.912 16.8769C264.527 20.9867 262.351 25.8218 263.318 27.7558C264.044 29.9315 262.11 33.3161 258.483 35.9753C252.923 40.3269 252.681 41.0521 256.307 44.6784C259.934 48.3047 259.934 49.0299 256.307 53.1397C252.923 56.766 250.264 57.4912 242.769 56.0407C234.066 54.5902 215.21 55.799 196.353 59.667C188.375 61.1175 187.408 60.634 184.991 54.3485C183.54 50.7222 181.848 43.7114 181.606 39.1181C181.123 32.1073 179.914 30.8985 176.046 31.382C173.387 31.8655 170.244 32.5908 168.793 32.5908C167.585 32.8326 166.134 30.6568 165.651 27.514C165.167 24.3713 163.233 21.2285 161.299 20.5032C159.365 19.778 155.014 13.7342 151.629 7.20687C147.519 -1.01268 144.376 -4.39719 141.959 -3.43018C138.574 -2.22142 128.904 -17.4518 128.904 -24.4626C128.904 -26.3966 126.245 -29.7811 122.861 -31.9569C119.476 -34.1326 116.817 -34.8579 116.817 -33.6491ZM145.827 2.85536C145.827 4.06412 144.135 5.27285 142.201 5.27285C140.267 5.27285 138.574 4.06412 138.574 2.85536C138.574 1.40485 140.267 0.437836 142.201 0.437836C144.135 0.437836 145.827 1.40485 145.827 2.85536ZM178.463 36.4588C177.013 37.6676 173.387 39.3599 170.002 40.0851C164.2 41.7774 164.2 41.5356 168.552 38.1511C173.628 34.0413 182.331 32.5908 178.463 36.4588ZM181.848 59.667V64.502L179.672 59.667C178.463 57.0077 177.496 53.1397 177.496 51.2057C177.255 48.0629 177.496 48.0629 179.672 51.2057C180.881 53.1397 181.848 57.0077 181.848 59.667ZM261.868 69.5788C291.845 78.2819 320.13 99.0725 335.602 123.731C339.47 129.775 343.822 135.577 345.272 137.028C348.898 139.929 352.283 148.632 349.14 146.939C347.931 145.972 347.448 147.665 348.173 150.566C349.14 153.708 350.107 154.675 351.316 152.741C353.25 149.599 356.151 155.159 356.151 161.928C356.151 165.071 355.667 165.312 353.975 162.895C353.008 161.203 352.525 168.455 353.25 179.092C354.459 202.059 347.931 230.827 336.327 250.893C321.097 277.969 286.526 302.869 254.373 309.88C236.967 313.748 201.672 311.814 185.716 306.254C168.068 300.21 142.201 281.837 131.08 268.057C109.081 240.256 98.9271 204.718 104.246 172.565C105.938 163.137 108.355 152.5 109.806 148.632C112.223 142.346 112.707 142.346 114.399 146.698C115.366 149.357 115.608 152.5 114.883 153.708C114.157 154.917 114.883 155.159 116.333 154.192C118.267 153.225 118.267 150.566 116.575 145.731C112.949 135.819 120.927 121.555 140.75 101.974C165.167 77.5567 191.76 66.6778 228.023 65.9526C241.077 65.7108 253.406 66.9196 261.868 69.5788ZM139.541 88.6772C137.366 92.0617 134.465 94.721 133.014 94.721C131.564 94.721 133.014 92.0617 136.157 88.6772C139.3 85.2927 142.201 82.6334 142.684 82.6334C143.168 82.6334 141.717 85.2927 139.541 88.6772ZM95.0591 183.444C94.8173 191.905 94.5756 192.389 91.4328 188.037C89.0153 184.894 88.7735 182.235 90.4658 179.092C93.8503 172.323 95.0591 173.532 95.0591 183.444ZM402.809 241.223C396.282 246.299 395.315 248.233 397.249 251.86C401.117 258.87 399.908 261.046 396.04 254.277C391.205 245.816 391.447 243.882 399.183 239.289C409.095 233.003 411.512 234.212 402.809 241.223ZM104.729 243.398C104.729 245.332 100.619 248.717 95.7843 250.651C81.2792 256.695 79.8287 258.629 85.1473 266.123C89.4988 272.409 89.4988 272.409 81.7627 278.936C76.686 283.287 73.0597 284.738 70.8839 283.287C68.9499 282.079 67.9829 280.628 68.4664 280.386C69.1917 279.903 72.5762 277.485 76.4442 275.31C82.7297 271.2 82.9715 270.716 79.3452 263.947C74.7519 254.761 78.62 246.541 86.5978 248.475C89.7405 249.2 94.0921 247.75 97.7184 244.849C104.729 238.805 104.729 238.805 104.729 243.398ZM375.491 258.87C375.491 259.837 372.832 263.705 369.447 267.332C364.371 272.892 362.92 273.376 357.36 270.716C351.558 268.057 350.349 268.541 342.855 276.76C338.261 281.595 332.459 285.705 329.8 285.705C324.24 285.705 323.998 285.463 326.174 279.903C326.899 277.727 329.317 276.035 331.492 276.035C333.668 276.035 338.503 273.134 342.129 269.508C348.173 263.947 349.865 263.222 353.733 265.881C360.744 270.233 365.096 269.508 369.931 262.738C374.766 256.211 375.491 255.728 375.491 258.87ZM49.1263 278.211C49.1263 281.837 39.9397 291.749 38.2474 290.056C36.0717 287.881 43.3242 276.035 46.7087 276.035C48.1593 276.035 49.1263 277.002 49.1263 278.211ZM143.409 297.067C143.409 303.111 143.168 303.353 139.541 299.726C137.366 297.551 136.399 294.65 137.124 293.199C140.267 288.364 143.409 290.54 143.409 297.067ZM160.332 320.275C160.332 321.968 158.156 323.418 155.497 323.418C150.662 323.418 149.453 321.726 152.354 318.825C155.014 315.924 160.332 316.891 160.332 320.275ZM176.046 341.308C176.771 342.517 175.321 343.725 172.42 343.725C169.519 343.725 168.068 342.517 168.793 341.308C169.519 339.857 171.211 338.89 172.42 338.89C173.628 338.89 175.321 339.857 176.046 341.308Z" fill="black"/>
<path d="M317.474 34.7662C314.331 40.0847 310.705 42.744 307.32 42.744C303.21 42.744 301.76 44.1945 301.518 48.3043C301.276 52.6558 301.276 52.8976 302.243 48.7878C303.452 43.4693 305.628 42.744 309.496 46.612C311.188 48.3043 313.847 45.8868 318.199 38.1507C325.21 25.5796 324.726 22.9204 317.474 34.7662Z" fill="black"/>
<path d="M378.395 34.2828C384.439 38.8761 384.439 38.8761 393.867 34.2828C398.944 31.6236 401.845 29.4478 400.153 29.4478C398.461 29.4478 393.867 31.14 390.241 33.0741C383.956 36.2168 382.989 36.2168 380.329 33.0741C378.637 31.14 376.219 29.4478 374.769 29.4478C373.56 29.4478 375.252 31.6236 378.395 34.2828Z" fill="black"/>
<path d="M383.227 197.707C381.777 200.608 379.118 201.333 375.491 200.366C369.448 198.674 360.986 202.058 360.986 206.168C360.986 207.619 362.679 207.135 364.613 204.959C367.03 202.542 370.898 201.817 375.25 202.542C380.81 203.751 382.986 203.025 384.92 198.916C388.304 192.872 386.37 191.905 383.227 197.707Z" fill="black"/>
<path d="M77.4134 227.927C71.6114 233.487 67.2599 240.014 67.2599 242.915C67.2599 246.542 65.8094 248.234 63.1501 247.992C60.7326 247.75 59.5238 248.476 60.2491 249.684C62.1831 252.827 68.4686 252.344 68.9521 248.717C68.9521 247.267 69.4356 244.608 69.4356 243.399C70.1609 238.08 79.5892 226.718 86.6 222.608C90.468 219.949 92.402 218.015 90.7098 218.015C88.7758 218.015 82.9737 222.366 77.4134 227.927Z" fill="black"/>
<path d="M-6.71735 321.242C-10.1019 325.11 -15.1787 331.154 -18.0797 334.781L-23.1565 341.55L-27.2662 335.264C-30.409 330.429 -31.8595 329.704 -34.5188 331.879C-36.4528 333.33 -37.9033 335.989 -37.9033 337.44C-37.9033 338.89 -36.6946 338.407 -35.4858 336.473C-33.31 333.33 -32.1013 333.814 -27.9915 338.89L-22.9147 344.934L-16.3874 336.473C-13.0029 331.879 -7.20086 325.11 -3.57458 321.242C-0.19006 317.616 1.98571 314.715 1.0187 314.715C0.051692 314.715 -3.57458 317.616 -6.71735 321.242Z" fill="black"/>
<path d="M357.845 323.418C357.12 324.869 357.845 328.253 359.779 330.913C362.68 335.022 365.098 335.748 374.284 334.781C381.779 333.814 386.855 334.539 391.207 337.44C398.218 342.033 398.701 346.385 393.383 354.363C388.789 361.857 390.723 362.824 407.404 362.34C418.041 361.857 419.975 361.373 416.833 358.956C414.415 357.264 411.514 357.022 408.855 358.472C406.679 359.681 402.086 360.648 398.459 360.648C392.416 360.648 392.416 360.406 396.284 354.604C404.987 341.55 393.383 330.429 372.834 332.121C363.405 332.847 362.197 332.363 360.988 326.803C360.263 323.418 358.812 321.968 357.845 323.418Z" fill="black"/>
<path d="M190.552 330.187C191.277 332.846 190.552 335.748 188.859 336.715C186.684 338.165 186.684 339.616 188.859 344.209C190.793 347.593 191.277 347.835 190.552 345.176C189.826 342.758 190.552 339.374 192.002 337.44C193.936 335.264 193.694 333.088 191.76 329.945C189.101 325.836 189.101 325.836 190.552 330.187Z" fill="black"/>
<path d="M247.364 339.132C245.914 341.792 244.947 345.176 245.43 346.385C245.914 347.594 247.364 345.418 249.057 341.308C252.2 333.089 251.233 331.638 247.364 339.132Z" fill="black"/>
<path d="M167.103 388.449C164.686 391.592 162.752 395.702 162.752 397.394C162.752 399.086 165.169 396.911 167.829 392.559C173.873 383.373 173.147 380.23 167.103 388.449Z" fill="black"/>
<path d="M323.517 409.482C323.275 415.284 322.55 422.778 321.341 426.404C319.891 431.481 320.374 433.173 324.484 435.591C328.835 437.766 330.528 437.283 335.363 432.448C338.264 429.305 341.406 425.437 341.89 423.745C343.582 419.152 354.945 424.47 363.164 433.657L370.417 441.635L378.878 437.041C383.713 434.382 387.097 431.964 386.614 431.481C386.13 430.997 382.262 432.448 378.153 434.865L370.417 439.217L363.889 431.481C360.263 427.371 353.736 422.294 349.626 420.119L341.648 416.251L338.264 424.712C335.846 430.272 332.945 433.173 329.802 433.173C322.792 433.173 322.066 430.514 326.176 418.91C328.594 411.657 328.835 407.548 327.143 404.163C325.693 401.504 324.242 399.328 324 399.328C323.759 399.328 323.517 403.921 323.517 409.482Z" fill="black"/>
<path d="M423.843 441.635C428.437 446.228 432.546 450.096 433.272 450.096C433.997 450.096 430.854 446.228 426.261 441.635C421.668 437.042 417.558 433.174 416.833 433.174C416.107 433.174 419.25 437.042 423.843 441.635Z" fill="black"/>
<path d="M449.953 436.074C448.019 437.766 444.876 442.843 443.184 446.953C440.525 453.964 439.074 454.931 430.13 455.414L420.218 455.656L429.404 456.623C440.283 457.832 444.635 454.931 446.81 445.261C447.777 440.667 450.437 437.525 454.788 435.832C458.415 434.624 459.623 433.415 457.448 433.415C455.514 433.173 452.129 434.624 449.953 436.074Z" fill="black"/>
</svg>
