<svg width="270" height="361" viewBox="0 0 270 361" fill="none" xmlns="http://www.w3.org/2000/svg">
<ellipse cx="135" cy="132" rx="134" ry="132" fill="#DFDFDF" fill-opacity="0.8"/>
<path d="M215.5 238C178.5 272.5 74 270.5 58 245L39.5 328C53 350 111.3 382.7 236.5 337.5C233.167 320.833 227 286.3 229 281.5C226.333 268.667 219.9 242 215.5 238Z" fill="url(#paint0_radial_317_241)"/>
<path d="M136.526 1.575C159.423 3.1725 171.848 6.19 189.066 14C212.673 24.65 236.991 46.1275 248.706 66.7175C251.546 71.865 254.386 76.125 254.918 76.125C255.273 76.125 253.498 71.865 250.658 66.7175C243.026 52.695 216.401 26.6025 200.426 17.7275C178.593 5.6575 162.263 1.22 137.413 0.687496L116.113 0.154996L136.526 1.575Z" fill="black"/>
<path d="M98.0083 4.23756C73.3358 10.9826 48.8408 25.1826 34.2858 41.1576C25.7658 50.5651 14.7608 66.5401 12.9858 72.2201C12.4533 73.8176 14.2283 71.5101 17.0683 67.0726C38.1908 32.8151 66.4133 12.9351 106.351 4.06006C111.676 2.99506 114.161 1.93006 111.676 1.93006C109.191 1.75256 103.156 2.99506 98.0083 4.23756Z" fill="black"/>
<path d="M125.52 4.59239C128.538 4.94739 133.863 4.94739 137.058 4.59239C140.075 4.23739 137.59 3.88239 131.2 3.88239C124.81 3.88239 122.325 4.23739 125.52 4.59239Z" fill="black"/>
<path d="M99.2501 7.96506C93.9251 9.38506 82.0326 14.1776 72.8026 18.6151C59.1351 25.3601 53.2776 29.6201 41.5626 41.3351C33.5751 49.1451 25.9426 57.6651 24.8776 60.1501C23.2801 63.1676 24.1676 62.6351 27.5401 58.3751C47.7751 32.4601 77.4176 13.8226 107.948 7.78756C114.338 6.54506 117.355 5.48006 114.338 5.48006C111.498 5.30256 104.575 6.54506 99.2501 7.96506Z" fill="black"/>
<path d="M152.145 7.07745C171.67 10.2724 196.343 21.0999 211.43 32.8149C215.513 36.0099 214.98 35.2999 210.188 30.8624C197.408 19.1474 162.263 4.76995 147.885 5.30245C144.69 5.47995 146.465 6.18995 152.145 7.07745Z" fill="black"/>
<path d="M117.888 10.6274C93.2156 13.1124 67.4781 25.0049 49.9056 41.8674L39.7881 51.6299L51.1481 41.8674C85.9381 11.3374 136.171 3.70488 181.256 21.8099C194.391 27.1349 194.746 25.8924 181.611 20.0349C162.973 11.8699 139.898 8.31988 117.888 10.6274Z" fill="black"/>
<path d="M255.627 77.9C255.45 78.4325 257.402 83.58 259.887 89.4375C262.195 95.295 264.325 98.845 264.325 97.425C264.325 94.94 255.805 75.9475 255.627 77.9Z" fill="black"/>
<path d="M267.52 128.487C267.875 140.202 268.408 150.497 268.763 151.562C270.005 155.112 269.295 117.66 268.053 112.512C267.343 109.495 266.988 116.772 267.52 128.487Z" fill="black"/>
<path d="M0.205333 133.813C-0.504667 169.313 12.9853 200.73 40.8528 229.13L55.9403 244.573L53.6328 253.093C50.4378 265.34 38.9003 323.915 38.9003 327.643C39.0778 334.033 41.9178 325.69 46.7103 305.1C52.2128 281.67 56.6503 267.115 57.8928 268.535C58.4253 268.89 57.3603 273.505 55.7628 278.298C54.1653 283.268 53.1003 288.415 53.4553 289.48C53.9878 290.723 55.2303 287.705 56.4728 282.913C57.8928 277.233 59.1353 274.925 60.0228 276.523C61.0878 278.12 61.7978 277.588 62.6853 274.57C63.5728 271.198 64.1053 271.02 65.5253 273.15C66.9453 275.458 67.3003 275.28 67.3003 272.618C67.3003 269.068 62.8628 268.535 61.2653 271.73C60.7328 272.973 60.5553 272.44 60.7328 270.488C61.0878 268.358 62.3303 267.293 63.9278 267.648C65.3478 268.003 69.0753 268.713 72.2703 269.245C79.5478 270.133 79.5478 272.263 72.2703 274.748C69.2528 275.813 67.1228 277.055 67.6553 277.588C68.1878 278.12 71.9153 277.055 76.1753 275.103C83.6303 271.73 89.6653 271.908 87.5353 275.103C87.0028 275.99 86.1153 276.523 85.4053 276.168C84.6953 275.813 82.7428 276.878 81.1453 278.83C77.9503 282.025 79.1928 283.445 82.5653 280.428C83.4528 279.54 85.7603 278.475 87.7128 278.12C89.6653 277.943 92.3278 276.523 93.9253 275.458C95.3453 274.215 98.1853 271.908 100.138 270.488C103.688 267.648 103.688 267.648 99.9603 269.423C98.0078 270.31 95.3453 270.488 94.1028 269.778C90.5528 267.47 113.273 264.098 120.55 265.695C127.473 267.293 145.045 266.938 151.968 265.163C154.808 264.453 155.873 264.808 155.163 266.05C154.453 267.115 155.873 267.825 158.713 267.825C161.198 267.825 163.683 266.583 164.215 265.163C164.925 263.743 166.523 262.5 167.943 262.5C170.073 262.5 170.073 262.855 167.765 265.34C163.505 269.423 164.393 270.133 169.363 266.76C171.848 265.163 173.8 264.453 173.8 265.163C173.8 265.873 174.865 265.518 176.285 264.453C178.06 262.855 178.948 263.033 179.658 264.808C180.9 268.003 174.51 271.908 166.878 272.795C162.44 273.328 161.375 272.795 162.263 271.02C163.328 269.245 163.15 269.068 161.198 270.843C159.778 272.263 153.92 273.15 146.643 273.15C139.72 273.15 134.928 273.86 135.46 274.748C136.17 275.635 135.46 276.878 134.395 277.233C133.153 277.765 142.56 278.298 155.163 278.475C167.943 278.653 180.19 279.008 182.675 279.008C185.16 279.185 187.823 278.475 188.533 277.588C189.42 276.523 189.775 276.878 189.243 278.475C188.71 280.605 185.16 281.138 173.09 281.315C157.47 281.67 148.95 283.8 163.328 283.8C170.96 283.978 171.138 283.978 166.7 286.463C164.215 287.883 163.15 288.948 164.215 289.125C165.103 289.125 167.588 287.883 169.54 286.463C171.315 285.043 176.463 283.978 180.9 283.978C187.823 283.978 188.355 284.155 185.338 285.93C183.385 287.173 180.723 289.125 179.48 290.368C178.238 291.61 176.285 292.675 175.22 292.675C174.155 292.675 173.623 293.208 174.333 293.74C174.865 294.45 178.06 293.208 181.255 291.255C184.45 289.303 188.178 288.238 189.42 288.593C192.615 289.835 192.083 294.45 188.533 295.693C186.935 296.403 184.273 298.178 182.675 299.598C181.078 301.195 178.238 303.325 176.285 304.568C173.09 306.52 173.09 306.52 176.818 305.633C178.948 305.1 181.965 303.148 183.74 301.373C185.338 299.598 188.178 298 189.953 298C191.55 298 193.325 297.113 193.68 296.225C194.035 295.16 195.1 295.87 196.343 297.645C198.118 300.663 197.408 301.728 190.485 305.988C186.048 308.828 182.143 311.668 181.61 312.555C181.078 313.443 184.805 311.49 189.953 308.295C195.988 304.745 199.538 303.325 200.07 304.745C201.135 308.118 200.248 309.36 190.84 315.395C179.658 322.495 181.788 323.028 193.325 315.928C201.313 310.958 202.023 310.958 204.508 313.62C208.768 318.59 211.253 324.625 210.01 326.755C209.3 327.82 209.478 328.175 210.72 327.465C212.673 326.223 215.513 332.435 213.915 334.92C213.56 335.63 214.625 336.518 216.578 336.518C220.483 336.873 220.838 334.033 217.288 329.24C215.868 327.465 215.158 325.158 215.69 324.448C216.223 323.56 215.868 322.85 214.98 322.85C214.093 322.85 211.963 319.478 210.188 315.218C208.59 311.135 205.218 304.035 202.91 299.243C200.603 294.628 199.36 290.9 200.425 290.9C201.313 290.9 204.863 296.403 208.058 303.325C211.43 310.07 214.625 315.04 215.158 314.508C215.69 313.975 214.98 311.668 213.383 309.36C210.01 304.213 212.14 301.018 215.513 305.81C217.82 309.005 217.998 308.828 219.24 304.39C220.483 298.888 222.79 298.355 224.033 303.148C224.565 305.455 223.5 307.763 221.015 309.538L217.288 312.378L221.37 310.425C223.5 309.36 225.275 309.183 225.275 309.893C225.275 310.603 226.163 310.07 227.05 308.65C228.47 306.343 228.825 306.52 228.825 309.183C228.825 311.135 226.34 314.863 223.323 317.703C217.82 322.85 221.193 323.205 227.05 318.235C229.89 315.75 230.423 316.638 235.215 336.163C236.458 341.133 236.635 341.31 237.345 337.228C237.878 333.855 238.41 333.5 239.83 335.453C241.25 337.405 241.428 337.228 240.54 334.743C240.008 332.968 239.475 329.773 239.298 327.643C239.12 324.093 238.943 324.093 237.523 328.175C236.458 331.37 236.28 330.305 236.813 323.738C237.345 316.993 237.168 315.75 235.925 318.413C234.505 321.075 234.328 320.365 235.038 314.863C235.748 309.36 235.57 308.473 234.15 310.425C232.553 312.555 232.375 312.378 233.263 309.36C234.86 303.148 225.985 255.933 220.66 243.153L217.998 237.295L229.358 226.29C235.57 220.255 243.203 211.558 246.398 206.943C252.788 197.535 261.663 179.253 260.243 178.01C259.888 177.478 258.113 180.495 256.338 184.755C249.593 201.973 233.085 222.208 213.56 237.118C206.105 242.975 188 252.383 186.758 251.14C186.048 250.608 184.45 251.14 182.853 252.56C180.013 255.045 172.025 258.063 172.025 256.643C172.025 256.288 176.463 252.915 181.788 249.188C187.29 245.46 191.373 242.088 190.84 241.733C190.485 241.2 184.805 245.105 178.238 250.075C169.54 256.82 165.28 259.128 162.085 258.418C159.778 258.063 158.358 258.24 158.713 259.128C161.02 262.5 117.178 263.21 94.6353 260.015C79.0153 257.708 51.3253 239.958 36.7703 223.095C14.0503 196.47 4.28783 172.508 1.62533 137.363L0.382833 119.613L0.205333 133.813ZM215.69 250.43C215.513 251.673 214.803 253.803 214.093 254.868C212.318 257.708 214.98 257.885 217.82 255.045C219.418 253.448 219.95 253.448 219.95 255.045C219.95 256.998 199.005 269.6 195.81 269.6C194.923 269.6 197.585 267.293 201.845 264.453C207.703 260.548 208.945 259.128 206.638 258.24C205.04 257.708 204.153 257.885 204.685 258.773C206.283 261.258 189.243 271.375 183.563 271.375C179.658 271.375 179.125 270.843 180.723 269.068C181.788 267.648 182.143 266.05 181.433 265.34C180.723 264.63 181.255 263.388 182.675 262.5C186.935 259.838 189.065 260.548 185.16 263.388C179.658 267.47 183.385 266.405 194.213 260.725C201.845 256.643 205.04 255.933 207.525 257.175C211.43 259.305 212.85 259.483 212.673 257.53C212.495 256.82 212.673 255.755 212.85 254.868C213.028 254.158 213.56 252.738 213.738 251.85C213.915 250.785 214.27 249.72 214.448 249.188C214.803 247.235 216.045 248.478 215.69 250.43ZM61.0878 253.448C60.5553 254.513 61.6203 255.933 63.2178 256.998C64.9928 258.063 65.7028 258.773 64.6378 258.95C61.2653 258.95 57.8928 255.755 59.1353 253.803C59.8453 252.738 60.7328 251.85 61.2653 251.85C61.7978 251.85 61.7978 252.56 61.0878 253.448ZM72.4478 259.128C71.0278 260.015 69.2528 260.725 68.1878 260.725C67.3003 260.725 67.4778 260.015 68.8978 259.128C70.8503 257.885 70.4953 257.353 67.4778 256.288C65.5253 255.755 63.7503 254.513 63.7503 253.625C63.7503 252.738 66.2353 253.448 69.2528 254.868C73.3353 256.998 74.2228 258.063 72.4478 259.128ZM76.1753 263.21C76.1753 264.63 77.2403 266.228 78.4828 266.76C79.5478 267.293 78.3053 267.293 75.2878 266.583C72.4478 266.05 69.2528 264.808 68.1878 263.743C66.9453 262.678 67.6553 262.323 70.4953 263.033C72.6253 263.565 74.0453 263.21 73.3353 262.323C72.8028 261.435 73.3353 260.725 74.2228 260.725C75.2878 260.725 76.1753 261.79 76.1753 263.21ZM90.0203 265.163C87.0028 267.648 81.5003 269.423 81.5003 267.825C81.5003 266.938 82.7428 266.05 84.1628 266.05C85.5828 266.05 86.8253 265.163 86.8253 264.098C86.8253 263.21 87.7128 262.855 88.7778 263.388C89.8428 264.098 90.3753 264.808 90.0203 265.163ZM207.525 282.38C207.525 284.155 208.413 285.575 209.3 285.575C211.785 285.575 211.608 279.718 208.945 277.055C207.348 275.458 207.348 274.925 208.945 274.925C212.495 274.925 213.56 283.623 210.365 287.173C206.993 290.9 206.638 296.935 209.833 295.693C210.898 295.338 211.785 293.74 211.43 291.965C211.075 290.368 211.785 289.125 212.85 289.125C213.915 289.125 214.448 289.835 213.738 290.723C213.205 291.61 213.56 292.853 214.625 293.563C215.513 294.095 216.4 296.048 216.223 297.645C216.223 299.598 215.69 299.775 215.158 298.355C214.803 297.29 213.56 296.225 212.495 296.225C211.43 296.225 211.075 297.468 211.785 298.888C212.318 300.308 211.963 301.55 210.898 301.55C208.235 301.55 203.975 290.19 206.105 288.948C207.17 288.238 206.815 286.108 204.863 283.268C203.265 280.605 202.378 277.765 203.088 276.523C204.685 274.038 207.525 277.765 207.525 282.38ZM202.733 283.978C203.443 286.818 203.265 287.173 201.135 285.398C198.295 283.09 197.763 280.25 200.248 280.25C201.135 280.25 202.2 281.848 202.733 283.978ZM219.95 285.93C219.95 286.818 219.24 287.35 218.175 287.35C217.288 287.35 216.4 285.575 216.4 283.268C216.4 280.073 216.755 279.895 218.175 282.025C219.063 283.445 219.95 285.22 219.95 285.93ZM225.985 288.06C224.743 293.03 221.725 294.45 221.725 290.013C221.725 288.593 222.613 287.35 223.5 287.35C224.565 287.35 225.275 285.93 225.275 284.333C225.275 282.735 225.63 281.848 226.163 282.38C226.873 282.913 226.695 285.398 225.985 288.06ZM221.725 295.693C221.725 296.935 221.015 298 219.95 298C219.063 298 218.175 295.87 218.175 293.03C218.175 289.303 218.53 288.77 219.95 290.9C220.838 292.32 221.725 294.628 221.725 295.693ZM227.405 299.065C226.695 303.148 226.34 303.325 224.743 300.663C223.323 298.178 225.098 294.983 228.115 294.45C228.293 294.45 227.938 296.58 227.405 299.065Z" fill="black"/>
<path d="M255.806 145.35C255.806 148.722 256.161 150.142 256.693 148.367C257.048 146.77 257.048 143.93 256.693 142.155C256.161 140.557 255.806 141.977 255.806 145.35Z" fill="black"/>
<path d="M261.13 148.9C261.13 152.272 261.485 153.692 262.017 151.917C262.372 150.32 262.372 147.48 262.017 145.705C261.485 144.107 261.13 145.527 261.13 148.9Z" fill="black"/>
<path d="M96.5878 157.242C91.0853 158.485 83.4528 161.502 70.6728 167.537C64.1053 170.732 56.4728 173.927 53.8103 174.637C50.9703 175.347 49.5503 176.235 50.6153 176.767C52.5678 177.477 62.3303 173.927 78.1278 167.005C96.7653 158.84 98.3628 158.485 96.4103 161.68C95.3453 163.455 95.7003 163.455 97.6528 161.68C98.8953 160.615 101.558 159.55 103.688 159.55C106.528 159.55 106.705 159.195 104.575 157.775C103.155 156.887 101.558 156.177 101.025 156.177C100.493 156.355 98.5403 156.71 96.5878 157.242Z" fill="black"/>
<path d="M245.865 161.503C244.445 168.958 245.865 170.378 247.463 163.1C248.173 160.083 248.35 157.065 247.818 156.71C247.463 156.178 246.575 158.485 245.865 161.503Z" fill="black"/>
<path d="M248.527 176.768C244.445 188.128 234.682 202.86 225.275 211.735C220.305 216.528 216.4 220.61 216.755 220.965C217.997 222.03 234.327 205.168 239.652 197.358C245.51 189.015 252.255 174.105 251.545 171.62C251.19 170.733 249.77 173.04 248.527 176.768Z" fill="black"/>
<path d="M33.5752 179.075C33.5752 182.802 54.3427 211.025 57.0052 211.025C58.0702 211.025 55.7627 207.652 52.0352 203.392C44.2252 195.05 36.2377 182.98 37.6577 181.56C38.0127 181.205 40.3202 180.317 42.4502 179.962C49.5502 178.542 48.6627 177.3 41.0302 177.832C36.9477 178.01 33.5752 178.542 33.5752 179.075Z" fill="black"/>
<path d="M236.28 185.82C233.973 189.37 230.955 194.162 229.535 196.292C227.938 198.6 227.05 200.375 227.76 200.375C229.358 200.375 241.96 180.85 240.895 179.962C240.54 179.43 238.41 182.092 236.28 185.82Z" fill="black"/>
<path d="M21.1504 183.335C21.1504 184.223 23.9904 190.08 27.5404 196.293C33.9304 207.83 49.5504 225.048 57.0054 228.953C59.3129 230.018 57.8929 228.065 53.9879 224.693C50.0829 221.143 46.5329 218.303 46.0004 218.125C44.2254 218.125 31.8004 200.908 26.4754 191.145C23.6354 185.998 21.1504 182.448 21.1504 183.335Z" fill="black"/>
<path d="M24.1681 202.328C25.9431 205.345 31.8006 212.445 37.1256 218.125C42.4506 223.628 43.6931 224.515 39.6106 219.9C35.5281 215.463 30.0256 208.363 27.3631 204.28C21.6831 195.583 19.5531 194.34 24.1681 202.328Z" fill="black"/>
<path d="M42.2727 205.345C45.2902 209.25 49.0177 213.332 50.7927 214.752C52.5677 216.172 50.4377 212.977 46.1777 207.83C37.1252 197.18 34.1077 195.227 42.2727 205.345Z" fill="black"/>
<path d="M190.486 246.88L187.113 250.607L192.083 247.412C197.053 244.217 197.941 242.975 195.456 242.975C194.568 242.975 192.438 244.75 190.486 246.88Z" fill="black"/>
<path d="M93.0374 280.25C91.7949 283.977 88.4224 285.22 89.3099 281.492C89.4874 280.427 89.4874 279.895 89.1324 280.782C88.5999 281.492 87.5349 281.67 86.6474 281.137C85.7599 280.427 85.5824 281.137 85.9374 282.38C86.6474 283.977 84.1624 286.462 79.7249 288.947C71.5599 293.385 69.9624 295.87 77.7724 291.965L82.9199 289.302L82.3874 297.467C82.0324 301.905 80.7899 306.52 79.5474 307.585C77.4174 309.537 77.4174 309.005 80.6124 301.017C82.2099 297.29 79.7249 297.112 75.1099 300.662C72.2699 302.97 72.2699 303.147 74.9324 302.26C78.6599 300.84 78.8374 303.147 75.2874 308.117C72.8024 311.667 72.8024 312.022 76.1749 311.667C78.1274 311.49 79.7249 310.78 79.7249 310.07C79.7249 309.36 82.9199 307.052 86.8249 305.1C90.7299 303.147 93.9249 301.017 93.9249 300.662C93.9249 300.13 91.6174 300.84 88.5999 302.437C81.4999 306.165 81.6774 302.792 88.7774 296.047C92.1499 293.03 93.0374 291.432 91.0849 292.142C88.4224 293.207 88.5999 291.965 92.6824 285.042C95.3449 280.427 96.7649 276.7 95.8774 276.7C94.9899 276.7 93.5699 278.297 93.0374 280.25ZM87.7124 291.077C86.1149 294.095 84.3399 296.047 83.8074 295.515C82.7424 294.45 87.8899 285.575 89.4874 285.575C90.0199 285.575 89.1324 288.06 87.7124 291.077Z" fill="black"/>
<path d="M63.3954 298.177C59.6679 300.13 56.6504 302.082 56.6504 302.437C56.6504 302.97 59.8454 301.727 63.7504 299.775C67.6554 297.822 70.8504 295.692 70.8504 295.337C70.8504 294.095 70.8504 294.095 63.3954 298.177Z" fill="black"/>
<path d="M76.8855 315.572C77.418 316.46 75.4655 318.057 72.6255 319.3C69.608 320.542 67.478 321.962 68.0105 322.317C68.3655 322.672 71.738 321.607 75.288 319.655C80.613 316.992 81.323 316.105 79.0155 315.217C77.418 314.507 76.353 314.685 76.8855 315.572Z" fill="black"/>
<path d="M200.78 321.785C194.745 325.157 193.68 326.755 198.65 324.98C201.135 324.092 204.153 323.56 205.395 323.915C206.638 324.092 206.815 323.915 205.75 323.382C204.863 323.027 204.33 321.785 205.04 320.897C206.105 318.945 205.928 318.945 200.78 321.785Z" fill="black"/>
<path d="M227.05 327.288C224.565 330.128 226.518 330.838 230.423 328.353C231.843 327.465 232.02 326.4 230.955 325.69C230.068 325.158 228.293 325.868 227.05 327.288Z" fill="black"/>
<defs>
<radialGradient id="paint0_radial_317_241" cx="0" cy="0" r="1" gradientUnits="userSpaceOnUse" gradientTransform="translate(211 260) rotate(153.506) scale(181.569 292.786)">
<stop stop-color="#BA712E"/>
<stop offset="0.0001" stop-color="#805126"/>
<stop offset="1" stop-color="#BA712E"/>
</radialGradient>
</defs>
</svg>
