<svg width="580" height="580" viewBox="0 0 580 580" fill="none" xmlns="http://www.w3.org/2000/svg">
<g clip-path="url(#clip0_383_4)">
<path d="M180.267 48.7359C178.092 59.1312 179.784 59.6147 182.927 49.4612C184.377 44.8679 184.861 40.9999 183.652 40.9999C182.685 40.9999 181.234 44.3844 180.267 48.7359Z" fill="black"/>
<path d="M106.536 56.7134C108.711 59.3727 111.129 63.2407 111.854 65.1747C113.063 68.3175 113.305 68.3175 113.305 64.933C113.546 62.7572 111.129 59.131 108.228 56.4717C102.667 51.8784 102.667 51.8784 106.536 56.7134Z" fill="black"/>
<path d="M178.817 67.3506C178.817 68.5594 180.751 70.2517 183.168 70.9769C185.828 71.9439 188.487 76.7789 190.421 83.7897C192.113 90.317 194.289 98.5366 195.256 102.646C196.706 108.207 198.64 109.657 202.508 109.415C206.618 108.932 208.069 110.866 210.728 120.294C213.629 129.964 214.838 131.657 219.431 130.931C224.024 130.206 224.75 131.173 224.75 138.667C224.75 146.645 224.991 147.129 230.552 144.953C236.112 143.019 236.354 143.502 237.321 152.931C238.046 160.183 237.321 163.81 234.661 165.985C232.002 167.919 230.31 167.919 229.343 166.227C228.376 164.535 226.684 165.502 225.233 168.403C222.332 173.721 204.926 180.249 200.574 177.589C199.124 176.622 196.948 173.238 195.739 170.337C193.805 165.26 192.838 164.777 185.586 166.952C174.949 169.853 175.19 169.853 172.048 163.084C170.114 158.733 167.213 157.04 162.619 157.04C157.301 156.799 154.4 154.623 148.84 145.92C144.488 138.667 142.554 133.349 143.521 129.723C144.488 125.855 143.279 122.712 139.895 119.811C135.301 115.943 135.301 115.217 138.686 110.141C142.07 104.822 141.829 104.097 136.752 99.2618C133.609 96.3608 129.258 89.8335 126.84 84.515C124.423 79.1964 120.555 74.6032 117.412 73.8779L112.335 72.6692L117.412 76.7789C120.313 78.9547 123.456 83.3062 124.423 86.449C125.148 89.35 128.532 94.9103 131.917 98.7783C135.543 103.13 136.752 106.514 135.301 107.481C131.917 109.657 132.4 117.393 136.027 121.261C140.62 125.613 142.796 141.327 139.411 144.711C135.785 148.337 132.884 148.096 132.884 143.744C132.884 141.81 130.708 139.151 128.049 137.7C125.39 136.25 123.214 133.107 123.214 130.69C123.214 127.305 122.005 126.338 118.621 127.305C115.72 128.03 112.819 126.58 110.159 122.953C107.983 119.811 106.291 118.602 106.291 120.052C106.291 123.92 113.302 130.448 117.412 130.448C119.346 130.448 120.796 132.14 120.796 134.316C120.796 136.492 122.972 138.667 125.631 139.393C128.774 140.118 130.466 142.777 130.466 146.403C130.466 152.931 131.192 153.414 137.477 149.304C143.037 145.92 149.807 148.337 151.499 154.623C152.466 158.007 154.883 159.458 159.718 159.458C164.795 159.458 167.454 161.15 170.355 166.469C173.74 172.996 174.465 173.48 181.718 171.304C188.729 169.37 190.179 169.853 194.772 175.897C199.607 181.699 199.849 182.908 196.706 186.292C194.772 188.468 192.838 192.578 192.113 195.479C191.63 198.138 190.421 201.765 189.696 202.973C187.762 205.874 176.399 198.622 176.399 194.512C176.399 192.82 173.74 190.886 170.355 190.402C167.213 189.677 165.037 190.16 165.762 191.127C166.487 192.336 168.663 193.303 170.597 193.303C172.531 193.303 173.982 195.479 173.982 198.138C173.982 200.798 175.674 202.973 177.608 202.973C179.784 202.973 181.96 204.666 182.685 206.6C184.619 211.193 169.63 237.302 166.246 235.126C164.312 234.159 164.07 235.126 165.037 237.786C168.421 246.247 154.883 244.555 145.455 235.368C143.037 232.951 141.103 232.709 136.268 234.885C130.95 237.302 129.499 237.06 126.84 233.676C124.423 230.05 123.456 230.05 119.346 233.192C112.819 238.027 110.159 237.544 107.5 231.258C106.049 228.357 101.456 224.247 97.3464 222.313C92.9949 220.379 89.3686 216.995 89.3686 214.819C89.3686 212.643 87.1928 210.226 84.5336 209.501C78.9733 208.05 78.4898 201.765 83.3248 193.303C88.4016 184.6 87.9181 183.633 79.6985 185.084C73.1712 186.534 72.446 186.051 72.446 180.732C72.446 177.348 69.7867 171.787 66.4022 168.161C63.0177 164.535 60.3584 163.084 60.3584 164.777C60.3584 166.469 62.5342 169.37 65.1934 171.062C68.3362 172.996 70.0285 176.622 70.0285 181.216C70.0285 187.259 70.9955 188.468 76.0723 188.468C81.3908 188.468 81.8743 188.952 79.4568 194.27C76.0723 201.523 78.4898 212.643 83.3248 212.643C85.5006 212.643 86.2258 214.094 85.5006 216.27C84.5336 218.687 86.2258 220.621 90.8191 222.555C100.247 225.94 106.291 231.742 106.291 237.302C106.291 239.72 107.983 241.654 109.917 241.654C114.511 241.654 114.511 246.005 109.917 257.367C106.775 264.62 105.324 265.587 102.665 263.411C100.006 261.235 97.8299 261.719 92.7531 265.587L86.2258 270.664L81.6326 265.829C77.281 260.994 76.7975 260.994 70.0285 265.103C66.1604 267.279 63.2594 269.697 63.7429 270.18C64.4682 270.664 67.3692 269.213 70.7537 267.038C76.5558 263.411 77.0393 263.411 80.6655 268.73C84.5336 274.29 84.7753 274.29 92.0279 269.939C98.0717 266.554 100.247 266.312 103.148 268.73C106.049 271.147 107.5 270.906 110.401 267.038C112.093 264.378 114.269 259.543 114.994 256.159C117.654 243.346 120.555 238.753 125.39 240.445C127.807 241.17 132.884 240.445 136.51 238.753C142.07 236.335 143.279 236.335 145.213 239.961C146.664 242.137 149.081 244.071 150.774 244.071C152.466 244.071 156.092 246.247 158.751 248.664C161.652 251.324 164.553 252.774 165.762 251.807C166.729 250.84 166.729 251.565 165.762 253.258C164.795 254.95 163.103 255.675 161.894 254.95C160.685 254.225 158.993 257.126 158.268 261.477C157.301 265.829 154.158 272.598 151.499 276.224C147.147 282.751 146.906 283.718 150.532 291.213C153.675 297.982 153.916 299.916 150.774 305.718C146.664 313.696 146.664 313.454 150.774 314.904C152.949 315.871 153.675 314.904 152.949 311.762C152.224 309.344 152.949 306.685 154.4 305.96C156.092 304.751 157.059 306.685 157.059 311.036C157.301 314.663 158.751 321.915 160.685 327.234C163.828 335.937 163.586 336.904 158.026 342.464C153.433 347.057 151.257 347.783 147.631 345.849C144.004 343.673 142.312 344.398 138.928 349.475C135.06 355.519 135.06 358.661 138.928 367.848C140.136 370.749 138.444 372.925 133.126 375.826C124.423 380.177 120.796 378.969 120.796 371.958C120.796 367.848 120.071 367.606 115.478 370.024C107.5 374.134 96.6212 384.771 96.6212 388.397C96.6212 390.331 93.4784 391.54 87.6763 391.54C75.8305 391.54 73.413 393.474 71.9625 402.66C71.2372 408.221 71.7207 410.155 73.8965 409.188C75.5888 408.704 76.5558 406.77 75.8305 405.32C73.6547 399.276 79.4568 395.408 91.5444 394.924C106.291 394.199 108.225 393.232 112.819 382.111C116.445 374.134 116.687 373.892 118.862 378.485C120.071 381.144 124.906 384.771 129.258 386.463C136.51 389.122 137.961 388.88 143.037 383.562C146.18 380.419 150.532 377.276 152.466 376.551C155.367 375.584 155.125 374.134 151.499 367.848L147.147 360.354L153.916 356.969C168.663 349.475 170.355 349.717 177.124 359.87C180.751 365.189 182.927 371.233 182.201 373.408C181.476 375.342 181.96 377.035 183.652 377.035C185.102 377.035 185.586 375.826 184.619 374.134C183.652 372.441 183.894 372.2 185.828 373.167C187.278 374.134 188.003 375.826 187.278 377.035C186.553 378.002 188.729 380.661 191.871 382.595C195.981 385.496 197.19 387.913 196.465 392.507C195.498 396.616 197.432 401.21 202.75 407.737C207.827 414.264 209.761 418.616 208.794 422.484C207.343 427.077 208.069 427.802 214.838 427.802C220.64 427.802 222.332 428.769 222.332 432.637C222.332 435.297 223.783 437.472 225.717 437.472C227.892 437.472 228.618 439.165 227.892 442.308C226.925 446.417 227.892 447.143 233.936 447.143C241.672 447.143 244.09 450.527 244.09 461.648C244.09 470.834 241.914 476.153 238.046 476.153C236.112 476.153 233.936 477.12 233.211 478.57C232.244 480.021 233.694 480.263 237.321 478.812C244.09 476.395 249.408 462.131 247.232 451.978C246.507 447.868 243.123 442.549 239.496 439.89C228.134 431.429 227.167 429.978 227.167 424.66C227.167 419.099 219.431 410.396 212.178 407.737C209.761 407.012 207.827 403.869 207.827 401.21C207.827 395.649 210.244 396.375 218.948 404.111C221.607 406.528 225.958 408.946 228.618 409.429C238.288 411.363 250.859 418.858 249.65 422C248.683 424.66 249.892 424.901 256.177 422.726C263.43 420.066 288.814 421.033 291.715 423.934C292.44 424.66 291.231 429.495 289.297 434.571C285.913 443.275 285.913 444.242 289.539 448.11C293.165 451.736 293.165 452.703 287.605 462.856C282.045 473.01 282.045 473.735 285.913 478.087C291.231 483.889 290.99 485.823 285.187 485.823C282.77 485.823 276.968 488.966 272.375 493.075C266.573 497.91 263.43 499.361 261.738 497.669C260.287 496.218 256.661 495.493 253.518 495.976C248.199 496.702 247.716 497.669 248.199 508.306C248.925 519.185 248.683 519.668 243.123 518.218C236.354 516.525 233.211 520.635 234.178 529.822C234.903 537.558 227.892 542.876 212.42 546.261L201.783 548.437L212.42 547.47C225.233 546.503 235.387 539.492 236.354 531.514C236.837 528.371 237.562 524.02 238.288 522.086C239.255 519.185 239.738 519.185 241.672 522.086C243.364 524.987 244.573 524.745 248.683 521.119C252.551 517.492 253.035 515.8 250.859 509.515C249.166 504.679 249.166 501.537 250.859 499.844C254.969 495.735 260.771 499.361 262.221 506.855C263.188 510.482 265.364 516.525 267.298 520.152C270.441 525.954 270.441 527.404 267.056 532.723C262.946 539.008 264.397 544.81 271.649 550.854C274.792 553.513 274.55 554.722 271.166 560.766C268.99 564.634 264.88 568.26 262.463 568.502C259.804 568.985 257.386 570.436 256.903 572.128C254.969 577.93 269.474 568.26 274.067 560.766C277.693 554.239 277.935 552.788 275.034 550.371C266.331 543.118 265.606 539.975 270.682 533.448C275.517 527.404 275.517 527.404 270.682 519.185C266.089 511.207 266.089 510.723 270.199 502.504C273.1 497.427 278.418 492.35 284.946 489.207L295.099 484.372L290.023 477.845L284.946 471.318L289.781 465.032C295.341 458.021 296.308 449.56 292.198 445.45C288.089 441.341 298.484 419.583 303.561 421.517C305.495 422.242 309.363 422.967 312.022 422.967C315.406 422.967 316.615 424.901 316.857 429.495C317.34 435.297 317.34 435.538 318.307 430.703C318.791 427.802 320.725 425.385 322.417 425.385C324.351 425.385 327.011 423.693 328.945 421.517C330.637 419.583 335.955 415.715 341.032 413.056L349.977 408.462L357.713 415.715L365.449 422.967L360.372 429.253C357.23 433.363 355.295 439.165 355.295 444.967C355.295 452.219 354.087 455.12 349.01 458.263C339.34 464.79 331.12 485.823 338.373 485.823C339.582 485.823 344.658 489.207 349.735 493.317C358.197 500.328 358.197 500.328 348.768 490.9C342.966 485.339 338.373 479.296 338.373 477.362C338.373 475.428 341.516 470.351 345.625 465.999C352.153 458.747 352.636 458.505 352.878 463.098C352.878 465.999 355.779 470.109 359.405 472.526C365.207 476.395 365.449 477.12 361.823 479.779C358.438 482.197 358.197 484.131 360.131 489.207C363.757 499.119 363.032 502.745 357.713 502.745C350.702 502.745 349.01 509.031 353.845 518.701C358.68 529.338 358.68 539.492 353.845 548.92C349.977 556.414 352.153 563.183 358.438 563.183C359.889 563.183 359.405 561.491 357.23 559.315C353.845 555.931 353.845 554.722 356.746 548.92C361.098 540.7 361.098 529.58 356.504 518.701C352.153 508.547 353.361 505.163 360.614 505.163C365.207 505.163 365.449 504.196 363.757 494.042C362.548 485.823 363.032 482.197 365.449 480.746C367.867 479.296 366.9 477.12 362.065 472.043C356.021 465.757 355.779 464.065 356.988 450.285C357.955 439.89 359.889 433.846 362.79 431.187C369.075 425.385 368.592 419.099 361.339 414.264C353.361 409.188 353.603 407.979 363.757 402.418L372.46 397.825L378.987 404.353C384.789 410.155 385.031 411.605 382.13 415.957C379.471 420.308 379.471 421.517 382.372 423.209C384.064 424.418 386.965 425.385 388.657 425.385C390.349 425.385 394.943 427.077 399.053 429.011C405.58 432.396 406.547 432.396 409.931 429.011C411.865 427.077 412.591 425.385 411.14 425.385C409.931 425.385 408.239 426.352 407.514 427.319C406.789 428.528 401.47 427.319 395.668 424.66C386.723 420.55 385.273 418.858 386.24 414.023C386.965 410.155 385.514 406.528 382.13 403.386C374.877 396.616 376.57 393.232 388.657 390.331C394.218 388.88 402.195 384.529 406.547 380.419C413.558 373.892 415.25 373.167 421.535 375.584C427.579 378.002 429.03 377.518 433.865 371.233C439.183 364.705 439.425 364.463 446.678 368.331C450.787 370.507 455.864 372.2 457.798 372.2C462.15 372.2 464.809 363.98 463.6 354.31C462.633 345.849 470.128 339.805 473.754 345.607C474.963 347.541 476.171 351.651 476.171 354.552C476.171 359.145 477.38 359.87 487.775 359.628C494.061 359.628 505.182 360.112 512.434 360.837C524.038 362.046 525.73 362.771 526.456 367.848C528.39 383.562 528.873 384.287 536.851 381.386C542.895 379.452 544.829 379.694 548.939 383.32C554.257 387.913 560.784 386.221 562.718 379.21C563.202 377.276 561.993 378.002 559.817 380.661C555.949 385.496 555.949 385.496 551.356 380.177C547.488 375.584 545.796 375.101 539.269 377.035C530.807 379.452 530.082 378.727 528.873 366.156C528.148 359.145 527.664 358.903 513.643 357.694C503.731 356.969 499.38 355.519 499.863 353.585C500.347 349.958 496.479 349.475 494.303 352.859C493.577 354.068 491.402 355.277 489.951 355.277C488.259 355.277 488.984 353.585 491.643 351.651C494.544 349.475 499.38 348.75 505.423 349.475C510.984 350.442 517.269 349.475 521.379 347.541C525.005 345.607 533.708 341.255 540.477 337.871C548.697 333.519 553.774 332.31 556.191 333.761C558.125 334.97 560.784 335.937 561.993 335.695C563.444 335.695 561.751 334.245 558.367 332.552C553.048 329.409 551.356 329.651 542.411 334.97C537.093 338.113 530.324 340.772 527.664 340.772C525.005 340.772 521.379 342.222 519.928 344.156C517.753 346.816 515.577 347.057 509.775 344.882C503.489 342.464 501.072 342.706 493.094 347.541L483.666 352.859L480.765 347.541C479.314 344.398 475.93 339.563 473.27 336.662L468.435 331.343L459.007 337.629L449.82 343.673L453.205 352.134C458.523 364.705 457.798 365.672 446.678 359.87L436.524 354.793L430.722 361.321C425.887 367.123 424.436 367.606 419.118 365.189C410.898 361.562 409.931 361.804 401.47 368.815C397.36 372.2 393.976 373.892 393.976 372.683C393.976 371.474 395.668 369.057 397.36 367.364C399.294 365.914 402.195 360.837 403.646 356.486C405.58 350.925 408.481 347.541 413.799 345.849C420.568 343.431 421.052 342.464 419.601 335.453C418.393 329.651 419.36 326.508 423.228 322.399C426.854 318.531 427.338 316.597 425.162 315.388C423.469 314.179 422.744 314.421 423.711 315.871C424.678 317.322 423.228 320.223 420.568 322.64C417.909 325.058 415.733 328.684 415.733 330.618C415.733 332.794 415.008 333.761 414.283 332.794C413.558 332.069 415.25 320.465 418.393 306.927C422.261 289.52 425.645 280.817 429.755 276.224C434.832 270.664 435.315 268.73 433.14 261.719C430.722 253.741 430.722 253.741 441.601 248.906C455.864 242.621 456.106 242.621 460.699 251.807C462.875 256.159 465.051 260.027 465.293 260.51C465.776 260.994 469.402 259.543 473.512 257.609C477.38 255.433 483.182 253.983 486.325 254.466C489.951 254.708 491.885 253.499 492.61 250.115C493.094 247.214 492.61 246.247 491.402 247.939C490.435 249.39 486.325 251.082 482.215 251.807C478.347 252.532 473.27 253.741 471.336 254.708C468.677 255.675 466.26 253.741 463.117 247.697C460.457 242.862 457.073 239.478 455.381 240.203C453.447 240.928 452.721 239.961 453.688 237.786C454.414 235.852 453.688 232.951 452.238 231.258C448.612 226.665 454.172 215.544 460.941 213.852C464.084 213.127 466.985 209.984 467.952 206.841C468.677 203.699 471.578 200.314 474.237 199.831C478.589 198.622 479.072 197.171 477.622 188.952C476.413 180.007 476.897 178.798 486.567 170.095C492.127 164.777 500.105 158.008 503.973 155.106C508.083 151.964 509.05 150.513 506.39 151.964C503.489 153.172 494.786 160.183 486.567 167.436C475.93 176.864 472.545 181.457 473.996 183.875C477.138 188.952 476.655 198.622 473.27 197.413C471.578 196.93 468.435 199.831 466.501 203.94C464.326 208.292 460.699 211.676 457.315 212.16C454.414 212.643 451.996 214.577 451.996 216.27C451.996 217.962 450.304 221.346 448.128 223.522C444.985 226.423 444.744 228.116 446.919 230.291C453.447 236.819 446.678 244.555 429.513 249.873C426.129 251.082 425.645 252.291 427.821 255.917C431.447 262.928 430.722 269.455 425.645 274.048C421.052 278.158 421.052 277.916 420.085 264.137C418.876 247.939 414.525 236.093 406.789 227.632C403.646 224.247 401.228 220.621 401.228 219.654C401.228 215.544 406.063 217.478 409.69 223.28C412.107 226.907 416.459 229.324 421.777 230.049C426.129 230.533 429.272 230.049 428.788 229.082C428.063 228.115 424.92 227.149 422.019 227.149C418.634 227.149 414.766 224.731 412.349 221.105C410.173 217.72 406.305 215.061 403.888 215.061C401.228 215.061 396.635 210.709 392.525 204.182C388.899 198.138 384.306 193.303 382.613 193.303C375.603 193.303 380.196 189.193 389.866 187.018C399.294 185.084 400.02 184.358 399.294 177.348C398.569 168.886 400.987 166.227 414.041 162.117C418.876 160.425 422.986 158.007 422.986 156.557C422.986 154.865 422.019 154.865 420.085 156.315C418.393 157.766 413.799 159.458 409.69 160.425C399.294 163.084 396.393 166.227 396.393 175.414V183.633H384.064C369.559 183.633 354.087 174.93 357.955 169.128C361.823 162.843 360.131 160.425 355.779 166.227L351.427 171.787L336.439 166.227C321.45 160.908 319.033 158.007 324.351 152.689C326.285 150.755 326.285 149.063 323.868 146.162C321.209 143.019 321.45 141.81 324.835 138.184C327.011 135.766 328.703 130.931 328.703 127.547C328.703 124.162 330.395 120.052 332.329 118.36C334.263 116.668 335.955 114.25 335.955 113.042C335.955 111.833 333.296 114.009 329.912 117.877C326.527 121.986 324.351 126.822 325.318 128.756C326.044 130.931 324.11 134.316 320.483 136.975C314.923 141.327 314.681 142.052 318.307 145.678C321.934 149.304 321.934 150.03 318.307 154.139C314.923 157.766 312.264 158.491 304.769 157.04C296.066 155.59 277.21 156.799 258.353 160.667C250.375 162.117 249.408 161.634 246.991 155.348C245.54 151.722 243.848 144.711 243.606 140.118C243.123 133.107 241.914 131.898 238.046 132.382C235.387 132.865 232.244 133.591 230.793 133.591C229.585 133.832 228.134 131.657 227.651 128.514C227.167 125.371 225.233 122.228 223.299 121.503C221.365 120.778 217.014 114.734 213.629 108.207C209.519 99.9871 206.376 96.6026 203.959 97.5696C200.574 98.7783 190.904 83.548 190.904 76.5372C190.904 74.6032 188.245 71.2187 184.861 69.0429C181.476 66.8671 178.817 66.1419 178.817 67.3506ZM207.827 103.855C207.827 105.064 206.135 106.273 204.201 106.273C202.267 106.273 200.574 105.064 200.574 103.855C200.574 102.405 202.267 101.438 204.201 101.438C206.135 101.438 207.827 102.405 207.827 103.855ZM240.463 137.459C239.013 138.667 235.387 140.36 232.002 141.085C226.2 142.777 226.2 142.535 230.552 139.151C235.628 135.041 244.331 133.591 240.463 137.459ZM243.848 160.667V165.502L241.672 160.667C240.463 158.007 239.496 154.139 239.496 152.205C239.255 149.063 239.496 149.063 241.672 152.205C242.881 154.139 243.848 158.007 243.848 160.667ZM323.868 170.579C353.845 179.282 382.13 200.072 397.602 224.731C401.47 230.775 405.822 236.577 407.272 238.027C410.898 240.928 414.283 249.631 411.14 247.939C409.931 246.972 409.448 248.664 410.173 251.565C411.14 254.708 412.107 255.675 413.316 253.741C415.25 250.598 418.151 256.159 418.151 262.928C418.151 266.071 417.667 266.312 415.975 263.895C415.008 262.202 414.525 269.455 415.25 280.092C416.459 303.059 409.931 331.827 398.327 351.892C383.097 378.969 348.526 403.869 316.373 410.88C298.967 414.748 263.672 412.814 247.716 407.254C230.068 401.21 204.201 382.837 193.08 369.057C171.081 341.255 160.927 305.718 166.246 273.565C167.938 264.136 170.355 253.499 171.806 249.631C174.223 243.346 174.707 243.346 176.399 247.697C177.366 250.357 177.608 253.499 176.883 254.708C176.157 255.917 176.883 256.159 178.333 255.192C180.267 254.225 180.267 251.565 178.575 246.73C174.949 236.819 182.927 222.555 202.75 202.973C227.167 178.556 253.76 167.678 290.023 166.952C303.077 166.711 315.406 167.919 323.868 170.579ZM201.541 189.677C199.366 193.061 196.465 195.721 195.014 195.721C193.564 195.721 195.014 193.061 198.157 189.677C201.3 186.292 204.201 183.633 204.684 183.633C205.168 183.633 203.717 186.292 201.541 189.677ZM157.059 284.444C156.817 292.905 156.576 293.388 153.433 289.037C151.015 285.894 150.774 283.235 152.466 280.092C155.85 273.323 157.059 274.532 157.059 284.444ZM464.809 342.222C458.282 347.299 457.315 349.233 459.249 352.859C463.117 359.87 461.908 362.046 458.04 355.277C453.205 346.816 453.447 344.882 461.183 340.288C471.095 334.003 473.512 335.212 464.809 342.222ZM166.729 344.398C166.729 346.332 162.619 349.717 157.784 351.651C143.279 357.694 141.829 359.628 147.147 367.123C151.499 373.408 151.499 373.408 143.763 379.936C138.686 384.287 135.06 385.738 132.884 384.287C130.95 383.078 129.983 381.628 130.466 381.386C131.192 380.903 134.576 378.485 138.444 376.309C144.73 372.2 144.972 371.716 141.345 364.947C136.752 355.76 140.62 347.541 148.598 349.475C151.741 350.2 156.092 348.75 159.718 345.849C166.729 339.805 166.729 339.805 166.729 344.398ZM437.491 359.87C437.491 360.837 434.832 364.705 431.447 368.331C426.371 373.892 424.92 374.375 419.36 371.716C413.558 369.057 412.349 369.54 404.855 377.76C400.261 382.595 394.459 386.705 391.8 386.705C386.24 386.705 385.998 386.463 388.174 380.903C388.899 378.727 391.317 377.035 393.492 377.035C395.668 377.035 400.503 374.134 404.129 370.507C410.173 364.947 411.865 364.222 415.733 366.881C422.744 371.233 427.096 370.507 431.931 363.738C436.766 357.211 437.491 356.727 437.491 359.87ZM111.126 379.21C111.126 382.837 101.94 392.748 100.247 391.056C98.0717 388.88 105.324 377.035 108.709 377.035C110.159 377.035 111.126 378.002 111.126 379.21ZM205.409 398.067C205.409 404.111 205.168 404.353 201.541 400.726C199.366 398.55 198.399 395.649 199.124 394.199C202.267 389.364 205.409 391.54 205.409 398.067ZM222.332 421.275C222.332 422.967 220.156 424.418 217.497 424.418C212.662 424.418 211.453 422.726 214.354 419.825C217.014 416.924 222.332 417.891 222.332 421.275ZM238.046 442.308C238.771 443.516 237.321 444.725 234.42 444.725C231.519 444.725 230.068 443.516 230.793 442.308C231.519 440.857 233.211 439.89 234.42 439.89C235.628 439.89 237.321 440.857 238.046 442.308Z" fill="black"/>
<path d="M358.441 66.8676C347.804 67.5929 345.628 68.5599 345.628 72.4279C345.628 74.8455 344.661 77.5047 343.453 78.23C342.244 78.9552 340.793 84.032 340.31 89.1088C339.826 94.4273 340.31 98.0536 341.277 97.5701C342.486 96.8449 343.211 93.2186 343.211 89.5923C343.211 85.966 344.661 80.164 346.354 76.5377C348.771 70.9774 350.705 70.0104 359.408 70.0104C364.968 70.0104 370.287 68.8017 371.012 67.5929C371.738 66.1424 372.221 65.4171 371.738 65.6589C371.254 65.9006 365.21 66.3841 358.441 66.8676Z" fill="black"/>
<path d="M379.474 135.766C376.331 141.084 372.705 143.744 369.32 143.744C365.21 143.744 363.76 145.194 363.518 149.304C363.276 153.656 363.276 153.897 364.243 149.788C365.452 144.469 367.628 143.744 371.496 147.612C373.188 149.304 375.847 146.887 380.199 139.15C387.21 126.579 386.726 123.92 379.474 135.766Z" fill="black"/>
<path d="M440.395 135.283C446.439 139.876 446.439 139.876 455.867 135.283C460.944 132.623 463.845 130.448 462.153 130.448C460.461 130.448 455.867 132.14 452.241 134.074C445.956 137.217 444.989 137.217 442.329 134.074C440.637 132.14 438.219 130.448 436.769 130.448C435.56 130.448 437.252 132.623 440.395 135.283Z" fill="black"/>
<path d="M535.886 190.161C534.919 190.886 534.194 194.754 534.194 198.38C534.194 202.248 532.501 206.116 530.084 207.567C527.666 209.017 526.941 210.226 528.392 210.226C532.501 210.226 535.886 204.908 537.095 196.204C538.304 187.743 538.304 187.743 535.886 190.161Z" fill="black"/>
<path d="M-17 237.786C-17 238.511 -13.6155 240.687 -9.74745 242.863C-4.67066 245.522 -2.4949 248.423 -2.4949 252.533C-2.4949 256.159 -1.04439 258.577 0.889626 258.577C2.82364 258.577 6.44991 261.236 9.10918 264.62C11.7685 268.005 14.6695 270.664 15.6365 270.664C16.6035 270.664 19.5045 273.323 22.1638 276.95C26.7571 282.752 27.2406 282.752 31.5921 278.884C35.9436 275.016 36.4271 275.016 41.5039 279.367L46.8224 283.96L41.9874 277.433C37.8776 271.631 36.9106 271.389 32.0756 274.532C26.9988 277.675 26.2736 277.433 22.6473 271.873C20.4715 268.488 17.5705 265.829 15.8782 265.829C11.2849 265.587 -0.077381 254.225 -0.077381 249.39C-0.077381 245.522 -2.73665 243.346 -15.066 237.302C-16.2747 236.819 -17 237.061 -17 237.786Z" fill="black"/>
<path d="M51.6559 271.631C50.9307 273.565 50.6889 277.191 51.1724 279.609C51.8977 282.268 52.623 281.059 53.3482 275.983C54.7987 267.763 53.8317 265.829 51.6559 271.631Z" fill="black"/>
<path d="M445.227 298.707C443.777 301.608 441.118 302.333 437.491 301.366C431.448 299.674 422.986 303.058 422.986 307.168C422.986 308.618 424.679 308.135 426.613 305.959C429.03 303.542 432.898 302.816 437.25 303.542C442.81 304.75 444.986 304.025 446.92 299.915C450.304 293.872 448.37 292.905 445.227 298.707Z" fill="black"/>
<path d="M139.413 328.926C133.611 334.487 129.26 341.014 129.26 343.915C129.26 347.541 127.809 349.234 125.15 348.992C122.733 348.75 121.524 349.475 122.249 350.684C124.183 353.827 130.469 353.343 130.952 349.717C130.952 348.267 131.436 345.607 131.436 344.399C132.161 339.08 141.589 327.718 148.6 323.608C152.468 320.949 154.402 319.015 152.71 319.015C150.776 319.015 144.974 323.366 139.413 328.926Z" fill="black"/>
<path d="M570.457 372.925C570.457 376.793 575.534 384.287 578.435 384.287C580.369 384.287 580.611 383.562 578.677 382.353C577.226 381.386 574.809 378.485 573.358 375.826C571.908 373.167 570.457 371.958 570.457 372.925Z" fill="black"/>
<path d="M55.2826 422.242C51.8981 426.11 46.8213 432.154 43.9203 435.78L38.8435 442.549L34.7338 436.264C31.591 431.428 30.1405 430.703 27.4812 432.879C25.5472 434.33 24.0967 436.989 24.0967 438.439C24.0967 439.89 25.3054 439.406 26.5142 437.472C28.69 434.33 29.8987 434.813 34.0085 439.89L39.0853 445.934L45.6126 437.472C48.9971 432.879 54.7991 426.11 58.4254 422.242C61.8099 418.616 63.9857 415.715 63.0187 415.715C62.0517 415.715 58.4254 418.616 55.2826 422.242Z" fill="black"/>
<path d="M419.845 424.418C419.12 425.869 419.845 429.253 421.779 431.913C424.68 436.022 427.098 436.748 436.284 435.781C443.779 434.814 448.855 435.539 453.207 438.44C460.218 443.033 460.701 447.385 455.383 455.363C450.789 462.857 452.723 463.824 469.404 463.34C480.041 462.857 481.975 462.373 478.833 459.956C476.415 458.264 473.514 458.022 470.855 459.472C468.679 460.681 464.086 461.648 460.459 461.648C454.416 461.648 454.416 461.406 458.284 455.604C466.987 442.55 455.383 431.429 434.834 433.121C425.405 433.847 424.197 433.363 422.988 427.803C422.263 424.418 420.812 422.968 419.845 424.418Z" fill="black"/>
<path d="M252.552 431.187C253.277 433.846 252.552 436.747 250.859 437.714C248.684 439.165 248.684 440.615 250.859 445.208C252.793 448.593 253.277 448.835 252.552 446.175C251.826 443.758 252.552 440.373 254.002 438.439C255.936 436.264 255.694 434.088 253.76 430.945C251.101 426.835 251.101 426.835 252.552 431.187Z" fill="black"/>
<path d="M309.364 440.132C307.914 442.791 306.947 446.176 307.43 447.385C307.914 448.593 309.364 446.418 311.057 442.308C314.2 434.088 313.233 432.638 309.364 440.132Z" fill="black"/>
<path d="M13.2192 454.153C5.48318 462.614 4.75792 464.065 10.0765 460.68C16.1203 456.812 25.5486 444.967 23.6146 443.758C23.1311 443.516 18.5378 448.109 13.2192 454.153Z" fill="black"/>
<path d="M229.103 489.449C226.686 492.592 224.752 496.702 224.752 498.394C224.752 500.086 227.169 497.91 229.829 493.559C235.873 484.372 235.147 481.229 229.103 489.449Z" fill="black"/>
<path d="M385.517 510.481C385.275 516.283 384.55 523.778 383.341 527.404C381.891 532.481 382.374 534.173 386.484 536.59C390.835 538.766 392.528 538.283 397.363 533.448C400.264 530.305 403.406 526.437 403.89 524.745C405.582 520.151 416.945 525.47 425.164 534.656L432.417 542.634L440.878 538.041C445.713 535.382 449.097 532.964 448.614 532.481C448.13 531.997 444.262 533.448 440.153 535.865L432.417 540.217L425.889 532.481C422.263 528.371 415.736 523.294 411.626 521.118L403.648 517.25L400.264 525.712C397.846 531.272 394.945 534.173 391.802 534.173C384.792 534.173 384.066 531.514 388.176 519.91C390.594 512.657 390.835 508.547 389.143 505.163C387.693 502.503 386.242 500.328 386 500.328C385.759 500.328 385.517 504.921 385.517 510.481Z" fill="black"/>
<path d="M485.843 542.634C490.437 547.228 494.546 551.096 495.272 551.096C495.997 551.096 492.854 547.228 488.261 542.634C483.668 538.041 479.558 534.173 478.833 534.173C478.107 534.173 481.25 538.041 485.843 542.634Z" fill="black"/>
<path d="M511.953 537.074C510.019 538.766 506.876 543.843 505.184 547.953C502.525 554.964 501.074 555.931 492.13 556.414L482.218 556.656L491.404 557.623C502.283 558.832 506.635 555.931 508.81 546.261C509.777 541.667 512.437 538.525 516.788 536.832C520.415 535.624 521.623 534.415 519.448 534.415C517.514 534.173 514.129 535.624 511.953 537.074Z" fill="black"/>
</g>
<defs>
<clipPath id="clip0_383_4">
<rect width="580" height="580" fill="white"/>
</clipPath>
</defs>
</svg>
