<svg width="127" height="46" viewBox="0 0 127 46" fill="none" xmlns="http://www.w3.org/2000/svg" preserveAspectRatio="none">
    <path d="M125.546 19.5686V25.0684C125.689 29.0697 122.85 32.3767 118.045 35.0593C116.832 35.7368 115.493 36.3745 114.045 36.9735C113.091 37.3683 112.09 37.7463 111.045 38.1078C110.08 38.442 109.078 38.7621 108.043 39.0684C107.23 39.3091 106.397 39.5412 105.545 39.7649C104.569 40.0214 103.568 40.2669 102.545 40.5015C101.564 40.7265 100.564 40.9416 99.5454 41.1468C98.3997 41.3777 97.2319 41.5961 96.0454 41.8023C95.2207 41.9456 94.387 42.083 93.5454 42.2145C91.9058 42.4708 90.2363 42.705 88.5454 42.9176C79.5613 44.0473 69.9718 44.5683 61.0456 44.5683C48.0712 44.5683 33.8726 43.3441 22.5454 40.5806C9.86381 37.4867 0.781382 32.4633 1.04557 25.0684V21.2657C0.985402 20.7169 0.984222 20.1514 1.04557 19.5686C0.914942 17.0866 2.31491 13.6628 6.54541 10.4646C7.5475 9.70704 8.70841 8.96214 10.0454 8.2454C17.4673 4.26673 44.27 0.619505 65.5 1.03174C76.4236 0.907634 111.529 3.28035 120.545 10.34C121.734 11.2704 122.748 12.2915 123.545 13.4108C124.197 14.325 124.705 15.3047 125.045 16.354C125.372 17.3604 125.546 18.4307 125.546 19.5686Z" fill="#B5E0DB"/>
    <path d="M1.04557 19.5686C-0.303035 32.3801 28.5648 36.856 50.0454 37.8465M1.04557 19.5686V20.5684M1.04557 19.5686C0.914942 17.0866 2.31491 13.6628 6.54541 10.4646M125.546 19.5686V25.0684C125.689 29.0697 122.85 32.3767 118.045 35.0593M125.546 19.5686C125.546 19.9077 125.523 20.2409 125.479 20.5684M125.546 19.5686C125.546 18.4307 125.372 17.3604 125.045 16.354M3.04541 30.0684V26.5684M5.04541 32.0684V29.5684M7.04541 33.5684V30.0684M10.0454 35.0684V32.0684M12.0454 36.5684V34.5684M15.0454 38.0684V35.5684M19.0454 39.0684V37.5684M22.5454 40.5806C33.8726 43.3441 48.0712 44.5683 61.0456 44.5683C69.9718 44.5683 79.5613 44.0473 88.5454 42.9176M22.5454 40.5806C9.86381 37.4867 0.781382 32.4633 1.04557 25.0684V20.5684M22.5454 40.5806V38.5684M50.0454 42.0684V38.5684V37.8465M54.0454 37.9944C56.5496 38.064 58.9062 38.0857 61.0456 38.0684C65.872 38.0684 71.7818 37.882 78.0454 37.4254M54.0454 37.9944V42.0684M54.0454 37.9944C52.7484 37.9584 51.4119 37.9095 50.0454 37.8465M62.0454 42.0684V39.0684M69.0454 39.0684V41.0684M75.0454 39.0684V42.0684M78.0454 37.4254V42.0684M78.0454 37.4254C79.0375 37.3531 80.0385 37.274 81.0454 37.1878M81.0454 37.1878V42.0684M81.0454 37.1878C81.9569 37.1097 82.8733 37.0258 83.7925 36.9359M83.7925 36.9359C83.7925 38.3859 83.7925 41.2425 83.7925 41.0684M83.7925 36.9359C85.3723 36.7813 86.9603 36.6088 88.5454 36.4171M86.0454 41.0684V38.0684M88.5454 36.4171V42.9176M88.5454 36.4171C89.3801 36.3161 90.2139 36.2099 91.0454 36.0981M88.5454 42.9176C90.2363 42.705 91.9058 42.4708 93.5454 42.2145M91.0454 42.5684V36.0981M91.0454 36.0981C92.7262 35.8721 94.3972 35.6237 96.0454 35.3513M93.5454 37.0684V42.2145M93.5454 42.2145C94.387 42.083 95.2207 41.9456 96.0454 41.8023M96.0454 35.3513V41.8023M96.0454 35.3513C97.2254 35.1562 98.3937 34.9489 99.5454 34.7287M96.0454 41.8023C97.2319 41.5961 98.3997 41.3777 99.5454 41.1468M99.5454 41.1468V34.7287M99.5454 41.1468C100.564 40.9416 101.564 40.7265 102.545 40.5015M99.5454 34.7287C100.559 34.5348 101.56 34.331 102.545 34.1169M102.545 34.1169V40.5015M102.545 34.1169C103.564 33.8954 104.565 33.663 105.545 33.419M102.545 40.5015C103.568 40.2669 104.569 40.0214 105.545 39.7649M105.545 33.419V39.7649M105.545 33.419C107.468 32.9405 109.311 32.4178 111.045 31.8479M105.545 39.7649C106.397 39.5412 107.23 39.3091 108.043 39.0684M108.043 39.0684L108.045 34.0684M108.043 39.0684C109.078 38.7621 110.08 38.442 111.045 38.1078M111.045 31.8479V38.1078M111.045 31.8479C112.086 31.5059 113.088 31.1469 114.045 30.7702M111.045 38.1078C112.09 37.7463 113.091 37.3683 114.045 36.9735M114.045 36.9735V30.7702M114.045 36.9735C115.493 36.3745 116.832 35.7368 118.045 35.0593M114.045 30.7702C115.487 30.2029 116.827 29.5955 118.045 28.9455M116.045 34.0684V31.0684M118.045 28.9455V35.0593M118.045 28.9455C119.151 28.3558 120.156 27.7312 121.045 27.0699M121.045 27.0699V30.0684M121.045 27.0699C121.798 26.5107 122.467 25.9253 123.045 25.3127M123.045 25.3127V31.0684M123.045 25.3127C124.393 23.8841 125.243 22.3071 125.479 20.5684M1.04557 20.5684H125.479M125.045 16.354H102.545M125.045 16.354C124.705 15.3047 124.197 14.325 123.545 13.4108M96.0454 17.5684H89.5454M83.7925 17.5684H77.0454M9.04541 16.5684H16.5454M8.04541 13.5684H17.0454M6.54541 10.4646H16.0454M6.54541 10.4646C7.5475 9.70704 8.70841 8.96214 10.0454 8.2454M10.0454 8.2454C17.4673 4.26673 44.27 0.619505 65.5 1.03174C76.4236 0.907634 111.529 3.28035 120.545 10.34M10.0454 8.2454H22.5454M29.5454 3.56845H35.5454M35.5454 6.56845H98.0454M33.5454 8.56845H108.043M120.545 10.34H112.545M120.545 10.34C121.734 11.2704 122.748 12.2915 123.545 13.4108M123.545 13.4108H64.5454M43.0454 13.4108H53.0454M57.5454 13.4108H63.0454M29.5454 11.5684H44.5454M53.0454 11.5684H75.0454M80.5454 10.4646H98.5454M18.5454 10.4646H24.5454M22.0454 6.06845H25.5454" stroke="black" stroke-linecap="round"/>
</svg>